<?xml version="1.0" standalone="no"?>
<!DOCTYPE svg PUBLIC "-//W3C//DTD SVG 20010904//EN"
 "http://www.w3.org/TR/2001/REC-SVG-20010904/DTD/svg10.dtd">
<svg version="1.0" xmlns="http://www.w3.org/2000/svg"
 width="1024.000000pt" height="1024.000000pt" viewBox="0 0 1024.000000 1024.000000"
 preserveAspectRatio="xMidYMid meet">

<g transform="translate(0.000000,1024.000000) scale(0.100000,-0.100000)"
fill="#000000" stroke="none">
<path d="M1050 9715 c-6 -16 -10 -60 -8 -99 3 -60 6 -71 22 -74 17 -4 18 2 14
59 l-5 63 54 -59 c29 -33 53 -63 53 -67 0 -5 7 -8 15 -8 13 0 15 15 13 97 -3
85 -5 98 -21 101 -16 3 -17 -2 -11 -62 4 -36 5 -66 2 -66 -3 0 -21 24 -42 54
-20 29 -46 62 -56 71 -19 17 -20 17 -30 -10z"/>
<path d="M1310 9733 c-30 -11 -50 -37 -50 -65 0 -25 7 -32 45 -49 51 -22 57
-29 45 -49 -7 -12 -15 -11 -47 5 -21 11 -41 21 -45 23 -18 8 -6 -21 17 -43 47
-48 125 -23 125 41 0 26 -4 34 -17 34 -27 0 -83 38 -83 55 0 10 10 15 30 15
17 0 30 -4 30 -10 0 -5 5 -10 10 -10 18 0 11 39 -9 50 -21 11 -28 11 -51 3z"/>
<path d="M1974 9654 c7 -93 14 -108 64 -121 65 -16 102 30 110 139 5 68 5 68
-22 68 -25 0 -26 -2 -26 -59 0 -84 -12 -111 -49 -111 -40 0 -53 26 -50 97 2
45 -1 57 -16 65 -17 10 -18 6 -11 -78z"/>
<path d="M2220 9634 c0 -95 2 -105 18 -102 15 3 17 17 20 106 3 97 2 102 -18
102 -19 0 -20 -6 -20 -106z"/>
<path d="M2337 9717 c-36 -36 -46 -110 -20 -145 28 -37 83 -51 118 -28 34 22
60 77 51 109 -10 42 -47 77 -88 84 -30 4 -41 1 -61 -20z m99 -42 c19 -29 14
-61 -16 -92 -34 -37 -80 -6 -80 53 0 59 66 85 96 39z"/>
<path d="M2802 9723 c-25 -49 -63 -165 -59 -180 3 -15 6 -13 17 9 23 48 83 51
121 6 39 -48 44 -30 10 43 -16 35 -36 81 -45 102 -16 40 -30 47 -44 20z m33
-90 c6 -31 5 -33 -20 -33 -23 0 -25 3 -20 23 4 12 9 30 12 41 7 23 19 10 28
-31z"/>
<path d="M2950 9642 l0 -99 31 -7 c17 -3 47 -6 65 -6 27 0 34 4 34 20 0 17 -7
20 -50 20 l-49 0 -3 82 c-2 54 -7 83 -15 86 -10 3 -13 -21 -13 -96z"/>
<path d="M950 9636 c0 -76 3 -96 14 -96 10 0 16 18 21 63 9 84 4 121 -17 125
-16 3 -18 -6 -18 -92z"/>
<path d="M1412 9718 c3 -7 13 -13 24 -14 57 -3 54 2 54 -89 0 -80 1 -85 21
-85 21 0 22 3 16 79 l-6 80 32 3 c21 2 33 9 35 21 3 15 -6 17 -88 17 -68 0
-91 -3 -88 -12z"/>
<path d="M1646 9633 c4 -54 8 -100 10 -102 1 -1 7 0 13 4 6 3 11 40 11 86 0
46 4 79 10 79 6 0 10 7 10 15 0 10 -10 15 -30 15 l-30 0 6 -97z"/>
<path d="M1737 9723 c-17 -16 -3 -23 43 -23 l50 0 0 -81 c0 -60 3 -80 13 -77
7 3 13 26 15 59 4 84 9 99 36 99 31 0 56 10 56 21 0 10 -203 12 -213 2z"/>
<path d="M2540 9635 c0 -76 3 -95 15 -95 10 0 15 16 17 61 l3 61 45 -61 c63
-84 74 -79 78 37 2 77 0 92 -13 92 -12 0 -15 -14 -15 -72 -1 -62 -3 -70 -13
-53 -29 49 -92 125 -104 125 -10 0 -13 -24 -13 -95z"/>
<path d="M4865 9671 c-3 -5 -1 -12 5 -16 5 -3 10 1 10 9 0 18 -6 21 -15 7z"/>
<path d="M4905 9660 c3 -5 10 -10 16 -10 5 0 9 5 9 10 0 6 -7 10 -16 10 -8 0
-12 -4 -9 -10z"/>
<path d="M5104 9655 c10 -8 23 -12 28 -9 14 9 -2 24 -25 24 -21 -1 -21 -1 -3
-15z"/>
<path d="M5200 9661 c0 -12 29 -23 41 -15 5 3 7 10 4 15 -8 12 -45 12 -45 0z"/>
<path d="M5300 9660 c0 -6 13 -9 29 -8 16 1 27 6 25 10 -7 12 -54 10 -54 -2z"/>
<path d="M5410 9660 c0 -5 11 -10 25 -10 14 0 25 5 25 10 0 6 -11 10 -25 10
-14 0 -25 -4 -25 -10z"/>
<path d="M5520 9660 c0 -5 9 -10 20 -10 11 0 20 5 20 10 0 6 -9 10 -20 10 -11
0 -20 -4 -20 -10z"/>
<path d="M5620 9660 c0 -13 20 -13 40 0 12 8 9 10 -12 10 -16 0 -28 -4 -28
-10z"/>
<path d="M5898 9663 c6 -2 18 -2 25 0 6 3 1 5 -13 5 -14 0 -19 -2 -12 -5z"/>
<path d="M5003 9653 c9 -2 23 -2 30 0 6 3 -1 5 -18 5 -16 0 -22 -2 -12 -5z"/>
<path d="M1691 9588 c-1 -27 4 -48 9 -48 12 0 12 47 0 75 -6 15 -9 8 -9 -27z"/>
<path d="M4562 9578 c-7 -7 -12 -20 -12 -30 0 -15 8 -18 45 -18 46 0 53 7 35
41 -12 21 -50 25 -68 7z"/>
<path d="M4002 9543 c12 -32 7 -67 -17 -128 -5 -12 1 -8 15 10 13 17 24 31 24
32 3 6 188 -38 212 -50 75 -39 104 -102 113 -252 l7 -110 8 89 c10 106 4 192
-17 232 -59 113 -131 160 -259 171 -49 4 -77 11 -85 22 -10 13 -10 9 -1 -16z"/>
<path d="M5635 9533 c-16 -8 -40 -26 -53 -39 -21 -22 -21 -24 -4 -24 11 0 25
-7 32 -15 8 -10 31 -15 66 -15 29 0 72 -7 93 -16 77 -31 132 -155 98 -221 -9
-16 -34 -46 -56 -66 -34 -31 -48 -37 -85 -37 -66 0 -103 18 -140 66 -22 28
-36 40 -39 32 -3 -7 -5 -4 -5 7 3 57 -1 64 -27 52 -14 -7 -28 -20 -31 -29 -3
-10 -9 -18 -14 -18 -5 0 -11 8 -13 18 -4 13 -5 12 -6 -5 0 -12 4 -25 10 -29 8
-5 7 -9 -1 -14 -10 -6 -5 -22 20 -62 87 -143 212 -185 342 -116 174 93 225
317 101 449 -83 89 -207 125 -288 82z"/>
<path d="M3195 9526 c-98 -24 -138 -57 -179 -146 -21 -45 -26 -70 -26 -140 0
-112 24 -292 61 -460 16 -74 31 -143 33 -153 4 -18 -34 -35 -53 -23 -19 12
-19 -10 -1 -104 39 -203 98 -329 210 -441 87 -87 191 -145 278 -156 l52 -6 0
-72 c0 -111 -15 -171 -70 -280 -59 -117 -111 -182 -190 -234 l-57 -38 -13 35
c-19 53 -93 126 -152 152 -43 18 -65 21 -137 18 -106 -4 -144 -22 -226 -103
-70 -68 -95 -125 -95 -211 l0 -52 -88 -89 c-66 -67 -100 -111 -139 -183 -91
-167 -98 -197 -98 -405 1 -167 3 -186 27 -258 50 -149 154 -291 259 -354 66
-39 124 -51 133 -28 9 24 -9 51 -90 136 -140 147 -193 260 -201 433 -8 149 8
258 51 357 38 86 103 184 160 238 l35 34 46 -42 c88 -81 206 -110 318 -77 100
29 203 144 222 246 6 32 13 38 76 68 124 59 228 182 304 360 36 82 38 95 43
215 l4 127 27 0 c55 0 178 43 248 86 183 114 308 322 338 566 8 63 10 61 -77
73 l-46 6 -7 -58 c-15 -142 -96 -320 -185 -409 -107 -107 -221 -151 -361 -141
-250 19 -419 199 -467 497 -8 52 -20 100 -26 105 -33 28 -73 248 -96 520 -11
128 -10 145 7 195 16 49 24 58 76 89 52 30 67 34 133 35 l74 1 0 43 0 42 -42
-1 c-24 0 -65 -6 -93 -13z m-167 -2152 c147 -61 178 -261 56 -362 -111 -91
-256 -54 -327 83 -50 97 -2 221 108 278 39 21 115 21 163 1z"/>
<path d="M3134 7175 c-7 -22 -12 -53 -12 -70 l0 -30 14 28 c9 16 14 46 12 70
l-3 42 -11 -40z"/>
<path d="M2943 7186 c-21 -10 -19 -11 17 -11 45 0 47 1 22 14 -11 6 -25 5 -39
-3z"/>
<path d="M6850 9533 c-34 -7 -40 -19 -40 -80 l0 -52 -57 -3 c-66 -3 -69 -8
-58 -94 l6 -54 55 0 54 0 0 -66 0 -67 77 7 c42 4 80 9 85 12 4 3 8 30 8 60 l0
54 55 0 c53 0 54 0 60 33 4 18 5 51 3 72 l-3 40 -58 3 -58 3 7 59 c6 52 4 59
-14 69 -21 11 -74 13 -122 4z"/>
<path d="M3502 9510 c0 -14 2 -19 5 -12 2 6 2 18 0 25 -3 6 -5 1 -5 -13z"/>
<path d="M9650 9479 c-19 -35 -8 -63 32 -82 45 -22 68 -17 89 21 l16 29 -47
26 c-57 32 -76 34 -90 6z"/>
<path d="M8668 9393 l-3 -68 -57 -3 -58 -3 0 -64 0 -64 58 -3 57 -3 -3 -62 -3
-63 81 0 80 0 0 66 0 67 49 -6 c68 -8 78 3 73 81 l-4 62 -60 0 -59 0 1 53 c1
28 1 58 1 65 -1 8 -23 12 -76 12 l-74 0 -3 -67z"/>
<path d="M7442 9422 l-34 -3 4 -203 3 -204 -120 -6 c-66 -4 -196 -4 -288 -1
-157 5 -172 7 -211 30 -56 33 -114 33 -169 1 -35 -21 -57 -25 -135 -27 l-93
-3 3 -60 3 -61 72 0 c39 0 73 -2 75 -5 2 -3 13 -26 26 -53 55 -119 200 -112
256 11 l19 42 313 0 314 0 5 28 c16 75 59 113 137 120 73 5 116 -24 142 -96
l19 -52 63 0 64 0 0 70 c0 90 -16 126 -88 205 -35 38 -79 103 -110 164 l-53
100 -92 3 c-51 2 -107 2 -125 0z m202 -109 c10 -21 31 -57 47 -80 l28 -43 -53
0 c-29 0 -81 3 -115 6 l-61 7 0 68 c0 44 4 69 13 72 6 3 37 6 68 6 54 1 56 0
73 -36z m-863 -314 c32 -22 59 -67 59 -96 -1 -11 -8 -4 -20 19 -43 81 -109 99
-186 51 -24 -16 -51 -41 -59 -58 -14 -28 -15 -29 -15 -6 0 34 36 88 68 100 49
17 121 13 153 -10z m-33 -65 c49 -34 48 -76 -2 -116 -35 -29 -71 -23 -95 16
-28 45 -26 70 5 95 32 25 61 27 92 5z"/>
<path d="M6700 8859 c-22 -18 -22 -19 -3 -10 12 6 25 16 28 21 9 15 3 12 -25
-11z"/>
<path d="M5642 9370 c-41 -25 -61 -85 -42 -130 15 -36 74 -90 98 -90 30 0 76
35 97 73 18 34 18 40 5 79 -26 71 -100 103 -158 68z"/>
<path d="M780 9367 c0 -24 -21 -37 -42 -26 -25 14 -79 2 -57 -12 12 -7 11 -9
-3 -9 -10 0 -18 -7 -18 -15 0 -15 17 -19 76 -15 27 1 33 -3 39 -27 l8 -28 13
33 c9 21 21 32 34 32 11 0 20 5 20 10 0 6 -6 10 -13 10 -7 0 -18 14 -24 30
-11 30 -33 41 -33 17z"/>
<path d="M8145 9340 c-17 -7 -15 -9 13 -9 17 -1 32 4 32 9 0 12 -17 12 -45 0z"/>
<path d="M8250 9335 c0 -8 9 -15 20 -15 11 0 20 7 20 15 0 8 -9 15 -20 15 -11
0 -20 -7 -20 -15z"/>
<path d="M5522 9315 c0 -16 2 -22 5 -12 2 9 2 23 0 30 -3 6 -5 -1 -5 -18z"/>
<path d="M8030 9330 c19 -13 30 -13 30 0 0 6 -10 10 -22 10 -19 0 -20 -2 -8
-10z"/>
<path d="M374 9312 c-9 -14 -15 -15 -39 -4 -34 16 -48 5 -43 -34 2 -23 9 -30
31 -32 17 -2 29 2 33 12 6 16 84 21 84 5 0 -18 38 -9 43 10 8 30 -7 43 -47 40
-21 -2 -40 2 -44 8 -6 9 -11 7 -18 -5z m-36 -41 c10 -6 7 -10 -12 -13 -18 -4
-26 -1 -26 8 0 16 18 18 38 5z"/>
<path d="M861 9304 c0 -11 3 -14 6 -6 3 7 2 16 -1 19 -3 4 -6 -2 -5 -13z"/>
<path d="M9548 9303 c-58 -9 -24 -23 57 -23 107 0 129 -16 140 -102 11 -86 8
-92 -53 -99 -75 -10 -77 -19 -4 -19 l62 0 2 -52 1 -53 6 50 6 50 47 3 c42 3
51 -1 74 -25 24 -26 26 -33 21 -90 -4 -50 -2 -63 9 -63 20 0 29 27 14 45 -7 9
-9 29 -5 57 10 67 -15 91 -97 98 l-63 5 0 77 c0 74 -2 79 -32 110 -29 29 -39
32 -95 34 -35 1 -75 0 -90 -3z"/>
<path d="M1920 9250 c0 -5 5 -10 10 -10 6 0 10 5 10 10 0 6 -4 10 -10 10 -5 0
-10 -4 -10 -10z"/>
<path d="M9247 9175 c-4 -8 -2 -17 2 -20 5 -2 11 4 14 15 6 23 -8 27 -16 5z"/>
<path d="M9336 9143 c-6 -14 -5 -15 5 -6 7 7 10 15 7 18 -3 3 -9 -2 -12 -12z"/>
<path d="M1378 9058 c4 -128 9 -143 11 -36 1 81 4 99 19 107 15 9 14 10 -8 11
-25 0 -25 0 -22 -82z"/>
<path d="M1842 9134 c8 -7 179 -6 186 1 3 3 -39 5 -93 5 -54 0 -96 -3 -93 -6z"/>
<path d="M2058 9133 c12 -2 32 -2 45 0 12 2 2 4 -23 4 -25 0 -35 -2 -22 -4z"/>
<path d="M2177 9132 c6 -4 13 -30 16 -57 l3 -50 2 58 c2 48 -1 57 -15 57 -12
0 -14 -3 -6 -8z"/>
<path d="M434 9088 c-23 -52 8 -75 49 -37 l22 20 -24 20 c-30 24 -36 24 -47
-3z"/>
<path d="M5012 9018 l3 -63 -62 -3 c-55 -3 -62 -5 -67 -27 -3 -14 -3 -50 0
-80 l7 -57 41 3 c89 4 86 6 86 -66 l0 -65 80 0 79 0 3 63 3 62 68 -3 67 -4 0
86 0 86 -70 0 -70 0 0 65 0 65 -86 0 -86 0 4 -62z"/>
<path d="M7572 8991 c-43 -27 -72 -77 -72 -124 0 -53 50 -106 105 -113 51 -7
122 28 148 73 18 31 18 33 -3 81 -12 28 -32 60 -45 72 -33 31 -92 36 -133 11z
m106 -47 c35 -24 45 -59 27 -95 -9 -16 -19 -30 -23 -30 -69 -12 -96 -6 -110
26 -17 38 -15 68 8 93 24 26 66 28 98 6z"/>
<path d="M1700 8944 c-6 -14 -11 -133 -12 -265 l-1 -239 -27 0 -27 0 -7 108
c-3 59 -7 135 -8 169 -1 60 -2 61 -27 58 -14 -1 -31 1 -37 6 -16 13 -23 -50
-23 -204 1 -113 -2 -130 -18 -143 -17 -12 -17 -13 0 -14 15 0 17 -12 17 -114
0 -62 -3 -134 -6 -160 -7 -45 -7 -46 -44 -46 -24 0 -40 5 -44 15 -3 8 -13 14
-23 14 -17 -1 -17 -2 0 -6 23 -6 22 -23 -2 -23 -17 0 -21 8 -24 53 l-3 52 -4
-55 c-3 -47 -5 -41 -10 40 l-6 95 -2 -92 -2 -92 -141 0 c-78 0 -144 -2 -147
-6 -3 -3 120 -5 274 -5 l279 0 -4 86 c-2 48 0 124 4 170 l7 84 29 0 29 0 0
-164 c0 -122 -3 -166 -12 -170 -7 -3 19 -4 57 -3 l70 2 2 50 c1 28 2 101 2
163 l1 112 48 2 47 1 -42 4 c-41 4 -43 6 -43 36 -1 18 -7 125 -14 238 -15 227
-26 269 -72 269 -17 0 -27 -8 -34 -26z m-143 -326 c-3 -8 -6 -5 -6 6 -1 11 2
17 5 13 3 -3 4 -12 1 -19z"/>
<path d="M2567 8943 c-54 -14 -57 -17 -42 -32 8 -10 15 -25 15 -33 0 -9 6 -18
13 -20 18 -7 92 17 90 29 -1 6 9 8 22 5 36 -6 45 25 16 50 -27 21 -36 21 -114
1z"/>
<path d="M8186 8951 c-3 -4 -20 -11 -38 -15 -53 -11 -18 -29 64 -32 100 -4 93
-2 148 -54 41 -38 52 -56 61 -100 23 -107 -13 -203 -98 -260 -43 -28 -54 -31
-108 -28 -37 2 -77 12 -103 26 -23 12 -42 19 -42 16 0 -3 -7 2 -16 10 -8 9
-27 16 -42 16 l-26 0 30 -31 c38 -41 100 -76 147 -84 33 -7 38 -11 37 -34 -3
-42 2 -49 9 -12 6 35 15 40 84 56 40 9 109 58 137 97 16 22 38 65 50 94 17 46
18 62 10 100 -26 113 -99 201 -191 228 -58 18 -105 21 -113 7z"/>
<path d="M1391 8894 c0 -11 3 -14 6 -6 3 7 2 16 -1 19 -3 4 -6 -2 -5 -13z"/>
<path d="M8110 8900 c0 -5 5 -10 10 -10 6 0 10 5 10 10 0 6 -4 10 -10 10 -5 0
-10 -4 -10 -10z"/>
<path d="M8069 8861 c-15 -15 -34 -42 -43 -61 -9 -19 -11 -26 -4 -16 7 11 28
37 47 58 39 44 39 56 0 19z"/>
<path d="M9739 8886 c-3 -3 -20 -6 -37 -8 -22 -1 -31 -7 -28 -15 3 -7 -3 -17
-14 -23 -24 -13 -35 -47 -21 -64 20 -23 70 -28 102 -9 30 18 36 32 20 49 -5 5
-11 24 -13 42 -2 19 -5 31 -9 28z"/>
<path d="M8006 8823 c-6 -14 -5 -15 5 -6 7 7 10 15 7 18 -3 3 -9 -2 -12 -12z"/>
<path d="M455 8823 c-56 -6 -65 -17 -65 -78 l0 -53 -71 -4 c-80 -4 -85 -9 -95
-86 -8 -65 -1 -323 10 -340 11 -18 482 -17 493 1 12 18 16 389 4 407 -7 10
-33 16 -85 18 l-76 4 0 59 c0 32 -3 60 -7 62 -15 9 -69 14 -108 10z m84 -37
c7 -8 11 -32 9 -53 l-3 -38 -70 -3 -70 -3 3 50 c3 42 7 51 25 54 49 10 95 6
106 -7z m-19 -227 l0 -41 45 6 45 7 0 -51 0 -52 -45 4 -45 3 0 -43 0 -43 -37
3 c-36 3 -38 5 -41 40 -3 36 -4 37 -50 40 l-47 3 -3 43 -3 42 50 0 51 0 0 40
0 40 40 0 40 0 0 -41z"/>
<path d="M5520 8818 c0 -5 18 -8 40 -8 22 0 40 2 40 4 0 2 -18 6 -40 8 -22 2
-40 0 -40 -4z"/>
<path d="M6118 8823 c7 -3 16 -2 19 1 4 3 -2 6 -13 5 -11 0 -14 -3 -6 -6z"/>
<path d="M6190 8826 c0 -2 11 -6 25 -8 14 -3 25 -1 25 3 0 5 -11 9 -25 9 -14
0 -25 -2 -25 -4z"/>
<path d="M8275 8814 c11 -8 19 -20 17 -25 -1 -6 2 -8 7 -5 5 4 11 0 14 -6 2
-7 7 -10 11 -7 10 9 -38 59 -55 59 -9 -1 -7 -6 6 -16z"/>
<path d="M1568 8813 c6 -2 18 -2 25 0 6 3 1 5 -13 5 -14 0 -19 -2 -12 -5z"/>
<path d="M2412 8800 c13 -20 57 -44 66 -35 6 6 7 6 -40 33 -35 19 -37 20 -26
2z"/>
<path d="M5663 8813 c26 -2 67 -2 90 0 23 2 2 3 -48 3 -49 0 -68 -1 -42 -3z"/>
<path d="M5813 8813 c9 -2 25 -2 35 0 9 3 1 5 -18 5 -19 0 -27 -2 -17 -5z"/>
<path d="M9917 8813 c-11 -10 -8 -51 3 -58 6 -4 10 8 10 29 0 37 -2 41 -13 29z"/>
<path d="M9316 8779 c-81 -96 -71 -162 18 -119 28 14 30 14 79 -40 28 -30 47
-49 42 -41 -4 8 -10 32 -12 55 -6 46 -44 124 -78 156 l-22 21 -27 -32z"/>
<path d="M2192 8613 l-2 -183 -130 0 -130 0 -2 178 -2 177 -6 -180 c-5 -167
-2 -227 8 -197 5 17 262 17 262 0 0 -9 3 -9 12 0 8 8 55 12 146 12 l133 0 -2
-60 c-1 -33 1 -63 5 -67 4 -4 6 24 4 62 l-3 70 -142 3 -143 3 -3 182 -2 182
-3 -182z"/>
<path d="M1393 8745 c0 -22 2 -30 4 -17 2 12 2 30 0 40 -3 9 -5 -1 -4 -23z"/>
<path d="M8219 8749 c-9 -18 -8 -20 12 -17 27 4 36 23 15 31 -10 4 -20 -2 -27
-14z"/>
<path d="M8337 8739 c4 -13 8 -18 11 -10 2 7 -1 18 -6 23 -8 8 -9 4 -5 -13z"/>
<path d="M2462 8710 c0 -14 2 -19 5 -12 2 6 2 18 0 25 -3 6 -5 1 -5 -13z"/>
<path d="M8378 8690 c-3 -25 -9 -58 -12 -75 -5 -23 -2 -20 9 10 9 22 14 56 13
75 -3 34 -4 34 -10 -10z"/>
<path d="M8152 8711 c-10 -6 -9 -11 3 -21 11 -9 19 -10 26 -3 13 13 -12 35
-29 24z"/>
<path d="M8258 8712 c-10 -2 -18 -8 -18 -13 0 -13 27 -11 35 2 9 13 4 16 -17
11z"/>
<path d="M9910 8670 c0 -16 5 -30 10 -30 6 0 10 14 10 30 0 17 -4 30 -10 30
-5 0 -10 -13 -10 -30z"/>
<path d="M8220 8659 c0 -18 2 -19 15 -9 15 12 12 30 -6 30 -5 0 -9 -10 -9 -21z"/>
<path d="M8712 8663 c4 -21 29 -24 36 -5 2 8 -2 10 -14 5 -12 -4 -15 -3 -10 5
4 7 2 12 -4 12 -6 0 -10 -8 -8 -17z"/>
<path d="M8814 8668 c-9 -15 10 -30 29 -22 9 3 17 10 17 14 0 12 -39 19 -46 8z"/>
<path d="M8596 8661 c-14 -5 -16 -10 -7 -15 15 -9 41 -1 41 14 0 11 -7 12 -34
1z"/>
<path d="M8913 8658 c2 -7 12 -13 22 -13 10 0 20 6 23 13 2 7 -6 12 -23 12
-17 0 -25 -5 -22 -12z"/>
<path d="M9020 8655 c0 -8 5 -15 10 -15 6 0 10 7 10 15 0 8 -4 15 -10 15 -5 0
-10 -7 -10 -15z"/>
<path d="M8248 8625 c-6 -30 -2 -32 12 -6 6 11 6 22 1 25 -5 3 -11 -5 -13 -19z"/>
<path d="M8320 8593 c0 -10 4 -14 8 -8 4 6 11 13 16 18 5 4 2 7 -7 7 -10 0
-17 -8 -17 -17z"/>
<path d="M8200 8590 c-13 -8 -13 -10 2 -10 9 0 20 5 23 10 8 13 -5 13 -25 0z"/>
<path d="M9918 8550 c2 -16 6 -30 8 -30 2 0 4 14 4 30 0 17 -4 30 -8 30 -5 0
-7 -13 -4 -30z"/>
<path d="M2540 8545 c0 -8 2 -15 4 -15 2 0 6 7 10 15 3 8 1 15 -4 15 -6 0 -10
-7 -10 -15z"/>
<path d="M4518 8488 l-3 -63 -35 -6 c-35 -6 -35 -6 -4 -8 40 -1 54 -17 54 -62
0 -59 19 -56 22 3 l3 53 53 0 c28 -1 52 2 52 7 0 4 -24 8 -52 10 l-53 3 -5 59
c-7 83 -28 86 -32 4z"/>
<path d="M2531 8504 c0 -11 3 -14 6 -6 3 7 2 16 -1 19 -3 4 -6 -2 -5 -13z"/>
<path d="M2548 8495 c-6 -27 -1 -30 21 -16 8 5 11 16 8 25 -9 24 -24 19 -29
-9z"/>
<path d="M5900 8448 l0 -61 -50 5 -50 5 0 -52 0 -52 50 5 50 5 0 -52 0 -51 60
0 60 0 0 48 0 47 55 -3 55 -4 -3 54 -2 53 -48 -3 -47 -4 0 60 0 59 -65 1 -65
1 0 -61z"/>
<path d="M8900 8478 c-69 -31 -75 -50 -33 -92 14 -15 33 -24 40 -22 8 3 25 -1
39 -10 23 -16 24 -16 24 9 0 13 9 36 21 50 16 21 18 31 9 46 -9 18 -42 43 -52
40 -2 0 -23 -10 -48 -21z"/>
<path d="M9910 8426 c0 -19 5 -38 10 -41 6 -4 10 10 10 34 0 23 -4 41 -10 41
-5 0 -10 -15 -10 -34z"/>
<path d="M2568 8443 c6 -2 18 -2 25 0 6 3 1 5 -13 5 -14 0 -19 -2 -12 -5z"/>
<path d="M890 8430 c19 -13 30 -13 30 0 0 6 -10 10 -22 10 -19 0 -20 -2 -8
-10z"/>
<path d="M1393 8432 c-29 -3 -33 -7 -32 -30 0 -23 2 -24 8 -8 7 18 8 18 14 3
3 -9 11 -17 18 -17 6 0 9 7 6 14 -4 10 -1 13 9 9 7 -3 14 0 14 5 0 6 12 12 28
14 l27 3 -30 5 c-16 3 -45 4 -62 2z"/>
<path d="M6682 8431 c-42 -11 -56 -25 -17 -18 17 4 45 9 63 13 46 9 40 -9 -10
-32 -118 -51 -234 -149 -282 -235 -18 -33 -17 -33 24 9 30 31 46 40 53 33 16
-16 23 -14 53 16 18 18 29 23 32 15 2 -7 8 -9 14 -6 6 4 6 9 -3 14 -9 6 -9 12
4 24 10 10 18 12 22 6 10 -17 25 -11 25 10 0 13 7 20 20 20 11 0 20 5 20 10 0
6 8 10 18 10 10 0 24 9 32 20 8 11 22 20 32 20 10 0 18 4 18 8 0 14 48 32 85
32 19 0 35 -4 35 -10 0 -5 6 -10 13 -10 25 0 107 -88 107 -115 0 -23 -4 -25
-40 -25 -33 0 -40 -3 -40 -20 0 -18 -7 -20 -60 -20 -53 0 -60 -2 -60 -20 0
-16 7 -20 34 -20 32 0 35 -2 41 -40 6 -33 11 -40 30 -40 19 0 22 -4 19 -22 -3
-13 2 -8 12 12 9 19 16 43 16 53 -1 14 6 18 30 15 29 -3 31 -5 57 -108 15 -58
42 -159 59 -225 17 -66 35 -163 40 -215 8 -89 8 -83 9 85 0 162 3 190 26 280
17 64 34 106 47 117 11 9 20 28 20 42 0 19 5 26 20 26 11 0 20 -4 20 -10 0 -5
9 -10 20 -10 18 0 20 7 20 63 1 51 5 67 25 90 13 15 28 27 32 27 4 0 19 18 32
40 14 22 27 37 29 35 3 -3 12 1 20 7 11 10 17 9 27 -5 17 -23 55 -22 55 2 0
16 9 19 60 20 58 1 61 0 104 -43 67 -67 110 -163 115 -255 4 -90 -14 -181 -36
-181 -8 0 -17 -9 -20 -21 -3 -11 -11 -18 -18 -15 -8 3 -16 -2 -19 -10 -3 -8
-12 -14 -20 -14 -9 0 -19 -12 -22 -27 -12 -49 -48 -73 -110 -73 -39 0 -53 -3
-48 -12 5 -7 1 -9 -12 -6 -10 3 -25 7 -33 9 -7 2 -16 -2 -18 -8 -4 -10 34 -13
169 -13 95 0 196 -3 224 -6 l51 -6 20 48 c38 88 53 156 53 236 0 179 -88 315
-255 395 -63 30 -87 35 -171 40 -70 4 -95 3 -90 -5 4 -7 25 -9 56 -5 34 4 50
2 50 -6 0 -6 -8 -11 -17 -12 -24 -1 -95 -7 -110 -10 -7 -1 -13 -6 -13 -11 0
-4 -7 -8 -15 -8 -8 0 -15 -5 -15 -11 0 -5 -4 -7 -10 -4 -5 3 -10 2 -10 -2 0
-5 -15 -15 -34 -21 -19 -7 -51 -28 -73 -47 -61 -55 -105 -85 -123 -85 -6 0
-45 34 -87 75 -106 104 -190 146 -305 151 -45 2 -98 -1 -116 -5z m153 -21 c-3
-5 -13 -10 -21 -10 -8 0 -14 5 -14 10 0 6 9 10 21 10 11 0 17 -4 14 -10z m250
-160 c3 -5 1 -10 -4 -10 -6 0 -11 5 -11 10 0 6 2 10 4 10 3 0 8 -4 11 -10z"/>
<path d="M803 8423 c9 -2 23 -2 30 0 6 3 -1 5 -18 5 -16 0 -22 -2 -12 -5z"/>
<path d="M3274 8403 c9 -18 44 -62 77 -97 76 -81 138 -114 234 -120 l70 -5
-64 10 c-121 19 -191 66 -305 209 l-27 35 15 -32z"/>
<path d="M3995 8370 c-64 -92 -151 -151 -259 -176 l-61 -14 54 6 c99 10 239
102 282 185 25 50 19 50 -16 -1z"/>
<path d="M9169 8383 c-12 -13 -14 -263 -17 -1518 l-3 -1503 88 -6 c48 -3 139
-5 201 -4 l112 1 1 866 c1 1514 -2 2156 -9 2163 -4 4 -54 1 -110 -7 -98 -14
-106 -14 -160 5 -69 24 -86 25 -103 3z"/>
<path d="M6775 8330 c-3 -5 1 -10 9 -10 9 0 16 5 16 10 0 6 -4 10 -9 10 -6 0
-13 -4 -16 -10z"/>
<path d="M9913 8333 c-7 -2 -13 -15 -13 -28 0 -13 -5 -27 -10 -30 -6 -4 -4
-12 5 -21 9 -10 15 -34 15 -63 0 -47 -1 -48 -38 -59 -21 -7 -55 -26 -76 -44
l-38 -33 -5 -256 c-3 -140 -3 -272 1 -293 6 -30 16 -43 54 -67 25 -16 59 -29
75 -29 22 0 28 -4 23 -15 -9 -24 5 -75 20 -75 9 0 14 12 14 38 0 37 2 39 60
65 33 16 67 38 75 51 13 19 16 72 18 299 l2 276 -28 29 c-16 16 -46 38 -68 47
-36 17 -39 21 -40 59 -1 23 0 51 1 64 2 26 -18 92 -28 91 -4 0 -13 -3 -19 -6z
m83 -253 c25 -12 44 -30 48 -43 11 -43 7 -205 -6 -214 -21 -13 -221 -5 -230 9
-12 19 -10 186 3 209 15 30 69 59 108 59 19 0 54 -9 77 -20z m47 -309 c4 -4 5
-70 1 -145 l-7 -138 -31 -19 c-53 -33 -142 -23 -186 21 -18 18 -20 32 -20 159
l0 138 118 -4 c64 -2 121 -8 125 -12z"/>
<path d="M2192 8223 l-2 -113 -77 -2 -78 -2 80 -5 80 -6 6 -80 5 -80 2 78 2
77 48 1 c53 1 47 6 -13 11 l-40 4 -6 114 -5 115 -2 -112z"/>
<path d="M8705 8260 c-21 -33 -40 -60 -43 -60 -2 0 0 5 4 11 4 7 2 10 -5 8 -7
-3 -12 -8 -12 -12 1 -4 1 -16 1 -27 0 -11 7 -20 15 -20 11 0 12 -5 5 -25 -11
-30 -12 -29 35 -9 20 8 51 14 68 12 27 -2 33 1 35 20 2 12 10 22 18 22 8 0 14
7 14 15 0 8 -7 15 -15 15 -8 0 -15 4 -15 9 0 4 -11 6 -25 3 -28 -5 -30 0 -14
30 9 16 8 19 -2 13 -9 -6 -11 -3 -6 8 7 18 -1 47 -12 47 -4 0 -25 -27 -46 -60z"/>
<path d="M5500 8299 c0 -5 4 -8 9 -5 5 4 12 0 14 -6 3 -8 6 -6 6 5 1 9 -6 17
-14 17 -8 0 -15 -5 -15 -11z"/>
<path d="M8195 8300 c3 -5 11 -10 16 -10 6 0 7 5 4 10 -3 6 -11 10 -16 10 -6
0 -7 -4 -4 -10z"/>
<path d="M2481 8198 c1 -47 6 -92 11 -99 5 -9 6 23 2 81 -4 52 -8 97 -11 100
-2 2 -3 -35 -2 -82z"/>
<path d="M8201 8254 c0 -11 3 -14 6 -6 3 7 2 16 -1 19 -3 4 -6 -2 -5 -13z"/>
<path d="M1923 8195 c0 -27 2 -38 4 -22 2 15 2 37 0 50 -2 12 -4 0 -4 -28z"/>
<path d="M8200 8181 c0 -12 5 -21 10 -21 6 0 10 6 10 14 0 8 -4 18 -10 21 -5
3 -10 -3 -10 -14z"/>
<path d="M2770 8152 c0 -15 5 -34 10 -42 9 -13 14 -11 31 13 13 17 30 27 47
27 24 1 25 2 9 11 -11 6 -37 13 -58 15 -37 3 -39 2 -39 -24z"/>
<path d="M1410 8155 c0 -8 5 -15 10 -15 6 0 10 7 10 15 0 8 -4 15 -10 15 -5 0
-10 -7 -10 -15z"/>
<path d="M2690 8140 c0 -5 5 -10 11 -10 5 0 7 5 4 10 -3 6 -8 10 -11 10 -2 0
-4 -4 -4 -10z"/>
<path d="M364 8091 c-87 -41 -141 -118 -151 -215 -7 -65 8 -119 49 -180 46
-70 95 -90 209 -84 103 5 147 28 201 105 29 42 33 57 36 124 3 62 0 85 -18
128 -38 87 -135 151 -229 151 -20 0 -64 -13 -97 -29z m187 -94 c88 -59 93
-200 10 -270 -27 -23 -42 -27 -91 -27 -52 0 -64 4 -95 32 -50 43 -78 101 -69
141 11 54 43 107 77 127 46 28 124 27 168 -3z"/>
<path d="M1920 8111 c0 -5 -8 -12 -17 -14 -10 -3 -3 -5 16 -6 29 -1 32 1 21
14 -14 17 -20 19 -20 6z"/>
<path d="M8200 8094 c0 -14 4 -23 10 -19 6 3 10 15 10 26 0 10 -4 19 -10 19
-5 0 -10 -12 -10 -26z"/>
<path d="M870 8106 c0 -2 7 -6 15 -10 8 -3 15 -1 15 4 0 6 -7 10 -15 10 -8 0
-15 -2 -15 -4z"/>
<path d="M6941 8024 c0 -11 3 -14 6 -6 3 7 2 16 -1 19 -3 4 -6 -2 -5 -13z"/>
<path d="M7300 8015 c0 -25 14 -34 24 -16 8 12 -3 41 -15 41 -5 0 -9 -11 -9
-25z"/>
<path d="M8201 7995 c0 -31 2 -36 9 -23 6 10 7 25 1 40 -9 20 -10 18 -10 -17z"/>
<path d="M6936 7985 c4 -8 8 -15 10 -15 2 0 4 7 4 15 0 8 -4 15 -10 15 -5 0
-7 -7 -4 -15z"/>
<path d="M2403 7958 c16 -6 27 -17 27 -29 0 -10 4 -19 9 -19 16 0 23 19 16 40
-5 15 -15 20 -43 19 -37 -1 -37 -1 -9 -11z"/>
<path d="M7017 7920 c-3 -14 -11 -50 -17 -80 -11 -59 -51 -154 -77 -182 -9
-10 -29 -18 -45 -18 -15 0 -28 -4 -28 -10 0 -19 54 -10 78 13 13 12 23 18 22
12 -5 -25 2 -35 25 -35 14 0 25 -4 25 -10 0 -5 -9 -10 -20 -10 -11 0 -20 -5
-20 -10 0 -15 70 -6 81 11 6 10 9 6 9 -16 0 -22 3 -26 9 -16 7 10 12 2 19 -30
16 -72 14 -1 -3 121 -25 172 -51 289 -58 260z"/>
<path d="M1922 7890 c0 -19 2 -27 5 -17 2 9 2 25 0 35 -3 9 -5 1 -5 -18z"/>
<path d="M8197 7913 c-13 -13 -7 -53 8 -53 8 0 15 8 15 18 0 22 -14 44 -23 35z"/>
<path d="M6898 7861 c-14 -13 -15 -20 -6 -29 9 -9 9 -12 0 -12 -7 0 -12 -4
-12 -10 0 -22 29 4 35 32 8 36 5 40 -17 19z"/>
<path d="M2325 7851 c-7 -12 -3 -71 6 -77 4 -2 6 17 5 41 -1 48 -2 50 -11 36z"/>
<path d="M1391 7813 c-1 -9 -31 -13 -98 -16 l-98 -3 97 -2 97 -2 4 -47 3 -48
2 48 2 47 259 0 c198 0 261 -3 264 -12 4 -10 6 -10 6 0 1 9 29 12 108 12 58 0
104 2 101 5 -3 3 -170 5 -371 5 -284 0 -366 3 -370 12 -4 10 -6 10 -6 1z"/>
<path d="M8200 7794 c0 -14 4 -23 10 -19 6 3 10 15 10 26 0 10 -4 19 -10 19
-5 0 -10 -12 -10 -26z"/>
<path d="M883 7793 c20 -2 54 -2 75 0 20 2 3 4 -38 4 -41 0 -58 -2 -37 -4z"/>
<path d="M6720 7780 c0 -18 -7 -20 -62 -22 -55 -1 -58 -2 -23 -7 25 -4 -11 -8
-95 -11 -117 -5 -104 -6 97 -7 191 -2 233 0 243 12 10 12 8 15 -11 15 -19 0
-21 -2 -9 -10 13 -8 12 -10 -2 -10 -10 0 -18 5 -18 10 0 6 -8 10 -17 8 -12 -2
-19 4 -21 20 -3 18 -10 22 -43 22 -32 0 -39 -3 -39 -20z"/>
<path d="M2963 7779 c-8 -8 -6 -19 6 -40 9 -16 19 -29 23 -29 14 0 40 50 34
65 -6 17 -47 20 -63 4z"/>
<path d="M3100 7770 c0 -17 5 -21 28 -18 16 2 27 9 27 18 0 9 -11 16 -27 18
-23 3 -28 -1 -28 -18z"/>
<path d="M6880 7780 c0 -5 5 -10 10 -10 6 0 10 5 10 10 0 6 -4 10 -10 10 -5 0
-10 -4 -10 -10z"/>
<path d="M1001 7733 c-1 -12 4 -25 9 -28 12 -7 12 2 0 30 -8 19 -9 19 -9 -2z"/>
<path d="M1086 7723 c-6 -15 8 -32 27 -33 4 0 7 -7 7 -15 0 -9 9 -15 23 -14
12 0 17 3 11 5 -7 3 -10 14 -7 25 4 15 0 22 -16 26 -11 3 -21 9 -21 14 0 15
-18 10 -24 -8z"/>
<path d="M1922 7720 c0 -14 2 -19 5 -12 2 6 2 18 0 25 -3 6 -5 1 -5 -13z"/>
<path d="M8201 7695 l1 -50 8 40 c5 22 4 44 -1 50 -5 5 -9 -11 -8 -40z"/>
<path d="M5000 7726 c0 -1 5 -17 11 -35 10 -29 29 -43 29 -21 0 6 13 10 29 10
16 0 32 6 35 13 5 10 7 10 12 0 9 -19 24 -15 24 6 0 10 -7 22 -16 25 -16 6
-124 9 -124 2z"/>
<path d="M5275 7690 c3 -5 8 -10 11 -10 2 0 4 5 4 10 0 6 -5 10 -11 10 -5 0
-7 -4 -4 -10z"/>
<path d="M7306 7653 c-18 -124 -67 -344 -89 -398 -25 -61 -37 -133 -39 -238
-1 -32 -6 -61 -11 -64 -6 -4 -8 1 -3 12 5 15 4 16 -9 5 -12 -10 -15 -10 -15 4
0 10 -4 15 -9 12 -5 -3 -15 1 -22 10 -12 15 -89 58 -89 50 0 -2 34 -29 76 -60
l76 -56 41 32 c206 160 460 402 622 593 l77 90 -232 3 -232 2 -20 -25 c-21
-26 -62 -34 -74 -13 -4 7 -10 28 -13 47 -9 52 -28 49 -35 -6z"/>
<path d="M894 7595 c0 -49 1 -71 3 -48 2 23 2 64 0 90 -2 26 -3 8 -3 -42z"/>
<path d="M2194 7590 c0 -52 1 -74 3 -47 2 26 2 68 0 95 -2 26 -3 4 -3 -48z"/>
<path d="M1923 7585 c0 -38 2 -53 4 -32 2 20 2 52 0 70 -2 17 -4 1 -4 -38z"/>
<path d="M5428 7623 c7 -3 16 -2 19 1 4 3 -2 6 -13 5 -11 0 -14 -3 -6 -6z"/>
<path d="M8779 7613 c-12 -13 -14 -348 -16 -2082 -2 -1468 -6 -2082 -14 -2122
-8 -42 -8 -62 1 -78 6 -12 13 -81 15 -158 2 -75 8 -139 12 -143 10 -10 123 0
123 10 0 5 -16 46 -36 92 -49 114 -74 203 -74 263 1 114 59 285 124 362 l27
32 5 1909 5 1909 -52 2 c-29 0 -57 5 -63 11 -15 15 -42 12 -57 -7z"/>
<path d="M8200 7477 c0 -26 4 -47 9 -47 9 0 5 80 -5 89 -2 2 -4 -17 -4 -42z"/>
<path d="M2385 7424 c-15 -23 -16 -32 -4 -66 16 -48 23 -53 60 -38 38 16 37
30 -1 24 -33 -6 -42 14 -16 35 10 9 16 8 26 -4 25 -30 63 -5 53 36 -7 26 -31
31 -43 8 -13 -23 -30 -16 -30 12 0 27 -25 24 -45 -7z"/>
<path d="M517 7423 c-4 -3 -7 -15 -7 -27 0 -20 0 -20 15 0 8 10 15 22 15 27 0
9 -14 9 -23 0z"/>
<path d="M597 7423 c-14 -4 -17 -11 -13 -26 3 -12 6 -30 6 -41 0 -13 5 -17 20
-13 11 3 20 1 20 -5 0 -5 5 -6 10 -3 6 3 7 17 4 31 -4 16 -1 26 10 30 13 5 13
8 1 20 -14 14 -25 16 -58 7z"/>
<path d="M710 7410 c-12 -8 -13 -13 -2 -30 6 -11 12 -29 12 -40 0 -11 5 -20
10 -20 6 0 10 11 10 24 0 14 4 27 9 30 12 8 2 46 -13 46 -6 0 -18 -5 -26 -10z"/>
<path d="M5686 7407 c3 -10 9 -15 12 -12 3 3 0 11 -7 18 -10 9 -11 8 -5 -6z"/>
<path d="M1954 7397 c-3 -9 -3 -20 0 -26 4 -5 2 -12 -4 -16 -21 -13 -9 -34 25
-45 19 -6 39 -9 45 -5 21 13 9 -16 -21 -50 -18 -20 -29 -38 -26 -42 10 -10 57
26 69 53 13 29 28 32 28 5 0 -10 7 -24 15 -31 13 -11 15 -8 15 18 0 17 5 34
11 38 14 8 29 -14 29 -43 0 -32 16 -29 25 4 5 22 1 32 -19 50 -14 12 -26 31
-26 43 0 11 -4 20 -10 20 -5 0 -10 -8 -10 -19 0 -23 -25 -45 -44 -38 -8 3 -12
15 -9 29 6 31 -15 56 -54 64 -25 5 -34 3 -39 -9z m66 -40 c0 -20 -9 -25 -31
-20 -28 8 -24 33 6 33 14 0 25 -6 25 -13z"/>
<path d="M1834 7392 c-37 -24 -48 -136 -16 -165 22 -20 73 -22 90 -5 14 14 16
67 4 86 -5 7 -25 13 -45 14 -22 1 -37 6 -37 13 0 22 29 38 55 31 20 -5 25 -3
25 14 0 16 -7 20 -32 20 -18 0 -38 -4 -44 -8z m64 -128 c4 -26 -19 -37 -53
-24 -16 6 -25 17 -25 30 0 18 5 21 38 18 29 -2 38 -8 40 -24z"/>
<path d="M8200 7384 c0 -8 5 -12 10 -9 6 3 10 10 10 16 0 5 -4 9 -10 9 -5 0
-10 -7 -10 -16z"/>
<path d="M5730 7350 c12 -16 19 -30 17 -30 -3 0 3 -24 14 -52 10 -29 16 -61
13 -72 -4 -11 -2 -16 4 -12 6 4 10 -1 10 -11 0 -10 3 -26 7 -35 5 -14 2 -18
-14 -18 -14 0 -21 -6 -21 -20 0 -13 -7 -20 -20 -20 -13 0 -20 -7 -20 -20 0
-13 -7 -20 -20 -20 -13 0 -20 -7 -20 -20 0 -17 -7 -20 -40 -20 -33 0 -40 -3
-40 -20 0 -17 -7 -20 -40 -20 -36 0 -40 -2 -40 -25 0 -23 3 -25 53 -26 28 -1
77 -4 107 -9 42 -5 21 -8 -92 -9 -93 0 -148 3 -148 9 0 6 10 10 23 10 21 1 21
1 3 15 -11 8 -17 18 -13 21 4 4 13 1 22 -6 9 -7 18 -10 22 -6 4 3 -8 12 -26
19 -19 7 -34 21 -38 35 -11 44 -23 7 -14 -46 4 -29 4 -78 -1 -109 -26 -169
-148 -290 -330 -327 l-63 -13 2 -94 c2 -52 5 -151 9 -221 l6 -126 36 4 c298
40 522 184 667 429 106 178 145 367 114 555 -5 36 -17 78 -25 94 -8 16 -14 35
-14 41 0 21 -42 115 -52 115 -5 0 -7 4 -4 8 5 9 -40 82 -50 82 -3 0 4 -13 16
-30z"/>
<path d="M7100 7355 c0 -5 5 -17 10 -25 5 -8 10 -10 10 -5 0 6 -5 17 -10 25
-5 8 -10 11 -10 5z"/>
<path d="M8200 7350 c0 -5 5 -10 10 -10 6 0 10 5 10 10 0 6 -4 10 -10 10 -5 0
-10 -4 -10 -10z"/>
<path d="M5040 7322 c0 -10 -5 -23 -10 -28 -7 -7 12 -14 63 -20 l74 -9 -16 21
c-17 24 -72 54 -96 54 -8 0 -15 -8 -15 -18z"/>
<path d="M6710 7317 c0 -2 15 -16 33 -33 l32 -29 -29 33 c-28 30 -36 37 -36
29z"/>
<path d="M8200 7280 c0 -11 5 -20 10 -20 6 0 10 9 10 20 0 11 -4 20 -10 20 -5
0 -10 -9 -10 -20z"/>
<path d="M265 7244 c-18 -18 -17 -55 3 -62 7 -2 12 6 12 22 0 17 9 30 28 40
l27 15 -27 1 c-15 0 -34 -7 -43 -16z"/>
<path d="M8544 7065 c0 -104 2 -146 3 -92 2 54 2 139 0 190 -1 51 -3 7 -3 -98z"/>
<path d="M1255 7141 c11 -243 14 -531 5 -536 -6 -4 -10 -11 -10 -17 0 -7 9 -2
20 9 10 12 17 30 15 41 -2 13 3 22 16 25 14 4 19 0 19 -13 0 -29 -11 -50 -26
-50 -16 0 -19 -16 -5 -25 11 -6 48 37 144 165 35 47 69 84 77 82 7 -2 10 3 7
12 -9 23 32 49 52 33 12 -10 14 -9 8 7 -5 11 -1 29 9 44 11 17 12 22 3 17 -8
-3 -4 2 8 13 12 11 20 22 17 25 -9 9 38 57 50 50 6 -3 8 -3 4 2 -4 4 0 20 9
36 14 23 14 30 3 44 -12 14 -15 13 -27 -12 -25 -50 -79 -107 -88 -93 -5 9 -4
11 3 6 17 -10 15 -1 -8 41 -11 21 -20 54 -20 73 -1 38 -14 61 -45 77 -31 16
-166 43 -207 41 l-37 -1 4 -96z"/>
<path d="M8200 7225 c0 -8 5 -15 10 -15 6 0 10 7 10 15 0 8 -4 15 -10 15 -5 0
-10 -7 -10 -15z"/>
<path d="M361 7204 c0 -11 3 -14 6 -6 3 7 2 16 -1 19 -3 4 -6 -2 -5 -13z"/>
<path d="M5270 7214 c0 -6 11 -20 23 -32 18 -17 24 -19 24 -8 0 8 -4 13 -8 10
-4 -2 -15 6 -23 18 -9 12 -16 18 -16 12z"/>
<path d="M341 7184 c0 -11 3 -14 6 -6 3 7 2 16 -1 19 -3 4 -6 -2 -5 -13z"/>
<path d="M7887 7148 c-15 -23 -15 -23 -46 -5 -45 26 -100 2 -85 -37 5 -12 19
-16 59 -16 46 0 54 -3 59 -22 l7 -23 11 22 c16 34 48 40 68 13 l17 -23 37 28
c20 15 36 31 36 35 0 12 -28 20 -75 20 -29 0 -45 5 -49 15 -8 21 -21 19 -39
-7z"/>
<path d="M2180 7134 c0 -8 5 -12 10 -9 6 3 10 10 10 16 0 5 -4 9 -10 9 -5 0
-10 -7 -10 -16z"/>
<path d="M8200 7125 c0 -8 5 -15 10 -15 6 0 10 7 10 15 0 8 -4 15 -10 15 -5 0
-10 -7 -10 -15z"/>
<path d="M8207 7093 c-4 -3 -7 -11 -7 -17 0 -6 5 -5 12 2 6 6 9 14 7 17 -3 3
-9 2 -12 -2z"/>
<path d="M4950 7020 l0 -69 -62 -3 -63 -3 -3 -57 -3 -58 64 0 64 0 7 -46 c3
-26 6 -60 6 -76 0 -23 4 -29 16 -24 9 3 40 6 70 6 l54 0 0 71 0 71 65 -7 65
-7 0 65 0 66 -67 3 -68 3 0 68 0 67 -72 0 -73 0 0 -70z"/>
<path d="M2180 7054 c0 -14 4 -23 10 -19 6 3 10 15 10 26 0 10 -4 19 -10 19
-5 0 -10 -12 -10 -26z"/>
<path d="M6980 7076 c0 -2 8 -10 18 -17 15 -13 16 -12 3 4 -13 16 -21 21 -21
13z"/>
<path d="M6590 7040 c-20 -12 -5 -24 16 -12 9 5 12 12 7 15 -5 3 -15 2 -23 -3z"/>
<path d="M8200 7008 c0 -23 3 -38 7 -34 11 11 13 76 2 76 -5 0 -9 -19 -9 -42z"/>
<path d="M1771 6993 c19 -5 29 -32 29 -80 0 -26 -4 -33 -20 -33 -11 0 -20 7
-20 15 0 8 -9 15 -20 15 -16 0 -20 -7 -20 -35 l0 -35 78 0 c43 0 82 3 85 7 15
14 -88 154 -112 152 -14 -1 -14 -2 0 -6z m62 -95 c10 -16 15 -28 13 -28 -11 0
-36 33 -36 47 0 9 1 14 3 12 2 -2 11 -16 20 -31z"/>
<path d="M2180 6946 c0 -14 5 -26 10 -26 6 0 10 9 10 19 0 11 -4 23 -10 26 -6
4 -10 -5 -10 -19z"/>
<path d="M9920 6930 l-45 -7 42 -1 c23 -1 45 3 48 8 3 6 5 9 3 8 -2 0 -23 -4
-48 -8z"/>
<path d="M8200 6910 c0 -11 5 -20 10 -20 6 0 10 9 10 20 0 11 -4 20 -10 20 -5
0 -10 -9 -10 -20z"/>
<path d="M3500 6883 c0 -28 14 -37 29 -19 8 10 9 16 1 21 -5 3 -10 3 -10 -2 0
-4 -5 -1 -10 7 -8 12 -10 11 -10 -7z"/>
<path d="M7544 6860 c-19 -12 -40 -40 -53 -70 -25 -57 -19 -83 28 -119 19 -14
31 -32 31 -47 0 -17 6 -24 20 -24 22 0 28 -35 8 -43 -8 -3 -6 -6 5 -6 9 -1 17
-4 17 -9 0 -4 70 -8 156 -9 l155 -2 11 25 11 24 169 0 168 0 0 -687 c0 -379 3
-732 7 -785 l6 -97 -29 -28 c-16 -15 -40 -36 -54 -46 -25 -18 -25 -18 5 -1 17
9 41 26 53 38 18 15 23 17 22 6 -4 -23 11 -80 21 -80 5 0 9 -8 10 -17 0 -17 1
-17 7 -1 7 18 4 -368 -3 -389 -3 -7 -11 -13 -20 -13 -12 0 -15 13 -15 60 0 53
-2 60 -20 60 -17 0 -20 7 -20 40 l0 40 -40 0 -40 0 0 82 c0 45 -2 79 -5 76 -9
-8 -17 -1301 -9 -1398 6 -77 9 -88 14 -55 3 22 2 44 -2 50 -12 14 -10 45 3 45
8 0 9 55 4 200 -7 199 -7 200 14 200 19 0 21 6 21 60 0 53 2 60 20 60 19 0 20
7 20 120 l0 120 34 0 c32 0 34 -1 39 -47 3 -27 4 -109 2 -183 -3 -120 -3 -125
5 -50 4 47 8 262 9 478 1 366 2 392 19 392 16 0 17 48 12 911 -5 887 -6 911
-24 925 -16 11 -62 14 -216 14 -194 0 -197 0 -208 -22 -6 -13 -11 -17 -11 -10
-1 6 -9 12 -18 12 -10 0 -28 11 -40 24 -13 13 -36 26 -52 29 -26 5 -32 14 -47
62 -24 74 -50 97 -116 102 -41 3 -60 -1 -84 -17z m114 -52 c30 -30 -4 -108
-48 -108 -15 0 -25 11 -36 36 -14 32 -13 38 1 60 17 26 62 33 83 12z"/>
<path d="M296 6844 c-4 -9 -4 -19 -2 -21 8 -8 26 8 26 23 0 19 -16 18 -24 -2z"/>
<path d="M2180 6834 c0 -14 4 -23 10 -19 6 3 10 15 10 26 0 10 -4 19 -10 19
-5 0 -10 -12 -10 -26z"/>
<path d="M150 6835 c0 -9 6 -12 15 -9 8 4 12 10 9 15 -8 14 -24 10 -24 -6z"/>
<path d="M6645 6830 c3 -5 8 -10 11 -10 2 0 4 5 4 10 0 6 -5 10 -11 10 -5 0
-7 -4 -4 -10z"/>
<path d="M6730 6830 c0 -5 5 -10 10 -10 6 0 10 5 10 10 0 6 -4 10 -10 10 -5 0
-10 -4 -10 -10z"/>
<path d="M8200 6820 c0 -5 5 -10 10 -10 6 0 10 5 10 10 0 6 -4 10 -10 10 -5 0
-10 -4 -10 -10z"/>
<path d="M148 6750 c-6 -61 -5 -65 17 -57 16 7 22 77 6 77 -5 0 -11 8 -13 18
-2 9 -7 -8 -10 -38z"/>
<path d="M1922 6775 c0 -11 4 -31 8 -45 6 -20 8 -21 8 -5 0 11 -4 31 -8 45 -6
20 -8 21 -8 5z"/>
<path d="M3505 6758 c-4 -10 -4 -26 0 -35 8 -17 8 -17 12 0 3 9 3 25 0 35 -4
16 -4 16 -12 0z"/>
<path d="M2180 6740 c0 -11 5 -20 10 -20 6 0 10 9 10 20 0 11 -4 20 -10 20 -5
0 -10 -9 -10 -20z"/>
<path d="M6635 6750 c-3 -5 3 -10 15 -10 12 0 18 5 15 10 -3 6 -10 10 -15 10
-5 0 -12 -4 -15 -10z"/>
<path d="M300 6726 c0 -9 5 -16 10 -16 6 0 10 4 10 9 0 6 -4 13 -10 16 -5 3
-10 -1 -10 -9z"/>
<path d="M6555 6670 c3 -5 8 -10 11 -10 2 0 4 5 4 10 0 6 -5 10 -11 10 -5 0
-7 -4 -4 -10z"/>
<path d="M6638 6673 c6 -2 18 -2 25 0 6 3 1 5 -13 5 -14 0 -19 -2 -12 -5z"/>
<path d="M6904 6666 c-18 -14 -19 -31 -21 -338 -1 -178 1 -581 5 -896 l7 -574
24 -19 c22 -18 46 -19 518 -19 l495 0 -6 23 c-3 12 -6 34 -6 50 l0 27 -475 0
-475 0 0 830 0 830 158 0 c145 0 159 -2 175 -20 14 -17 28 -20 79 -18 l63 2
-59 3 c-32 2 -65 10 -72 18 -8 8 -14 35 -14 64 l0 51 -188 0 c-147 0 -192 -3
-208 -14z"/>
<path d="M2180 6655 c0 -8 5 -15 10 -15 6 0 10 7 10 15 0 8 -4 15 -10 15 -5 0
-10 -7 -10 -15z"/>
<path d="M9907 6643 c-4 -3 -7 -14 -7 -24 0 -12 -5 -16 -15 -13 -12 5 -15 -2
-15 -32 0 -29 -3 -35 -10 -24 -8 13 -10 12 -10 -3 0 -16 -6 -17 -44 -12 l-43
7 -6 -55 c-12 -120 44 -215 124 -209 16 1 29 -2 29 -7 0 -10 40 -8 59 3 6 4 9
12 5 17 -3 5 0 8 8 7 7 -2 12 2 11 9 -2 7 3 10 10 7 20 -7 80 54 74 77 -3 10
-1 17 4 13 13 -8 14 49 3 109 -5 26 -9 28 -47 25 l-42 -3 3 48 c3 38 1 47 -12
47 -9 0 -16 5 -16 10 0 11 -53 14 -63 3z m143 -184 c0 -17 -4 -28 -9 -25 -5 4
-22 1 -36 -4 -27 -10 -27 -10 -21 21 9 46 24 61 47 48 12 -6 19 -20 19 -40z
m-205 -4 c0 -16 -6 -30 -12 -32 -9 -3 -13 7 -13 32 0 25 4 35 13 33 6 -3 12
-17 12 -33z m76 -36 c-10 -23 -10 -23 -10 7 -1 17 2 34 7 38 11 12 14 -18 3
-45z"/>
<path d="M2873 6613 c-10 -20 -8 -23 8 -23 16 0 18 -6 14 -45 -2 -25 0 -45 5
-45 5 0 10 19 12 43 l3 42 49 0 c33 0 51 5 54 14 4 11 -4 13 -42 8 -25 -4 -46
-3 -46 1 0 4 -11 12 -23 18 -20 9 -25 7 -34 -13z"/>
<path d="M3320 6630 c0 -5 -19 -13 -41 -16 -32 -5 -38 -9 -25 -16 26 -15 72
-1 73 22 1 11 0 20 -3 20 -2 0 -4 -4 -4 -10z"/>
<path d="M2698 6614 c-17 -17 -5 -22 57 -26 37 -2 64 1 62 6 -2 5 -12 11 -23
12 -10 1 -35 5 -54 9 -19 4 -38 3 -42 -1z"/>
<path d="M3108 6603 c6 -2 18 -2 25 0 6 3 1 5 -13 5 -14 0 -19 -2 -12 -5z"/>
<path d="M3180 6600 c0 -5 4 -10 9 -10 6 0 13 5 16 10 3 6 -1 10 -9 10 -9 0
-16 -4 -16 -10z"/>
<path d="M2181 6561 c-1 -27 2 -32 11 -23 8 8 8 17 0 34 -10 22 -11 21 -11
-11z"/>
<path d="M7511 6574 c0 -11 3 -14 6 -6 3 7 2 16 -1 19 -3 4 -6 -2 -5 -13z"/>
<path d="M566 6573 c-17 -5 -18 -12 -12 -91 8 -100 42 -210 93 -301 48 -86
168 -209 262 -270 84 -54 151 -75 151 -48 0 9 -10 17 -22 19 -14 2 -24 11 -26
24 -4 31 85 246 177 428 45 87 81 167 81 177 0 16 -8 19 -42 19 -24 0 -83 7
-133 15 -160 25 -473 42 -529 28z"/>
<path d="M1285 6550 c-3 -5 -1 -10 4 -10 6 0 11 5 11 10 0 6 -2 10 -4 10 -3 0
-8 -4 -11 -10z"/>
<path d="M7498 6543 c12 -2 32 -2 45 0 12 2 2 4 -23 4 -25 0 -35 -2 -22 -4z"/>
<path d="M297 6504 c-8 -8 1 -24 14 -24 5 0 9 7 9 15 0 15 -12 20 -23 9z"/>
<path d="M2179 6468 c0 -13 -2 -33 -5 -45 -2 -12 1 -25 6 -28 6 -4 10 14 10
44 0 50 -9 74 -11 29z"/>
<path d="M3503 6459 c4 -13 7 -31 7 -38 0 -11 3 -12 11 -4 14 14 8 55 -10 61
-10 4 -12 -1 -8 -19z"/>
<path d="M1273 6443 c-14 -28 -8 -47 10 -36 7 3 4 -3 -5 -14 -10 -11 -18 -26
-18 -35 0 -26 -14 -29 -26 -7 -11 22 -12 22 -22 3 -5 -10 -12 -28 -13 -39 -2
-11 -12 -26 -21 -33 -14 -10 -15 -17 -6 -37 13 -28 23 -32 32 -10 3 8 2 15 -3
15 -12 0 21 70 34 71 42 3 57 7 68 19 10 10 9 11 -3 6 -8 -4 -6 0 5 8 11 9 25
14 32 12 7 -3 10 1 6 10 -3 7 -9 14 -14 14 -5 0 -9 6 -9 14 0 7 -7 19 -15 26
-8 7 -13 16 -10 20 3 5 2 11 -3 13 -4 3 -13 -6 -19 -20z"/>
<path d="M6506 6449 c-22 -17 -26 -28 -24 -56 3 -35 4 -36 56 -40 l52 -4 0 51
c0 45 -3 52 -26 60 -32 13 -27 14 -58 -11z"/>
<path d="M1962 6420 c0 -19 2 -27 5 -17 2 9 2 25 0 35 -3 9 -5 1 -5 -18z"/>
<path d="M290 6405 c0 -16 27 -32 37 -21 7 7 -16 36 -28 36 -5 0 -9 -7 -9 -15z"/>
<path d="M7240 6296 c0 -53 4 -98 10 -101 6 -4 10 21 10 67 l0 73 31 -64 30
-65 25 29 c14 17 28 42 31 58 10 51 25 42 23 -14 -3 -70 -2 -79 10 -79 6 0 10
37 10 90 0 81 -2 90 -19 90 -25 0 -41 -21 -48 -64 -3 -20 -8 -36 -12 -36 -3 0
-22 25 -41 55 -51 79 -60 73 -60 -39z"/>
<path d="M7644 6375 c-4 -9 -3 -46 2 -83 5 -37 7 -75 6 -86 -2 -13 2 -16 14
-12 8 3 33 6 55 6 21 0 39 5 39 10 0 6 -20 10 -45 10 -38 0 -45 3 -45 20 0 22
27 40 60 40 13 0 20 5 18 12 -3 8 -19 12 -41 10 -34 -3 -37 -1 -37 22 0 25 7
29 64 38 11 2 21 9 24 16 6 19 -107 17 -114 -3z"/>
<path d="M7834 6365 c-43 -34 -50 -67 -24 -120 23 -48 54 -62 94 -43 34 15 33
26 -2 20 -41 -6 -82 31 -82 73 0 40 20 55 75 55 33 0 35 2 25 20 -14 27 -48
25 -86 -5z"/>
<path d="M7960 6376 c0 -9 12 -16 28 -18 27 -3 27 -4 30 -80 2 -43 7 -78 12
-78 5 0 10 35 12 78 3 76 3 77 31 80 15 2 27 9 27 18 0 11 -16 14 -70 14 -54
0 -70 -3 -70 -14z"/>
<path d="M7160 6290 c0 -73 3 -90 15 -90 12 0 15 17 15 90 0 73 -3 90 -15 90
-12 0 -15 -17 -15 -90z"/>
<path d="M7471 6298 c1 -82 1 -82 11 -33 18 99 16 95 48 95 25 0 30 -4 30 -24
0 -18 -8 -27 -30 -35 -38 -13 -40 -34 -2 -25 54 13 63 23 60 62 l-3 37 -57 3
-58 3 1 -83z"/>
<path d="M2174 6344 c3 -9 6 -21 6 -27 0 -8 3 -8 11 0 13 13 5 43 -12 43 -6 0
-8 -7 -5 -16z"/>
<path d="M300 6296 c0 -8 5 -18 10 -21 6 -3 10 3 10 14 0 12 -4 21 -10 21 -5
0 -10 -6 -10 -14z"/>
<path d="M3170 6286 c0 -2 11 -6 25 -8 14 -3 25 -1 25 3 0 5 -11 9 -25 9 -14
0 -25 -2 -25 -4z"/>
<path d="M2177 6274 c-8 -8 3 -34 14 -34 11 0 12 27 0 34 -4 3 -11 3 -14 0z"/>
<path d="M7568 6228 c-30 -32 -25 -37 11 -9 13 10 22 22 20 27 -2 5 -16 -3
-31 -18z"/>
<path d="M3227 6233 c-4 -3 -7 -33 -7 -66 0 -33 2 -58 5 -55 5 4 13 128 9 128
0 0 -4 -3 -7 -7z"/>
<path d="M300 6216 c0 -9 -4 -16 -10 -16 -13 0 -13 -47 0 -55 15 -9 47 3 54
20 3 8 -6 27 -19 41 -19 21 -25 23 -25 10z"/>
<path d="M1140 6206 c0 -23 16 -27 17 -5 1 10 -2 19 -8 19 -5 0 -9 -6 -9 -14z"/>
<path d="M2180 6170 c0 -18 4 -29 10 -25 6 3 10 15 10 25 0 10 -4 22 -10 25
-6 4 -10 -7 -10 -25z"/>
<path d="M3084 6153 c-13 -23 -7 -50 13 -57 22 -9 25 -3 18 38 -8 40 -15 44
-31 19z"/>
<path d="M3460 6170 c0 -3 7 -27 15 -54 8 -27 15 -62 15 -78 0 -38 -51 -138
-98 -191 l-37 -42 37 30 c25 20 52 59 78 113 l41 83 -16 62 c-9 34 -20 66 -25
71 -6 6 -10 8 -10 6z"/>
<path d="M6512 6078 c-25 -51 -28 -81 -8 -97 11 -9 16 -9 22 0 5 9 22 -2 53
-37 25 -27 43 -45 39 -40 -5 6 -8 18 -8 27 0 31 -40 147 -58 170 l-19 22 -21
-45z"/>
<path d="M2181 6063 c-1 -24 4 -43 9 -43 12 0 12 37 0 65 -7 15 -9 10 -9 -22z"/>
<path d="M9877 6086 c-26 -7 -57 -21 -70 -32 -42 -35 -108 -106 -103 -111 2
-2 18 9 34 26 29 30 62 41 62 20 0 -5 -4 -8 -9 -5 -4 3 -17 -1 -27 -9 -18 -14
-18 -14 9 -15 16 0 27 -5 27 -14 0 -8 15 -16 38 -20 62 -10 64 -9 60 27 -2 26
0 31 16 29 13 -2 16 1 10 10 -6 10 -5 11 8 1 8 -7 17 -10 21 -7 12 12 39 -46
34 -73 -6 -26 -5 -25 8 5 8 17 21 32 29 32 23 0 46 -29 47 -61 1 -16 2 -32 4
-36 13 -52 15 -84 5 -103 -16 -30 -50 -41 -76 -24 -20 12 -22 11 -27 -6 -5
-20 -28 -32 -85 -45 -30 -6 -33 -5 -28 12 3 10 0 28 -8 38 -13 17 -15 18 -30
2 -9 -9 -16 -20 -15 -24 4 -21 -3 -32 -22 -38 -19 -6 -20 -8 -3 -26 9 -10 23
-19 31 -19 7 0 13 -4 13 -8 0 -8 46 -25 98 -36 35 -7 117 17 162 49 40 28 83
86 83 111 0 8 4 14 9 14 13 0 4 193 -10 198 -7 2 -12 12 -12 22 0 28 -78 89
-140 111 -62 22 -77 22 -143 5z m-24 -133 c3 -5 -5 -8 -18 -8 -13 0 -21 3 -18
8 2 4 10 7 18 7 8 0 16 -3 18 -7z"/>
<path d="M300 6061 c0 -17 5 -31 10 -31 6 0 10 11 10 24 0 14 -4 28 -10 31 -6
4 -10 -7 -10 -24z"/>
<path d="M7319 6058 c-13 -18 -31 -42 -40 -53 -67 -79 -103 -115 -115 -115
-10 0 -13 -12 -12 -40 1 -43 19 -66 42 -57 19 7 65 96 82 157 12 43 12 40 13
-72 l1 -117 -90 0 -90 0 2 114 1 114 66 6 c98 10 97 13 -4 14 l-90 1 1 -123
c1 -67 2 -129 3 -138 1 -13 19 -15 116 -15 l115 1 0 128 c0 103 3 127 14 127
21 0 57 50 54 74 -5 35 -43 32 -69 -6z"/>
<path d="M3628 6043 c-10 -2 -18 -8 -18 -13 0 -13 28 -20 81 -20 27 0 49 -4
49 -10 0 -5 -9 -24 -20 -42 -25 -42 -25 -52 1 -37 18 9 66 96 57 103 -24 20
-108 30 -150 19z"/>
<path d="M1523 6022 c1 -14 5 -18 11 -12 7 7 6 14 -1 21 -9 9 -12 7 -10 -9z"/>
<path d="M1060 6019 c0 -5 5 -7 10 -4 6 3 10 8 10 11 0 2 -4 4 -10 4 -5 0 -10
-5 -10 -11z"/>
<path d="M3225 6000 c3 -5 8 -10 11 -10 2 0 4 5 4 10 0 6 -5 10 -11 10 -5 0
-7 -4 -4 -10z"/>
<path d="M3090 5996 c0 -2 7 -6 15 -10 8 -3 15 -1 15 4 0 6 -7 10 -15 10 -8 0
-15 -2 -15 -4z"/>
<path d="M1564 5982 c4 -7 4 -12 -1 -12 -4 0 -23 -14 -41 -31 -33 -30 -33 -31
-17 -56 17 -26 17 -26 -9 -19 -19 5 -28 2 -32 -9 -4 -8 -13 -15 -22 -15 -8 0
-13 -3 -9 -6 9 -10 142 33 167 54 22 18 22 19 5 45 -9 15 -22 27 -27 27 -5 0
-7 4 -3 9 3 5 0 13 -6 17 -8 4 -9 3 -5 -4z"/>
<path d="M2180 5947 c0 -23 4 -36 10 -32 13 8 13 35 0 55 -7 11 -10 5 -10 -23z"/>
<path d="M300 5940 c0 -11 5 -20 10 -20 6 0 10 9 10 20 0 11 -4 20 -10 20 -5
0 -10 -9 -10 -20z"/>
<path d="M7458 5883 c18 -2 45 -2 60 0 15 2 0 4 -33 4 -33 0 -45 -2 -27 -4z"/>
<path d="M280 5851 c-8 -4 -28 -15 -45 -24 -40 -20 -75 -82 -75 -132 0 -50 31
-137 50 -142 12 -4 12 -3 1 5 -8 6 -11 17 -6 32 4 14 3 20 -3 16 -5 -3 -12 3
-15 14 -3 10 -1 20 3 22 4 2 11 14 15 27 5 16 4 21 -4 17 -6 -4 -11 -3 -11 2
0 5 9 12 20 15 11 3 20 10 20 17 0 6 -4 8 -10 5 -11 -7 -13 15 -4 39 5 12 10
13 24 4 20 -13 80 6 81 26 0 6 4 1 10 -12 5 -13 13 -21 18 -17 5 3 13 0 16 -6
4 -5 14 -8 22 -5 15 6 47 -19 49 -38 0 -6 2 -21 2 -33 3 -31 35 -30 52 1 15
28 8 56 -15 56 -14 0 -19 11 -16 37 2 14 -41 45 -93 67 -42 17 -63 19 -86 7z"/>
<path d="M2180 5836 c0 -22 3 -27 11 -19 8 8 8 16 0 30 -9 16 -10 14 -11 -11z"/>
<path d="M1876 5831 c-4 -5 -3 -17 0 -26 4 -10 1 -21 -7 -26 -10 -6 -10 -9 -1
-9 7 0 12 -13 12 -29 0 -16 3 -36 6 -45 10 -26 50 -18 83 15 17 17 31 28 31
24 0 -3 9 -1 20 5 27 15 28 75 1 90 -39 20 -48 13 -55 -49 -8 -73 -16 -81 -32
-34 -11 32 -11 40 1 53 8 9 15 22 15 28 0 14 -66 16 -74 3z m144 -47 c0 -13
-2 -24 -4 -24 -2 0 -12 -3 -21 -6 -13 -5 -15 -2 -9 22 4 16 9 32 11 37 8 14
23 -4 23 -29z"/>
<path d="M2970 5785 c0 -3 24 -17 53 -32 44 -23 64 -28 127 -27 60 1 82 5 110
24 19 12 26 19 15 15 -29 -10 -217 -16 -211 -6 3 4 -7 6 -22 4 -22 -4 -24 -2
-12 7 13 10 13 11 0 7 -8 -2 -25 0 -37 4 -13 5 -23 6 -23 4z"/>
<path d="M7488 5783 c6 -2 18 -2 25 0 6 3 1 5 -13 5 -14 0 -19 -2 -12 -5z"/>
<path d="M674 5745 c-11 -43 4 -92 29 -99 49 -13 67 -7 74 24 3 17 10 33 14
36 12 7 11 -13 -1 -37 -12 -21 -1 -26 17 -8 8 8 8 21 0 47 -16 55 -25 62 -78
62 -44 0 -49 -3 -55 -25z m76 -24 c0 -11 -7 -26 -15 -34 -8 -8 -11 -17 -8 -21
4 -3 1 -6 -5 -6 -7 0 -12 16 -12 40 0 33 3 40 20 40 13 0 20 -7 20 -19z"/>
<path d="M2183 5725 c0 -27 2 -38 4 -22 2 15 2 37 0 50 -2 12 -4 0 -4 -28z"/>
<path d="M220 5752 c0 -5 7 -13 16 -16 10 -4 14 -1 12 6 -5 15 -28 23 -28 10z"/>
<path d="M4928 5588 c-5 -206 -1 -268 17 -268 9 0 16 20 20 58 4 31 7 61 9 66
1 4 68 8 149 8 l147 0 0 143 0 143 -127 6 c-71 4 -146 9 -169 12 l-41 6 -5
-174z m59 75 c-2 -16 -4 -5 -4 22 0 28 2 40 4 28 2 -13 2 -35 0 -50z m143 -32
c5 -11 10 -33 10 -50 0 -30 -1 -31 -50 -31 -46 0 -50 2 -50 24 0 49 17 76 49
76 20 0 34 -7 41 -19z m-143 -38 c-3 -10 -5 -4 -5 12 0 17 2 24 5 18 2 -7 2
-21 0 -30z"/>
<path d="M9706 5737 c3 -10 9 -15 12 -12 3 3 0 11 -7 18 -10 9 -11 8 -5 -6z"/>
<path d="M338 5679 c-10 -5 -18 -15 -18 -22 0 -8 3 -9 8 -1 4 6 16 16 27 22
11 6 16 11 10 11 -5 0 -18 -4 -27 -10z"/>
<path d="M6590 5669 c-42 -23 -66 -24 -114 -4 -26 11 -52 13 -92 9 l-56 -7 3
-1324 4 -1323 193 0 192 0 1 48 c9 309 8 343 -12 376 -81 137 -129 371 -108
526 10 72 65 213 110 280 15 23 17 86 17 700 1 371 -1 683 -4 693 -4 11 -15
17 -36 17 -17 0 -39 6 -47 14 -14 12 -21 11 -51 -5z"/>
<path d="M2172 5625 c0 -16 2 -22 5 -12 2 9 2 23 0 30 -3 6 -5 -1 -5 -18z"/>
<path d="M7310 5604 c-16 -26 -48 -65 -71 -86 -22 -21 -37 -43 -34 -49 4 -5
-1 -17 -11 -25 -11 -9 -13 -12 -5 -8 8 4 19 1 26 -9 9 -13 13 -12 30 14 11 16
23 29 27 29 8 0 15 -129 8 -139 -9 -14 -42 -21 -66 -15 -19 5 -22 9 -14 19 8
10 5 13 -14 11 -16 0 -21 -5 -15 -10 15 -16 10 -26 -15 -26 -41 0 -50 22 -43
115 5 70 4 85 -8 85 -12 0 -15 -20 -15 -105 l0 -105 79 0 c44 0 91 4 105 10
25 9 26 13 26 84 0 91 6 109 59 166 48 52 51 83 9 88 -23 3 -32 -4 -58 -44z"/>
<path d="M486 5615 c-9 -26 -7 -32 5 -12 6 10 9 21 6 23 -2 3 -7 -2 -11 -11z"/>
<path d="M380 5603 c0 -15 -2 -16 -10 -3 -8 13 -10 12 -10 -2 0 -10 -4 -18
-10 -18 -5 0 -10 -6 -10 -13 0 -8 -11 -20 -25 -27 -19 -10 -30 -11 -50 -2 -32
15 -35 15 -35 2 0 -5 5 -10 11 -10 6 0 17 -7 25 -15 18 -18 75 -20 92 -3 8 8
12 9 12 1 0 -8 10 -6 30 4 17 8 28 19 25 24 -4 5 -1 9 6 9 8 0 7 5 -2 17 -12
15 -12 16 3 10 10 -3 20 -1 24 5 4 7 3 8 -4 4 -7 -4 -12 -2 -12 4 0 6 -4 8
-10 5 -5 -3 -10 -1 -10 6 0 7 -7 4 -16 -7 -13 -16 -15 -16 -10 -2 3 10 1 20
-4 23 -6 4 -10 -2 -10 -12z"/>
<path d="M275 5590 c10 -11 20 -18 23 -15 7 6 -18 35 -31 35 -5 0 -2 -9 8 -20z"/>
<path d="M3918 5603 c-46 -4 -48 -5 -48 -36 0 -66 -8 -77 -55 -77 -43 0 -43
-1 -50 -40 -9 -54 -1 -63 51 -55 l44 6 0 -59 0 -60 53 -4 c28 -2 53 -4 54 -4
0 1 2 21 4 46 4 67 6 70 55 70 l44 0 0 50 0 50 -45 0 -45 0 0 60 c0 33 -3 59
-7 58 -5 -1 -29 -3 -55 -5z"/>
<path d="M2151 5547 c-18 -52 -80 -104 -171 -141 -8 -3 -2 -4 13 -1 65 13 159
93 172 148 10 38 -1 33 -14 -6z"/>
<path d="M5852 5508 l3 -43 -47 -3 c-46 -3 -48 -4 -48 -34 0 -30 1 -31 39 -25
l40 5 3 -47 c3 -42 5 -46 31 -49 26 -3 27 -2 27 48 l0 51 38 -3 c35 -3 37 -2
40 30 l3 33 -47 -7 -47 -7 6 47 c6 44 6 46 -19 46 -24 0 -26 -3 -22 -42z"/>
<path d="M7728 5503 c6 -2 18 -2 25 0 6 3 1 5 -13 5 -14 0 -19 -2 -12 -5z"/>
<path d="M7858 5503 c34 -2 90 -2 125 0 34 2 6 3 -63 3 -69 0 -97 -1 -62 -3z"/>
<path d="M2349 5461 c-51 -32 -89 -96 -89 -147 1 -83 40 -152 81 -141 12 3 21
-4 29 -24 7 -16 16 -29 21 -29 5 0 9 -9 9 -20 0 -13 -7 -20 -20 -20 -13 0 -20
-7 -20 -19 0 -15 -10 -21 -40 -26 -25 -4 -40 -12 -40 -21 0 -10 -12 -14 -40
-14 -33 0 -40 -3 -40 -20 0 -13 -7 -20 -20 -20 -13 0 -20 -7 -20 -20 0 -17 -7
-20 -40 -20 -33 0 -40 -3 -40 -20 0 -13 -7 -20 -20 -20 -11 0 -20 7 -20 15 0
20 -39 19 -46 0 -6 -14 -8 -13 -20 2 -12 16 -13 13 -14 -29 0 -39 3 -48 18
-48 272 -3 898 2 904 8 4 4 11 43 14 85 l7 77 183 0 184 0 0 -559 0 -558 -69
-7 c-39 -4 -72 -12 -75 -19 -3 -8 -9 -5 -17 8 -26 41 -127 140 -216 212 -51
40 -93 77 -93 83 0 5 12 11 28 13 20 3 16 4 -14 6 -31 1 -54 11 -100 46 -32
24 -64 45 -70 45 -14 0 -54 43 -54 57 0 9 -22 23 -36 23 -12 0 10 -48 38 -83
16 -20 34 -52 40 -70 6 -17 31 -63 55 -100 24 -38 40 -74 37 -80 -4 -7 -4 -9
1 -5 4 4 31 -25 59 -64 28 -40 71 -92 94 -116 41 -40 44 -46 39 -85 -2 -23
-17 -71 -32 -106 -24 -57 -27 -74 -23 -147 10 -195 135 -322 325 -332 l83 -5
0 -138 0 -139 -107 -1 c-60 0 -452 -1 -873 -2 l-765 -2 -3 1063 -2 1063 220
-3 220 -3 0 55 c0 31 6 62 13 69 10 11 10 13 0 7 -7 -4 -13 -2 -13 3 0 8 -80
11 -246 11 l-246 0 -39 -39 -39 -39 2 -1130 c3 -1114 3 -1130 23 -1152 51 -57
0 -54 995 -51 1005 3 940 -2 980 64 17 27 20 51 21 147 0 63 3 133 7 155 l7
40 69 -93 c38 -50 73 -92 78 -92 4 0 8 11 8 25 0 14 5 25 11 25 7 0 9 9 6 23
-8 28 1 42 31 52 15 4 21 12 18 21 -3 9 -1 12 4 9 6 -3 10 -2 10 2 0 10 -17
36 -88 131 l-55 74 27 54 c68 134 28 307 -95 419 l-40 36 1 624 0 625 -34 37
-34 38 -221 3 c-208 3 -220 4 -226 23 -6 18 -17 19 -156 19 -104 0 -149 3
-149 11 0 7 5 40 12 75 10 54 9 69 -6 107 -9 24 -31 58 -50 76 -28 28 -43 33
-92 37 -53 4 -64 2 -105 -25z m136 -69 c21 -7 24 -14 32 -74 7 -45 -13 -80
-58 -104 -30 -15 -32 -15 -55 7 -81 76 -20 203 81 171z m198 -1179 c8 -7 -11
-33 -24 -33 -5 0 -9 9 -9 20 0 19 20 27 33 13z m285 -506 c-50 -62 -64 -66
-23 -7 23 34 49 58 63 60 1 0 -17 -24 -40 -53z m334 41 c95 -28 178 -145 178
-250 0 -78 -18 -116 -87 -187 -79 -81 -143 -98 -250 -66 -63 19 -134 80 -162
140 -30 64 -29 163 3 231 53 113 190 170 318 132z"/>
<path d="M3178 3635 c-8 -9 2 -76 14 -92 6 -7 5 -32 0 -65 -8 -38 -7 -55 1
-60 19 -12 25 -10 59 22 30 29 65 36 61 13 -1 -5 8 -10 20 -9 18 1 23 8 25 39
2 21 -2 45 -9 53 -14 17 -51 18 -66 3 -18 -18 -29 -3 -32 43 -1 23 -3 44 -5
45 -7 7 -62 14 -68 8z"/>
<path d="M3620 5450 c-12 -8 -9 -10 13 -10 15 0 27 5 27 10 0 13 -20 13 -40 0z"/>
<path d="M2955 5440 c-21 -5 -3 -8 58 -8 48 0 87 3 87 7 0 9 -109 10 -145 1z"/>
<path d="M3115 5440 c-3 -5 -1 -10 4 -10 6 0 11 5 11 10 0 6 -2 10 -4 10 -3 0
-8 -4 -11 -10z"/>
<path d="M3333 5443 c9 -2 23 -2 30 0 6 3 -1 5 -18 5 -16 0 -22 -2 -12 -5z"/>
<path d="M3548 5443 c7 -3 16 -2 19 1 4 3 -2 6 -13 5 -11 0 -14 -3 -6 -6z"/>
<path d="M4233 5443 c9 -2 25 -2 35 0 9 3 1 5 -18 5 -19 0 -27 -2 -17 -5z"/>
<path d="M4318 5443 c6 -2 18 -2 25 0 6 3 1 5 -13 5 -14 0 -19 -2 -12 -5z"/>
<path d="M4403 5443 c9 -2 23 -2 30 0 6 3 -1 5 -18 5 -16 0 -22 -2 -12 -5z"/>
<path d="M7948 5433 c7 -3 16 -2 19 1 4 3 -2 6 -13 5 -11 0 -14 -3 -6 -6z"/>
<path d="M8050 5430 l-75 -6 83 -2 c49 -1 82 2 82 8 0 6 -3 9 -7 8 -5 -1 -42
-4 -83 -8z"/>
<path d="M520 5405 c0 -9 9 -15 21 -15 18 0 19 2 9 15 -7 8 -16 15 -21 15 -5
0 -9 -7 -9 -15z"/>
<path d="M7162 5397 c-16 -37 -15 -41 4 -23 8 9 14 24 11 34 -3 13 -6 11 -15
-11z"/>
<path d="M604 5399 c-3 -5 6 -9 20 -9 31 0 34 6 6 13 -11 3 -23 1 -26 -4z"/>
<path d="M718 5393 c12 -2 30 -2 40 0 9 3 -1 5 -23 4 -22 0 -30 -2 -17 -4z"/>
<path d="M803 5393 c9 -2 25 -2 35 0 9 3 1 5 -18 5 -19 0 -27 -2 -17 -5z"/>
<path d="M898 5393 c12 -2 30 -2 40 0 9 3 -1 5 -23 4 -22 0 -30 -2 -17 -4z"/>
<path d="M990 5390 c0 -13 40 -13 60 0 11 7 5 10 -22 10 -21 0 -38 -4 -38 -10z"/>
<path d="M1095 5390 c3 -5 19 -10 36 -10 16 0 29 5 29 10 0 6 -16 10 -36 10
-21 0 -33 -4 -29 -10z"/>
<path d="M1190 5389 c0 -11 30 -12 48 0 9 5 3 8 -17 9 -17 0 -31 -4 -31 -9z"/>
<path d="M1290 5390 c0 -12 17 -12 45 0 17 7 15 9 -12 9 -18 1 -33 -3 -33 -9z"/>
<path d="M1408 5391 c12 -7 62 -4 62 5 0 2 -17 4 -37 4 -24 0 -33 -3 -25 -9z"/>
<path d="M1503 5393 c9 -2 23 -2 30 0 6 3 -1 5 -18 5 -16 0 -22 -2 -12 -5z"/>
<path d="M1588 5393 c12 -2 32 -2 45 0 12 2 2 4 -23 4 -25 0 -35 -2 -22 -4z"/>
<path d="M1693 5393 c9 -2 25 -2 35 0 9 3 1 5 -18 5 -19 0 -27 -2 -17 -5z"/>
<path d="M1798 5393 c12 -2 30 -2 40 0 9 3 -1 5 -23 4 -22 0 -30 -2 -17 -4z"/>
<path d="M1903 5393 c9 -2 23 -2 30 0 6 3 -1 5 -18 5 -16 0 -22 -2 -12 -5z"/>
<path d="M7853 5313 c53 -2 141 -2 195 0 53 1 9 3 -98 3 -107 0 -151 -2 -97
-3z"/>
<path d="M9120 5134 l0 -186 553 7 c303 4 554 9 556 11 2 2 6 82 8 179 l4 175
-560 0 -561 0 0 -186z m384 100 c3 -9 6 -56 6 -106 0 -80 -2 -89 -17 -86 -13
3 -18 13 -18 40 0 52 -9 54 -30 8 -19 -42 -45 -54 -45 -21 0 10 -9 29 -20 42
l-19 24 -1 -53 c0 -38 -4 -52 -12 -50 -17 6 -23 160 -8 188 14 25 40 26 40 1
0 -22 31 -81 43 -81 4 0 18 25 32 55 24 56 38 67 49 39z m276 -7 c0 -7 8 -28
19 -47 14 -28 41 -121 41 -145 0 -16 -29 -1 -38 20 -8 17 -20 25 -37 25 -18 0
-28 -7 -35 -25 -11 -30 -40 -34 -40 -5 0 44 66 204 81 195 5 -4 9 -12 9 -18z
m-498 -33 c4 -21 7 -67 7 -101 1 -57 -1 -63 -19 -63 -19 0 -20 7 -20 106 0 80
3 105 12 102 7 -3 16 -22 20 -44z m359 36 c10 -6 26 -24 35 -41 14 -28 14 -33
0 -54 -10 -14 -30 -27 -51 -31 -42 -8 -50 -17 -35 -44 9 -17 8 -20 -8 -20 -23
0 -32 34 -32 126 0 61 1 63 28 67 15 2 31 5 35 6 5 0 17 -4 28 -9z m356 -12
c31 -29 29 -38 -9 -32 -18 3 -45 1 -60 -5 -23 -9 -28 -17 -28 -44 0 -44 15
-57 67 -57 36 0 43 -3 43 -19 0 -24 -45 -36 -82 -22 -32 12 -65 53 -73 92 -6
25 -2 36 22 61 48 51 85 59 120 26z m177 13 c11 -18 -6 -41 -30 -41 -23 0 -24
-3 -24 -75 0 -68 -2 -75 -20 -75 -18 0 -20 7 -20 74 0 70 -1 75 -22 78 -15 2
-24 11 -26 26 -3 21 0 22 67 22 38 0 72 -4 75 -9z"/>
<path d="M9760 5140 c0 -11 5 -20 10 -20 6 0 10 9 10 20 0 11 -4 20 -10 20 -5
0 -10 -9 -10 -20z"/>
<path d="M9597 5193 c-10 -10 -8 -53 2 -53 23 0 41 14 41 30 0 10 -7 21 -16
24 -19 7 -19 7 -27 -1z"/>
<path d="M7458 5223 c12 -2 32 -2 45 0 12 2 2 4 -23 4 -25 0 -35 -2 -22 -4z"/>
<path d="M8070 5221 c0 -5 18 -11 40 -13 43 -4 54 6 18 16 -33 8 -58 7 -58 -3z"/>
<path d="M187 5213 c-53 -6 -72 -37 -57 -93 22 -82 23 -82 261 -78 232 3 229
2 229 69 0 66 -17 96 -58 103 -39 6 -310 5 -375 -1z m13 -83 c0 -5 -2 -10 -4
-10 -3 0 -8 5 -11 10 -3 6 -1 10 4 10 6 0 11 -4 11 -10z m370 0 c0 -6 -55 -10
-145 -10 -90 0 -145 4 -145 10 0 6 55 10 145 10 90 0 145 -4 145 -10z"/>
<path d="M865 5170 c-17 -6 -20 -15 -17 -54 3 -36 8 -46 22 -46 39 0 50 11 50
51 0 43 -21 62 -55 49z"/>
<path d="M4916 5159 c-127 -30 -203 -188 -144 -299 48 -89 145 -135 234 -111
52 14 122 74 145 125 22 50 25 136 4 175 -22 44 -91 98 -140 110 -49 12 -46
12 -99 0z m88 -116 c1 -24 5 -45 8 -49 3 -3 23 -1 43 5 34 9 37 8 46 -16 17
-46 4 -63 -49 -63 l-47 0 3 -44 c3 -37 0 -46 -18 -56 -12 -6 -33 -9 -47 -5
-23 5 -25 10 -21 55 l3 50 -46 0 c-50 0 -65 15 -54 51 7 21 11 22 69 19 l39
-2 -5 40 c-7 48 6 64 46 60 26 -3 28 -7 30 -45z"/>
<path d="M696 5144 c-3 -9 -6 -31 -6 -50 0 -42 30 -60 84 -50 54 10 48 37 -6
34 -33 -2 -43 1 -43 12 0 11 10 14 38 12 35 -3 37 -1 37 28 0 29 -1 30 -49 30
-35 0 -51 -4 -55 -16z"/>
<path d="M3764 5035 c-2 -5 -26 -70 -54 -143 -27 -74 -50 -142 -50 -152 0 -16
23 -17 410 -17 l410 1 0 158 0 158 -356 2 c-231 2 -358 -1 -360 -7z"/>
<path d="M5440 4882 l0 -158 385 0 c380 1 385 1 379 21 -3 11 -28 67 -56 125
-28 58 -57 120 -65 138 l-13 32 -315 0 -315 0 0 -158z"/>
<path d="M9208 4923 l-58 -4 0 -393 c0 -469 6 -580 29 -570 32 14 167 44 191
43 17 -1 20 -3 7 -6 -10 -2 -17 -10 -16 -16 1 -7 1 -31 0 -53 -1 -35 -5 -43
-24 -48 -13 -3 -36 -17 -53 -31 -16 -14 -35 -25 -41 -25 -7 0 -13 -7 -13 -15
0 -8 -4 -15 -10 -15 -5 0 -15 -10 -21 -22 -9 -19 -9 -21 2 -10 23 21 64 15 79
-13 7 -14 16 -25 20 -25 4 0 6 -12 4 -27 -4 -27 -3 -27 4 -3 5 15 17 26 30 28
21 3 22 1 16 -70 -10 -120 -9 -148 13 -278 12 -69 25 -147 29 -175 l7 -50 10
45 c37 182 95 419 119 490 29 81 30 90 24 210 -3 69 -5 331 -6 583 l0 457
-142 -2 c-79 -1 -169 -3 -200 -5z"/>
<path d="M318 4890 c-50 -15 -88 -49 -88 -79 0 -31 16 -51 42 -51 10 0 18 -5
18 -11 0 -5 4 -7 10 -4 6 3 9 -4 9 -17 -1 -13 3 -34 8 -48 13 -30 6 -161 -9
-185 -11 -18 -30 -438 -27 -600 4 -151 6 -163 32 -217 62 -126 207 -245 328
-268 29 -6 54 -11 55 -13 1 -1 5 -342 8 -757 3 -415 10 -816 15 -890 6 -74 10
-138 11 -142 0 -5 24 -8 54 -8 l54 0 -5 348 c-2 191 -11 460 -18 597 -11 177
-13 338 -8 553 l6 302 26 6 c102 22 168 61 241 141 110 120 109 119 112 709
l3 491 28 16 c21 13 27 23 27 50 0 61 -24 71 -165 75 -139 4 -190 -10 -201
-55 -17 -65 39 -97 142 -80 107 18 98 61 90 -451 -7 -459 -14 -549 -51 -605
-9 -14 -14 -31 -13 -38 2 -7 -1 -13 -7 -14 -5 0 -30 -21 -54 -47 -66 -72 -131
-100 -233 -100 -101 1 -153 18 -227 75 -60 47 -103 99 -134 167 -20 42 -21 65
-24 375 -2 182 -4 401 -6 489 l-2 158 77 -7 78 -6 16 34 c22 45 12 82 -26 102
-31 16 -145 19 -192 5z"/>
<path d="M9904 4738 c3 -13 6 -33 6 -46 0 -22 1 -22 25 -6 30 20 32 44 5 51
-11 3 -17 9 -14 14 3 5 -2 9 -12 9 -12 0 -15 -6 -10 -22z"/>
<path d="M9751 4705 c0 -11 4 -27 9 -35 9 -13 10 -13 9 0 0 8 -4 24 -9 35 l-9
20 0 -20z"/>
<path d="M10045 4710 c-3 -5 1 -10 10 -10 9 0 13 5 10 10 -3 6 -8 10 -10 10
-2 0 -7 -4 -10 -10z"/>
<path d="M7629 4633 l-24 -28 28 24 c15 14 27 26 27 28 0 8 -8 1 -31 -24z"/>
<path d="M7000 4640 c0 -5 5 -10 10 -10 6 0 10 5 10 10 0 6 -4 10 -10 10 -5 0
-10 -4 -10 -10z"/>
<path d="M5181 4533 l-54 -4 7 -52 c3 -29 6 -89 6 -134 l0 -83 69 0 68 0 7 46
c3 26 6 86 6 134 0 82 -1 88 -22 94 -13 3 -25 5 -28 4 -3 -1 -29 -3 -59 -5z"/>
<path d="M4698 4522 l-68 -3 0 -129 0 -130 65 0 c36 0 68 0 73 0 10 0 16 251
5 259 -4 3 -38 5 -75 3z"/>
<path d="M4884 4484 c3 -26 6 -87 6 -136 l0 -89 73 3 72 3 3 133 3 132 -82 0
-82 0 7 -46z"/>
<path d="M7208 4508 c-141 -14 -272 -77 -379 -183 -73 -72 -97 -117 -145 -272
-34 -109 -37 -128 -38 -248 -1 -122 1 -134 27 -189 15 -32 34 -86 43 -119 23
-90 92 -172 214 -252 78 -51 128 -69 239 -86 151 -22 312 4 426 68 150 83 311
317 336 487 13 89 0 239 -30 337 -39 125 -156 281 -267 355 -113 74 -287 116
-426 102z m216 -174 c14 -5 16 -30 16 -175 l0 -169 164 0 164 0 7 -149 c4 -82
4 -154 1 -160 -5 -7 -65 -11 -174 -11 l-167 0 0 -167 0 -168 -150 -3 c-132 -2
-151 -1 -162 15 -9 12 -13 63 -13 174 l0 156 -163 -5 -164 -5 -6 33 c-4 18 -7
90 -7 160 l0 127 83 6 c45 4 121 7 170 7 l87 0 0 164 c0 122 3 166 13 169 18
8 282 8 301 1z"/>
<path d="M9830 4488 c-84 -44 -122 -101 -128 -193 -7 -114 38 -193 139 -244
102 -51 188 -38 274 41 103 94 115 236 27 338 -46 55 -103 82 -182 88 -59 4
-71 1 -130 -30z m234 -26 c65 -38 114 -146 102 -223 -17 -104 -79 -167 -182
-183 -84 -12 -186 40 -224 114 -27 52 -27 147 -1 198 25 49 70 90 117 108 49
18 145 11 188 -14z"/>
<path d="M9857 4362 c-30 -31 -37 -45 -37 -79 0 -58 20 -71 65 -44 43 25 45
25 45 6 0 -8 -14 -28 -32 -44 -45 -40 -31 -55 46 -47 41 4 56 3 46 -4 -23 -15
-2 -12 29 5 16 8 31 22 35 31 5 13 3 14 -7 6 -15 -13 -27 -6 -50 28 -33 47
-13 55 37 13 l31 -26 3 52 c4 60 -4 72 -67 113 -63 39 -98 37 -144 -10z m163
-27 c0 -8 -6 -15 -14 -15 -8 0 -21 -3 -29 -6 -9 -3 -16 2 -19 14 -4 16 0 19
28 20 24 1 34 -3 34 -13z m-97 -19 c8 -19 -1 -26 -35 -26 -26 0 -37 17 -21 33
12 12 51 7 56 -7z"/>
<path d="M3820 4345 l0 -135 85 0 85 0 0 135 0 135 -85 0 -85 0 0 -135z"/>
<path d="M4188 4348 c-2 -73 -3 -133 -3 -134 0 0 42 2 93 4 l92 4 0 76 c0 43
-3 101 -6 130 l-7 52 -83 0 -82 0 -4 -132z"/>
<path d="M5508 4350 c-3 -149 -10 -140 105 -140 l67 0 0 98 c0 53 3 114 6 135
l7 37 -91 0 -91 0 -3 -130z"/>
<path d="M5870 4470 c0 -5 -2 -66 -5 -136 -5 -113 -4 -126 11 -120 8 3 49 6
90 6 l74 0 0 53 c0 30 -3 88 -6 130 l-7 77 -78 0 c-44 0 -79 -4 -79 -10z"/>
<path d="M3018 4153 c6 -2 18 -2 25 0 6 3 1 5 -13 5 -14 0 -19 -2 -12 -5z"/>
<path d="M152 4065 c0 -16 2 -22 5 -12 2 9 2 23 0 30 -3 6 -5 -1 -5 -18z"/>
<path d="M4916 4015 c-43 -15 -91 -57 -112 -97 -13 -24 -29 -198 -37 -383 l-2
-60 -547 0 -548 0 0 -57 0 -58 503 -1 c827 -2 1160 -2 1610 0 l427 1 0 62 0
61 -522 -4 -523 -4 3 170 c5 244 -15 308 -110 353 -61 29 -98 33 -142 17z"/>
<path d="M5508 3868 c-2 -73 -2 -135 0 -138 2 -3 42 -7 88 -9 l84 -3 0 141 0
141 -84 0 -84 0 -4 -132z"/>
<path d="M5870 3949 c0 -25 -3 -86 -6 -135 l-7 -89 87 0 86 0 0 132 0 131 -80
4 -80 3 0 -46z"/>
<path d="M3820 3855 l0 -135 80 0 80 0 2 120 c0 66 1 126 2 133 1 8 -23 13
-81 15 l-83 3 0 -136z"/>
<path d="M4180 3855 l0 -135 73 0 c124 0 117 -8 117 141 l0 129 -95 0 -95 0 0
-135z"/>
<path d="M167 3890 c-3 -11 -1 -20 4 -20 5 0 9 9 9 20 0 11 -2 20 -4 20 -2 0
-6 -9 -9 -20z"/>
<path d="M10010 3875 c-10 -19 -11 -30 -2 -50 14 -31 42 -32 70 -2 25 26 28
47 8 47 -7 0 -19 7 -26 15 -18 22 -35 18 -50 -10z"/>
<path d="M150 3755 c0 -8 7 -15 15 -15 8 0 15 7 15 15 0 8 -7 15 -15 15 -8 0
-15 -7 -15 -15z"/>
<path d="M9676 3579 c13 -60 28 -126 34 -145 l12 -34 141 2 c78 1 113 3 78 5
-35 2 -73 11 -85 19 -11 7 -33 14 -48 14 -20 0 -28 5 -28 18 0 10 -15 26 -34
36 -26 14 -33 23 -29 39 4 17 2 19 -5 8 -8 -10 -12 2 -17 45 -9 67 -20 104
-33 104 -5 0 1 -50 14 -111z"/>
<path d="M9312 3640 c0 -14 2 -19 5 -12 2 6 2 18 0 25 -3 6 -5 1 -5 -13z"/>
<path d="M9211 3532 c-12 -46 -29 -101 -36 -123 -8 -22 -10 -37 -6 -34 5 3 12
-1 15 -7 4 -7 4 -2 2 11 -7 35 12 70 35 64 10 -3 19 -13 19 -23 0 -10 7 -23
16 -31 8 -7 13 -21 11 -31 -3 -10 -2 -18 3 -18 11 0 22 -133 14 -176 -4 -24
-13 -38 -25 -41 -11 -3 -19 -14 -19 -24 0 -12 -7 -19 -20 -19 -13 0 -20 -7
-20 -20 0 -11 -4 -20 -9 -20 -13 0 -29 -180 -16 -189 5 -4 55 -17 110 -29 98
-22 171 -26 230 -13 29 6 30 9 36 71 l6 65 1 -52 c1 -28 6 -54 10 -57 13 -8
117 50 115 62 -2 6 3 9 10 7 6 -3 23 4 37 15 19 16 21 19 5 13 -17 -6 -18 -5
-5 8 16 18 40 21 40 6 0 -6 27 17 61 51 36 37 57 67 53 73 -4 8 -3 9 4 5 7 -4
12 -2 12 3 0 18 3 26 17 39 7 8 11 17 8 22 -3 5 -1 10 5 12 6 2 12 14 15 27 8
43 26 91 35 91 4 0 10 12 13 26 l5 27 -165 -6 -165 -6 -14 35 c-8 19 -24 76
-35 126 -14 58 -24 86 -29 77 -9 -15 -68 -253 -115 -462 -28 -123 -41 -147
-80 -147 -38 0 -52 34 -74 170 -11 69 -27 166 -35 215 -8 50 -20 122 -26 160
-23 139 -23 140 -49 47z"/>
<path d="M161 3564 c0 -11 3 -14 6 -6 3 7 2 16 -1 19 -3 4 -6 -2 -5 -13z"/>
<path d="M150 3513 c0 -5 5 -15 10 -23 8 -12 10 -11 10 8 0 12 -4 22 -10 22
-5 0 -10 -3 -10 -7z"/>
<path d="M8323 3460 c0 -25 2 -35 4 -22 2 12 2 32 0 45 -2 12 -4 2 -4 -23z"/>
<path d="M2181 3464 c0 -11 3 -14 6 -6 3 7 2 16 -1 19 -3 4 -6 -2 -5 -13z"/>
<path d="M161 3454 c0 -11 3 -14 6 -6 3 7 2 16 -1 19 -3 4 -6 -2 -5 -13z"/>
<path d="M2430 3451 c0 -10 39 -41 52 -41 4 0 2 11 -4 25 -11 24 -48 36 -48
16z"/>
<path d="M2011 3435 c1 -19 18 -51 18 -35 0 8 -4 22 -9 30 -5 8 -9 11 -9 5z"/>
<path d="M155 3380 c-7 -12 2 -30 16 -30 5 0 9 9 9 20 0 21 -15 27 -25 10z"/>
<path d="M9141 3337 c-13 -21 -12 -21 5 -5 10 10 16 20 13 22 -3 3 -11 -5 -18
-17z"/>
<path d="M8150 3177 l-5 -147 93 0 92 0 0 65 c0 37 -4 65 -10 65 -5 0 -10 -9
-10 -20 0 -16 -7 -20 -35 -20 -34 0 -35 1 -35 40 0 40 0 40 -40 40 l-39 0 -3
63 c-2 34 -6 -4 -8 -86z"/>
<path d="M1821 3223 c1 -38 4 -93 9 -123 6 -46 7 -34 9 68 0 75 -3 122 -9 122
-6 0 -10 -29 -9 -67z"/>
<path d="M1922 3270 c0 -14 2 -19 5 -12 2 6 2 18 0 25 -3 6 -5 1 -5 -13z"/>
<path d="M2291 3264 c0 -11 3 -14 6 -6 3 7 2 16 -1 19 -3 4 -6 -2 -5 -13z"/>
<path d="M8322 3220 c0 -14 2 -19 5 -12 2 6 2 18 0 25 -3 6 -5 1 -5 -13z"/>
<path d="M160 3220 c0 -5 5 -10 10 -10 6 0 10 5 10 10 0 6 -4 10 -10 10 -5 0
-10 -4 -10 -10z"/>
<path d="M2900 3150 c0 -39 3 -51 10 -40 5 8 10 26 10 40 0 14 -5 32 -10 40
-7 11 -10 -1 -10 -40z"/>
<path d="M4347 3184 c-4 -4 -7 -21 -7 -38 0 -31 -1 -31 -44 -28 -46 4 -91 -12
-80 -29 3 -5 15 -7 27 -3 12 4 124 7 250 6 125 0 239 3 255 8 40 12 15 14
-193 15 l-180 0 -3 30 c-4 33 -14 49 -25 39z"/>
<path d="M1723 3125 c0 -27 2 -38 4 -22 2 15 2 37 0 50 -2 12 -4 0 -4 -28z"/>
<path d="M5774 3123 c-6 -38 -4 -49 11 -59 10 -7 22 -11 28 -7 5 3 3 9 -4 14
-11 7 -10 9 3 9 10 0 23 10 29 23 11 20 11 21 -4 9 -13 -11 -17 -10 -26 7 -6
11 -11 27 -11 35 0 36 -19 13 -26 -31z"/>
<path d="M155 3131 c-3 -5 -1 -12 5 -16 5 -3 10 1 10 9 0 18 -6 21 -15 7z"/>
<path d="M460 3126 c0 -16 18 -31 27 -22 3 3 -2 12 -11 21 -14 14 -16 14 -16
1z"/>
<path d="M2073 3085 c0 -22 2 -30 4 -17 2 12 2 30 0 40 -3 9 -5 -1 -4 -23z"/>
<path d="M3885 3097 c-35 -16 -92 -78 -106 -114 -27 -72 3 -192 57 -230 99
-69 211 -51 273 44 81 122 0 300 -141 310 -31 2 -66 -2 -83 -10z m126 -60 c48
-32 82 -101 74 -152 -12 -81 -64 -121 -149 -112 -59 5 -89 33 -106 99 -21 75
9 146 74 174 44 19 68 17 107 -9z"/>
<path d="M3925 2970 c-9 -10 -15 -26 -12 -35 4 -8 2 -15 -3 -15 -17 0 -11 -36
8 -54 18 -15 19 -15 30 9 6 14 16 25 22 25 14 0 13 -33 -2 -48 -7 -7 -8 -12
-2 -12 16 0 44 34 44 52 0 33 -11 49 -26 37 -16 -13 -19 2 -4 17 15 15 1 44
-20 44 -9 0 -25 -9 -35 -20z"/>
<path d="M4352 3020 c0 -14 2 -19 5 -12 2 6 2 18 0 25 -3 6 -5 1 -5 -13z"/>
<path d="M5180 2985 c13 -14 25 -25 27 -25 2 0 -4 11 -13 25 -9 14 -21 25 -27
25 -6 0 0 -11 13 -25z"/>
<path d="M300 2990 c0 -5 4 -10 9 -10 6 0 13 5 16 10 3 6 -1 10 -9 10 -9 0
-16 -4 -16 -10z"/>
<path d="M162 2981 c4 -13 18 -16 19 -4 0 4 -5 9 -11 12 -7 2 -11 -2 -8 -8z"/>
<path d="M7656 2925 c-60 -21 -80 -46 -80 -101 -1 -42 2 -49 29 -65 34 -20 71
-24 80 -9 3 6 0 10 -8 10 -15 0 -37 40 -37 69 0 23 31 51 58 51 45 0 67 -54
38 -96 -14 -20 -13 -21 17 -21 17 0 33 -5 35 -12 5 -15 28 -38 44 -44 7 -2 10
-7 6 -11 -3 -4 -15 -3 -26 3 -15 8 -21 7 -26 -4 -6 -16 -60 -41 -111 -51 -30
-5 -35 -10 -35 -35 l0 -29 232 2 232 3 9 31 c8 28 14 32 54 38 25 3 98 6 162
6 l116 0 -4 -800 c-3 -839 -3 -837 40 -876 25 -22 24 -34 -2 -34 -11 0 -17 4
-14 10 4 6 -2 7 -17 1 -20 -7 -28 -29 -9 -24 8 2 8 -303 0 -311 -8 -8 -279
-15 -279 -8 0 10 99 127 193 230 37 41 65 77 62 80 -3 3 -12 -4 -21 -16 -22
-32 -34 -28 -82 28 -30 35 -51 50 -68 50 -13 0 -23 -3 -22 -8 1 -4 -2 -27 -6
-50 -5 -29 -4 -48 3 -55 19 -19 12 -52 -21 -101 -38 -58 -53 -65 -78 -38 -11
11 -29 23 -40 27 -12 4 -25 16 -29 28 -8 20 -10 19 -26 -18 -10 -22 -21 -47
-25 -56 -6 -11 -1 -28 14 -50 13 -19 35 -53 50 -77 15 -24 31 -40 37 -36 7 4
9 0 5 -12 -5 -18 3 -19 182 -18 103 0 193 1 200 2 7 1 21 16 31 32 17 29 18
81 20 1088 l2 1059 -21 26 -21 27 -205 0 c-128 0 -204 4 -204 10 0 6 -45 9
-117 8 l-118 -2 -17 34 c-9 19 -22 49 -28 67 -8 20 -24 37 -45 47 -40 19 -58
19 -109 1z m444 -195 c0 -5 -2 -10 -4 -10 -3 0 -8 5 -11 10 -3 6 -1 10 4 10 6
0 11 -4 11 -10z"/>
<path d="M165 2880 c3 -5 8 -10 11 -10 2 0 4 5 4 10 0 6 -5 10 -11 10 -5 0 -7
-4 -4 -10z"/>
<path d="M10006 2875 c-3 -8 -3 -29 1 -45 5 -27 3 -30 -18 -30 -13 0 -35 9
-49 20 -33 26 -37 25 -55 -10 -26 -51 -15 -110 21 -110 7 0 24 20 38 45 32 54
51 57 66 11 12 -39 31 -58 45 -48 6 4 19 24 30 46 18 36 18 39 2 51 -9 7 -17
21 -17 33 0 35 -11 52 -35 52 -13 0 -25 -7 -29 -15z"/>
<path d="M5840 2875 c0 -2 10 -10 23 -16 20 -11 21 -11 8 4 -13 16 -31 23 -31
12z"/>
<path d="M166 2851 c-4 -7 -5 -15 -2 -18 9 -9 19 4 14 18 -4 11 -6 11 -12 0z"/>
<path d="M5254 2831 c-2 -3 -4 -519 -4 -1148 l1 -1144 82 3 82 3 8 120 c5 66
6 534 3 1040 -3 506 -6 967 -6 1025 l0 105 -81 0 c-44 0 -83 -2 -85 -4z"/>
<path d="M5861 2760 c-13 -11 -19 -20 -14 -20 6 0 18 9 28 20 23 25 17 25 -14
0z"/>
<path d="M8800 2769 c0 -5 -12 -14 -28 -20 -28 -10 -59 -60 -47 -79 3 -5 19
-10 34 -10 15 0 33 -6 40 -12 10 -11 15 -9 27 6 18 25 18 60 -1 96 -16 31 -25
38 -25 19z m-2 -82 c3 -12 -3 -17 -22 -17 -25 0 -35 18 -19 34 12 12 38 2 41
-17z"/>
<path d="M157 2753 c-13 -12 -7 -33 8 -33 8 0 15 9 15 20 0 20 -11 26 -23 13z"/>
<path d="M6849 2731 l-24 -19 2 -1068 c3 -939 5 -1070 18 -1091 l15 -23 600 0
c597 0 599 0 610 -21 7 -11 14 -18 17 -15 3 3 -7 30 -23 60 l-28 54 -475 7
c-262 4 -513 5 -558 1 l-83 -6 0 1020 0 1020 168 0 167 0 -3 50 -4 50 -188 0
c-170 0 -190 -2 -211 -19z"/>
<path d="M8918 2690 l-27 -16 21 -19 c15 -12 23 -14 26 -7 2 7 17 12 34 12 22
0 29 4 26 17 -5 25 -48 33 -80 13z"/>
<path d="M450 2670 c0 -5 5 -10 10 -10 6 0 10 5 10 10 0 6 -4 10 -10 10 -5 0
-10 -4 -10 -10z"/>
<path d="M1116 2662 c-3 -5 3 -21 14 -35 11 -14 20 -33 20 -44 1 -15 5 -13 26
11 36 41 29 70 -18 74 -20 2 -39 -1 -42 -6z m54 -44 c0 -16 -3 -19 -11 -11 -6
6 -8 16 -5 22 11 17 16 13 16 -11z"/>
<path d="M420 2636 c0 -16 34 -31 50 -21 5 3 10 14 10 23 0 12 -3 13 -8 5 -5
-8 -13 -9 -22 -3 -21 14 -30 12 -30 -4z"/>
<path d="M4656 2635 c-3 -8 -6 -484 -6 -1056 l0 -1041 85 4 85 3 0 1053 0
1052 -79 0 c-61 0 -80 -3 -85 -15z"/>
<path d="M5638 2468 c-3 -101 -3 -576 0 -1055 l5 -873 189 0 188 0 0 1048 0
1049 -127 6 c-71 4 -155 7 -189 7 l-61 0 -5 -182z"/>
<path d="M296 2631 c-3 -5 0 -11 7 -13 17 -7 38 2 31 13 -7 12 -31 12 -38 0z"/>
<path d="M160 2620 c0 -5 5 -10 11 -10 5 0 7 5 4 10 -3 6 -8 10 -11 10 -2 0
-4 -4 -4 -10z"/>
<path d="M9266 2563 c-4 -9 -6 -89 -6 -177 1 -89 1 -169 0 -178 0 -10 -8 -18
-17 -19 -15 0 -14 -2 3 -11 21 -10 21 -13 17 -246 l-5 -237 57 0 c39 0 60 4
63 13 3 9 8 10 16 3 7 -6 26 -7 50 -1 29 6 39 5 43 -6 7 -18 33 -18 33 0 0 8
-7 17 -16 20 -10 4 -13 13 -9 27 4 12 4 50 0 85 -6 55 -9 62 -21 50 -8 -8 -14
-22 -14 -30 0 -9 -4 -16 -10 -16 -5 0 -10 14 -10 30 0 17 5 30 10 30 6 0 10 5
10 10 0 6 -9 10 -20 10 -14 0 -20 7 -20 21 0 15 -4 19 -16 15 -9 -3 -22 -6
-30 -6 -8 0 -14 -7 -14 -15 0 -8 -9 -15 -20 -15 -16 0 -20 7 -20 35 0 22 5 35
13 35 8 0 13 17 15 50 1 37 -2 50 -12 50 -8 0 -16 -7 -20 -15 -3 -8 -12 -15
-20 -15 -10 0 -13 13 -13 50 1 51 11 65 22 30 6 -19 8 -19 36 -5 20 11 29 23
29 40 0 28 12 38 34 29 10 -4 16 -18 16 -35 0 -25 4 -29 29 -29 21 0 32 -6 36
-20 3 -11 13 -20 20 -20 11 0 14 38 13 211 0 120 -4 205 -9 197 -6 -9 -9 -2
-9 20 0 18 -6 34 -12 37 -7 2 -59 6 -114 10 -90 5 -102 4 -108 -12z m194 -383
c0 -5 -4 -10 -10 -10 -5 0 -10 5 -10 10 0 6 5 10 10 10 6 0 10 -4 10 -10z
m-23 -426 c-3 -3 -22 -9 -41 -14 -28 -6 -36 -5 -36 6 0 10 13 14 42 14 23 0
39 -3 35 -6z m3 -18 c0 -3 -4 -8 -10 -11 -5 -3 -10 -1 -10 4 0 6 5 11 10 11 6
0 10 -2 10 -4z"/>
<path d="M1540 2521 c-76 -24 -198 -126 -187 -156 4 -8 1 -14 -6 -12 -7 1 -12
-6 -12 -15 0 -9 -4 -20 -9 -25 -5 -5 -6 -2 -2 7 4 8 0 6 -8 -4 -21 -26 -21
-147 0 -209 17 -51 82 -125 132 -151 51 -26 166 -41 212 -27 49 15 154 109
182 165 33 64 37 187 8 254 -24 56 -86 119 -147 150 -44 23 -127 34 -163 23z
m118 -168 l3 -53 65 0 64 0 0 -69 c0 -98 -2 -101 -66 -101 l-54 0 0 -60 0 -60
-80 0 -80 0 0 61 0 62 -51 -5 c-70 -7 -82 6 -78 91 2 36 0 71 -3 76 -4 7 17 9
63 7 l69 -4 0 56 0 57 73 -3 72 -3 3 -52z m-188 -1 c-10 -4 -9 -6 1 -13 21
-13 4 -21 -27 -13 l-28 7 30 23 c19 16 30 20 33 12 2 -7 -2 -14 -9 -16z m-33
-38 c-3 -3 -12 -4 -19 -1 -8 3 -5 6 6 6 11 1 17 -2 13 -5z"/>
<path d="M3437 2505 c-14 -20 -27 -25 -62 -25 -25 0 -45 -4 -45 -9 0 -17 16
-21 51 -11 50 15 69 5 69 -36 0 -47 17 -43 25 7 l7 42 64 -7 c52 -5 64 -4 64
8 0 7 -11 16 -25 18 -14 3 -25 2 -25 -1 0 -4 -16 -5 -36 -3 -25 3 -38 10 -41
23 -7 26 -24 23 -46 -6z"/>
<path d="M162 2506 c1 -10 8 -17 13 -17 15 1 12 24 -3 29 -9 3 -13 -2 -10 -12z"/>
<path d="M292 2509 c2 -7 10 -15 17 -17 8 -3 12 1 9 9 -2 7 -10 15 -17 17 -8
3 -12 -1 -9 -9z"/>
<path d="M1150 2501 c0 -10 19 -25 25 -20 1 2 -3 10 -11 17 -8 7 -14 8 -14 3z"/>
<path d="M3086 2472 c-2 -4 -1 -14 5 -22 7 -12 9 -10 9 8 0 23 -5 28 -14 14z"/>
<path d="M2945 2450 c-3 -5 -1 -10 4 -10 6 0 11 5 11 10 0 6 -2 10 -4 10 -3 0
-8 -4 -11 -10z"/>
<path d="M2850 2430 c-12 -8 -9 -10 13 -10 15 0 27 5 27 10 0 13 -20 13 -40 0z"/>
<path d="M293 2423 c-7 -2 -13 -16 -13 -29 0 -20 5 -24 31 -24 27 0 30 3 27
27 -3 27 -20 37 -45 26z"/>
<path d="M3051 2398 c-18 -20 -46 -38 -62 -42 -35 -7 -139 -85 -139 -103 0 -7
-11 -13 -25 -13 -18 0 -25 -5 -25 -19 0 -11 -5 -23 -10 -26 -19 -11 -64 -89
-64 -110 -1 -12 -7 -20 -18 -19 -9 1 -19 -5 -22 -13 -4 -9 -2 -11 6 -7 6 4
-15 -24 -48 -62 -32 -38 -64 -68 -71 -68 -7 1 -10 -2 -7 -7 7 -12 -97 -119
-109 -112 -6 3 -7 2 -4 -4 9 -14 -52 -85 -66 -76 -7 3 -9 3 -5 -1 8 -9 -63
-85 -77 -83 -5 1 -9 -3 -8 -9 2 -11 -64 -81 -82 -86 -5 -2 -9 -6 -8 -10 1 -3
-28 -34 -64 -68 -55 -51 -72 -61 -95 -58 -15 3 -29 1 -30 -4 -2 -5 -11 -6 -21
-3 -13 6 -17 19 -17 63 0 30 3 53 6 49 10 -9 34 19 34 40 0 20 -7 27 -110 112
-36 29 -66 57 -68 62 -2 5 -9 9 -16 9 -7 0 -27 21 -45 46 -28 40 -35 45 -46
33 -8 -8 -15 -21 -17 -29 -2 -8 -10 -20 -18 -27 -13 -11 -12 -12 6 -13 18 0
22 -8 28 -50 5 -35 11 -50 22 -50 23 0 44 -26 44 -54 0 -19 5 -26 20 -26 13 0
20 -7 20 -20 0 -13 7 -20 20 -20 17 0 20 -7 20 -40 l0 -40 40 0 c33 0 40 -3
40 -20 0 -13 -7 -20 -20 -20 -15 0 -20 -7 -20 -25 0 -13 -7 -28 -17 -33 -14
-9 -14 -10 5 -16 12 -4 22 -13 22 -20 0 -15 62 -76 78 -76 11 0 478 443 484
460 2 5 79 85 171 179 l169 171 80 -80 c44 -44 83 -78 88 -75 5 3 12 31 15 63
4 31 22 149 41 260 19 112 33 209 31 215 -2 6 -18 -5 -36 -25z"/>
<path d="M160 2400 c0 -11 0 -23 -1 -27 0 -4 5 -9 12 -12 8 -2 10 2 6 12 -3 9
-2 19 3 22 15 9 12 25 -5 25 -8 0 -15 -9 -15 -20z"/>
<path d="M430 2410 c0 -5 9 -10 20 -10 10 0 23 -8 29 -17 8 -14 12 -15 25 -4
30 25 19 41 -29 41 -25 0 -45 -4 -45 -10z"/>
<path d="M2726 2404 c-44 -7 -111 -14 -151 -16 l-72 -3 55 -65 c30 -36 62 -66
71 -67 11 -1 10 0 -2 3 -9 3 -15 10 -12 15 4 5 1 9 -4 9 -6 0 -11 12 -11 26 0
14 4 23 10 19 6 -3 10 1 10 9 0 8 9 18 20 21 11 3 20 10 20 15 0 5 13 7 29 4
16 -3 39 0 52 7 13 7 37 15 54 19 63 13 6 16 -69 4z"/>
<path d="M7610 2411 c-54 -17 -108 -51 -151 -98 -105 -112 -139 -230 -105
-358 58 -220 246 -329 456 -266 63 19 81 31 132 81 34 35 70 83 86 117 24 52
27 70 27 163 0 94 -3 111 -27 160 -46 95 -122 161 -219 191 -61 19 -153 24
-199 10z m143 -151 c27 0 27 -1 27 -65 l0 -65 65 0 c75 0 78 -4 73 -105 l-3
-60 -67 -3 -68 -3 0 -74 0 -75 -80 0 -80 0 0 80 0 80 -75 0 -75 0 0 80 0 80
75 0 75 0 0 71 0 72 53 -7 c28 -3 64 -6 80 -6z"/>
<path d="M2252 2368 c-22 -28 -18 -52 11 -62 24 -9 30 -7 39 8 8 15 12 16 19
5 7 -12 10 -12 18 -1 7 11 9 11 14 -2 4 -10 -1 -16 -16 -19 -18 -4 -17 -5 6
-6 24 -1 27 3 27 30 0 29 -2 31 -30 27 -21 -3 -35 1 -47 14 -19 21 -27 22 -41
6z"/>
<path d="M2091 2356 c-13 -15 -6 -42 17 -68 24 -28 29 -22 31 32 0 42 -2 50
-18 50 -10 0 -24 -6 -30 -14z"/>
<path d="M4067 2313 c-9 -8 -9 -1422 0 -1621 l6 -152 84 0 83 0 0 890 0 890
-83 0 c-46 0 -87 -3 -90 -7z"/>
<path d="M6458 2268 c-6 -54 1 -1698 7 -1715 3 -9 30 -13 85 -13 l80 0 0 880
0 880 -54 0 c-29 0 -67 3 -83 6 -29 6 -30 5 -35 -38z"/>
<path d="M1125 2280 c-3 -5 -1 -10 4 -10 6 0 11 5 11 10 0 6 -2 10 -4 10 -3 0
-8 -4 -11 -10z"/>
<path d="M153 2257 c5 -15 37 -22 37 -9 0 5 -9 12 -21 15 -13 3 -19 1 -16 -6z"/>
<path d="M2625 2228 c3 -8 -3 -23 -14 -35 -19 -20 -19 -20 5 -20 13 0 27 3 30
8 3 5 0 9 -6 9 -7 0 -9 8 -5 19 3 11 1 22 -4 26 -6 3 -9 0 -6 -7z"/>
<path d="M293 2184 c-8 -20 6 -34 33 -34 21 0 25 4 22 23 -3 25 -46 34 -55 11z"/>
<path d="M490 2190 c-21 -7 -21 -8 -5 -9 11 0 27 4 35 9 18 11 5 11 -30 0z"/>
<path d="M157 2163 c-12 -11 -7 -33 7 -33 7 0 16 9 19 20 5 19 -12 28 -26 13z"/>
<path d="M2064 2156 c-9 -22 4 -36 33 -36 23 0 25 -3 20 -30 -4 -16 -3 -30 1
-30 5 0 9 19 11 41 1 23 3 47 4 53 3 18 -62 20 -69 2z"/>
<path d="M3373 2132 c-48 -48 -101 -130 -108 -168 -7 -36 19 -81 70 -119 47
-36 118 -44 180 -21 53 21 115 88 115 125 0 37 -48 126 -95 177 -36 38 -47 44
-83 44 -35 0 -48 -6 -79 -38z m110 -75 c3 -7 3 -25 0 -40 -4 -22 -2 -27 15
-27 11 0 28 -8 37 -17 16 -16 16 -17 -1 -30 -10 -7 -26 -11 -35 -8 -13 4 -18
-1 -21 -17 -4 -32 -35 -35 -49 -5 -8 19 -19 25 -38 24 -22 -2 -27 3 -29 27 -3
27 -2 28 26 23 34 -7 45 7 30 36 -5 10 -7 25 -4 33 7 18 62 19 69 1z"/>
<path d="M2570 2145 c0 -17 9 -19 28 -6 11 7 10 10 -3 15 -23 9 -25 8 -25 -9z"/>
<path d="M160 2083 c0 -5 5 -15 10 -23 8 -12 10 -11 10 8 0 12 -4 22 -10 22
-5 0 -10 -3 -10 -7z"/>
<path d="M2070 2086 c0 -2 8 -10 18 -17 15 -13 16 -12 3 4 -13 16 -21 21 -21
13z"/>
<path d="M2495 2063 l-18 -28 27 24 c28 26 31 31 17 31 -5 0 -17 -12 -26 -27z"/>
<path d="M9118 2063 c12 -2 32 -2 45 0 12 2 2 4 -23 4 -25 0 -35 -2 -22 -4z"/>
<path d="M9400 2059 c0 -5 5 -7 10 -4 6 3 10 8 10 11 0 2 -4 4 -10 4 -5 0 -10
-5 -10 -11z"/>
<path d="M2060 2005 c0 -8 7 -15 15 -15 8 0 15 7 15 15 0 8 -7 15 -15 15 -8 0
-15 -7 -15 -15z"/>
<path d="M2131 2002 c-1 -7 -5 -10 -11 -7 -5 3 -10 2 -10 -2 0 -5 -10 -9 -22
-10 -11 -1 -25 -8 -29 -15 -11 -17 -1 -24 13 -10 17 17 38 15 38 -3 0 -8 4
-15 10 -15 12 0 24 44 17 62 -4 11 -6 11 -6 0z"/>
<path d="M2435 1999 c-4 -6 -5 -12 -2 -15 2 -3 7 2 10 11 7 17 1 20 -8 4z"/>
<path d="M9133 1963 c9 -2 25 -2 35 0 9 3 1 5 -18 5 -19 0 -27 -2 -17 -5z"/>
<path d="M9573 1963 c9 -2 23 -2 30 0 6 3 -1 5 -18 5 -16 0 -22 -2 -12 -5z"/>
<path d="M2200 1769 c-102 -99 -177 -178 -167 -175 10 3 21 6 23 6 3 0 2 5 -1
11 -4 6 2 13 14 16 12 3 21 10 21 15 0 5 5 6 12 2 7 -4 8 -3 4 4 -4 7 3 16 18
23 13 6 22 17 19 24 -2 8 6 16 19 21 13 4 40 27 61 50 21 24 43 41 48 38 5 -3
8 -2 7 3 -5 13 25 47 55 62 15 8 27 20 27 26 0 6 9 21 20 33 12 12 17 22 13
22 -4 0 -91 -82 -193 -181z"/>
<path d="M162 1870 c0 -14 2 -19 5 -12 2 6 2 18 0 25 -3 6 -5 1 -5 -13z"/>
<path d="M504 1845 c-29 -70 -10 -101 57 -92 48 6 79 31 79 64 0 36 -34 63
-81 63 -36 0 -41 -3 -55 -35z"/>
<path d="M3457 1313 c-9 -435 -9 -701 -1 -742 l7 -31 83 0 84 0 0 560 0 560
-83 0 -84 0 -6 -347z"/>
<path d="M1223 1564 c-12 -32 56 -47 92 -21 27 21 9 37 -41 37 -32 0 -46 -5
-51 -16z"/>
<path d="M9560 1453 c0 -60 4 -113 8 -119 4 -6 23 -14 42 -18 45 -8 130 -67
151 -103 40 -67 43 -159 9 -248 -10 -25 -6 -33 55 -101 60 -66 68 -72 86 -61
32 19 88 144 99 223 21 137 -18 266 -109 366 -74 81 -156 133 -240 152 -108
25 -101 31 -101 -91z"/>
<path d="M725 1514 c-70 -36 -105 -89 -105 -157 0 -88 82 -157 187 -157 45 0
58 5 89 32 40 36 64 82 64 125 0 46 -45 130 -82 153 -40 24 -111 26 -153 4z
m116 -56 c75 -42 89 -131 28 -182 -57 -48 -112 -46 -166 7 -59 56 -50 135 20
177 41 26 70 25 118 -2z"/>
<path d="M2786 1504 c-3 -9 -6 -29 -6 -46 0 -30 -1 -30 -40 -24 -36 6 -40 4
-46 -18 -3 -13 -4 -35 -2 -47 3 -21 8 -24 45 -22 36 1 42 -1 47 -23 4 -14 4
-29 1 -33 -8 -15 23 -33 45 -26 15 5 20 15 20 40 0 33 2 34 43 37 l42 3 3 53
c3 46 1 52 -17 52 -11 0 -31 -4 -45 -10 -26 -9 -26 -9 -26 35 0 43 -1 45 -29
45 -17 0 -31 -6 -35 -16z"/>
<path d="M10060 1498 c0 -19 -2 -20 -10 -8 -8 13 -10 12 -10 -2 0 -24 17 -23
30 1 13 25 13 31 0 31 -5 0 -10 -10 -10 -22z"/>
<path d="M363 1496 c-4 -8 -18 -16 -30 -18 l-22 -3 26 -29 c14 -17 28 -25 31
-19 4 5 19 13 35 17 31 7 35 26 9 49 -23 21 -38 22 -49 3z"/>
<path d="M8953 1471 c-26 -13 -30 -19 -22 -33 13 -23 74 -25 83 -3 5 15 -13
56 -24 54 -3 -1 -19 -9 -37 -18z"/>
<path d="M8713 1463 c-18 -6 -16 -42 2 -49 8 -3 24 1 36 9 16 12 28 13 46 6
28 -10 90 -2 99 13 11 18 -15 25 -69 18 -28 -4 -63 -4 -77 0 -14 4 -31 5 -37
3z"/>
<path d="M7645 1394 c52 -6 639 -21 644 -17 14 10 -40 13 -345 17 -186 2 -321
2 -299 0z"/>
<path d="M7113 1383 c20 -2 54 -2 75 0 20 2 3 4 -38 4 -41 0 -58 -2 -37 -4z"/>
<path d="M7348 1383 c39 -2 105 -2 145 0 39 1 7 3 -73 3 -80 0 -112 -2 -72 -3z"/>
<path d="M1882 1366 c7 -8 15 -12 17 -11 5 6 -10 25 -20 25 -5 0 -4 -6 3 -14z"/>
<path d="M8700 1294 c0 -33 22 -40 59 -18 24 14 34 15 58 5 34 -14 83 -1 83
22 0 11 -22 14 -100 14 -99 1 -100 1 -100 -23z"/>
<path d="M8942 1298 c4 -29 62 -39 72 -13 9 25 -2 35 -40 35 -31 0 -35 -3 -32
-22z"/>
<path d="M9495 1304 c-25 -25 -11 -27 26 -5 29 18 31 21 12 21 -12 0 -29 -7
-38 -16z"/>
<path d="M7500 1280 c-424 -5 -424 -5 185 -7 336 0 599 3 585 7 -26 8 -94 8
-770 0z"/>
<path d="M314 1243 l-32 -16 34 -29 c34 -30 34 -30 69 -14 39 19 44 35 17 59
-23 21 -47 21 -88 0z"/>
<path d="M9378 1233 c10 -4 10 -8 0 -21 -8 -10 -9 -13 -1 -9 6 4 14 3 18 -3 3
-5 2 -10 -3 -10 -6 0 -13 -12 -17 -27 -4 -16 -11 -33 -17 -40 -11 -14 -86 -25
-220 -32 -36 -1 -39 -31 -3 -31 14 0 25 -4 25 -10 0 -5 9 -10 19 -10 11 0 22
-6 24 -12 4 -10 6 -10 6 0 1 6 14 12 29 12 15 0 33 5 39 11 8 8 13 8 17 0 4
-6 2 -11 -3 -11 -6 0 -11 -9 -11 -20 0 -13 7 -20 20 -20 12 0 20 -7 20 -17 1
-30 45 -72 69 -66 26 7 27 -5 4 -24 -16 -13 -16 -14 9 -9 17 4 30 1 35 -7 14
-24 113 -31 113 -8 0 4 -15 15 -34 24 -37 17 -86 81 -104 136 -18 50 -14 120
8 169 19 42 16 53 -9 30 -8 -7 -11 -8 -8 -3 3 6 -4 11 -16 12 -12 0 -16 -1 -9
-4z"/>
<path d="M9347 1223 c-4 -3 -7 -11 -7 -17 0 -6 5 -5 12 2 6 6 9 14 7 17 -3 3
-9 2 -12 -2z"/>
<path d="M7087 1158 c2 -5 187 -7 411 -6 224 1 376 3 337 5 -168 7 -753 7
-748 1z"/>
<path d="M944 1129 c3 -17 6 -80 6 -140 0 -92 2 -109 16 -109 10 0 14 -7 12
-22 -2 -15 -9 -22 -21 -22 -14 2 -17 -6 -16 -45 1 -29 4 -36 6 -18 4 23 6 25
19 13 8 -8 14 -19 14 -25 0 -15 20 -14 53 3 32 18 36 4 5 -18 -18 -13 -54 -16
-180 -16 -139 0 -158 -2 -167 -17 -7 -12 -10 -13 -11 -5 0 8 -9 27 -21 43 -17
25 -27 29 -66 29 -112 0 -185 -99 -138 -189 19 -37 64 -55 122 -48 38 4 54 12
80 41 19 21 33 47 34 63 1 17 3 21 6 11 4 -16 20 -18 146 -18 172 0 187 3 187
39 0 28 35 68 77 90 46 24 136 14 147 -16 5 -12 3 -13 -7 -5 -24 21 -91 25
-130 9 -46 -20 -80 -71 -72 -110 13 -74 84 -119 154 -98 70 21 98 76 76 152
-5 19 -4 21 4 9 6 -8 11 -23 11 -32 0 -23 7 -26 83 -34 l67 -7 0 42 c0 22 -4
41 -10 41 -5 0 -10 7 -10 16 0 9 5 12 11 8 9 -5 10 7 7 44 -5 56 -47 131 -77
139 -10 3 -47 53 -82 111 -35 59 -68 110 -74 114 -5 4 -68 8 -139 8 l-128 0 6
-31z m279 -102 c26 -40 47 -76 47 -80 0 -4 -56 -7 -124 -7 l-124 0 -4 68 c-2
37 -2 73 0 80 3 8 28 12 81 12 l76 0 48 -73z m-611 -324 c25 -23 23 -59 -7
-88 -28 -29 -42 -31 -72 -10 -51 36 -31 115 29 115 17 0 40 -7 50 -17z m610
-10 c22 -20 23 -42 2 -71 -18 -27 -69 -30 -96 -5 -24 21 -24 78 0 93 22 13 70
5 94 -17z"/>
<path d="M2303 1093 c-15 -30 -1 -48 27 -36 8 3 42 10 75 13 l60 7 -68 1 c-57
2 -69 5 -75 21 -6 18 -8 18 -19 -6z"/>
<path d="M7080 1056 c0 -2 7 -6 15 -10 8 -3 15 -1 15 4 0 6 -7 10 -15 10 -8 0
-15 -2 -15 -4z"/>
<path d="M7348 1053 c17 -2 47 -2 65 0 17 2 3 4 -33 4 -36 0 -50 -2 -32 -4z"/>
<path d="M2558 984 c-3 -3 -3 -17 1 -32 10 -38 35 -34 39 6 3 26 0 32 -16 32
-10 0 -21 -3 -24 -6z"/>
<path d="M2827 984 c-11 -11 -8 -62 3 -69 6 -3 10 -19 10 -36 0 -16 -4 -29
-10 -29 -5 0 -10 -13 -10 -30 0 -23 5 -30 19 -30 16 0 18 9 18 83 0 45 1 88 4
96 4 16 -22 27 -34 15z"/>
<path d="M2978 985 c-9 -9 4 -66 15 -62 13 4 28 53 19 61 -7 7 -27 8 -34 1z"/>
<path d="M2400 946 c0 -25 5 -35 19 -39 15 -3 20 2 25 25 9 46 8 48 -19 48
-22 0 -25 -4 -25 -34z"/>
<path d="M2684 965 c-9 -23 4 -47 23 -43 11 2 19 14 21 31 3 22 -1 27 -18 27
-11 0 -23 -7 -26 -15z"/>
<path d="M2047 963 c-2 -4 -2 -15 2 -24 5 -13 12 -14 29 -8 13 5 22 15 20 21
-5 15 -44 23 -51 11z"/>
<path d="M2224 954 c3 -9 6 -20 6 -25 0 -16 38 -10 44 7 11 28 6 34 -25 34
-24 0 -30 -3 -25 -16z"/>
<path d="M1722 938 c2 -17 10 -23 28 -23 18 0 26 6 28 23 3 19 -1 22 -28 22
-27 0 -31 -3 -28 -22z"/>
<path d="M1880 940 c0 -25 8 -25 27 -2 14 16 14 16 9 -1 -4 -12 -2 -17 6 -15
7 3 14 12 16 21 3 13 -4 17 -27 17 -24 0 -31 -4 -31 -20z"/>
<path d="M1580 925 c0 -15 6 -25 14 -25 28 0 46 12 46 31 0 14 -7 19 -30 19
-25 0 -30 -4 -30 -25z"/>
<path d="M2697 854 c-4 -4 -7 -20 -7 -36 0 -22 5 -28 21 -28 17 0 20 5 17 32
-3 31 -17 45 -31 32z"/>
<path d="M2394 824 c-9 -35 2 -56 28 -52 18 2 24 11 26 34 3 27 -1 32 -23 36
-20 4 -26 1 -31 -18z"/>
<path d="M2980 821 c0 -21 5 -31 15 -31 8 0 15 8 15 19 0 10 -7 24 -15 31 -13
11 -15 8 -15 -19z"/>
<path d="M2243 832 c-6 -4 -13 -16 -17 -28 -9 -28 38 -53 52 -27 18 31 -9 72
-35 55z"/>
<path d="M2560 816 c0 -20 5 -26 21 -26 15 0 20 5 17 22 -5 34 -38 37 -38 4z"/>
<path d="M2043 804 c-9 -23 9 -33 37 -22 24 9 24 10 6 24 -25 18 -35 18 -43
-2z"/>
<path d="M494 800 c-12 -5 -25 -14 -30 -21 -5 -9 -2 -10 12 -5 10 5 38 11 62
13 23 3 45 10 48 14 7 11 -64 10 -92 -1z"/>
<path d="M1735 800 c-9 -15 4 -30 26 -30 12 0 19 7 19 20 0 21 -33 29 -45 10z"/>
<path d="M1880 796 c0 -20 16 -29 40 -21 32 10 25 35 -10 35 -19 0 -30 -5 -30
-14z"/>
<path d="M8850 754 c0 -47 3 -55 17 -52 9 2 25 17 35 35 19 31 19 32 -3 52
-38 35 -49 27 -49 -35z"/>
<path d="M355 729 c-27 -5 -58 -7 -67 -5 -15 3 -18 -3 -18 -35 l0 -39 74 0 74
0 6 31 c13 65 16 63 -69 48z"/>
<path d="M1775 601 c6 -11 4 -13 -8 -8 -21 8 -22 -6 -2 -23 12 -10 16 -9 21 5
4 9 1 22 -6 28 -10 9 -11 9 -5 -2z"/>
<path d="M1896 585 c-4 -11 1 -15 19 -15 16 0 25 6 25 15 0 8 -9 15 -19 15
-10 0 -21 -7 -25 -15z"/>
<path d="M2400 580 c0 -16 5 -21 23 -18 12 2 22 10 22 18 0 8 -10 16 -22 18
-18 3 -23 -2 -23 -18z"/>
<path d="M2550 578 c0 -13 7 -18 26 -18 18 0 25 5 22 17 -4 24 -48 25 -48 1z"/>
<path d="M2687 593 c-14 -13 -6 -33 12 -33 25 0 38 20 20 31 -17 11 -24 11
-32 2z"/>
<path d="M2817 593 c-17 -17 -6 -34 20 -31 36 4 45 38 10 38 -13 0 -27 -3 -30
-7z"/>
<path d="M2974 589 c-9 -15 11 -33 30 -26 9 4 13 13 10 22 -7 17 -30 20 -40 4z"/>
<path d="M2050 580 c0 -5 11 -10 25 -10 14 0 25 5 25 10 0 6 -11 10 -25 10
-14 0 -25 -4 -25 -10z"/>
<path d="M2230 580 c0 -6 6 -10 13 -9 6 1 20 -1 30 -6 20 -9 32 -1 22 14 -8
14 -65 14 -65 1z"/>
</g>
</svg>
