<?xml version="1.0" standalone="no"?>
<!DOCTYPE svg PUBLIC "-//W3C//DTD SVG 20010904//EN"
 "http://www.w3.org/TR/2001/REC-SVG-20010904/DTD/svg10.dtd">
<svg version="1.0" xmlns="http://www.w3.org/2000/svg"
 width="1024.000000pt" height="1024.000000pt" viewBox="0 0 1024.000000 1024.000000"
 preserveAspectRatio="xMidYMid meet">

<g transform="translate(0.000000,1024.000000) scale(0.100000,-0.100000)"
fill="#000000" stroke="none">
<path d="M8382 9727 c-125 -46 -181 -197 -116 -316 29 -55 51 -74 122 -110
l43 -22 -3 -112 -3 -112 -74 -7 c-99 -10 -247 -50 -320 -87 l-59 -30 -74 76
c-40 42 -82 86 -93 97 -56 59 -57 61 -41 100 52 123 8 254 -104 311 -78 40
-170 28 -247 -31 -80 -61 -101 -181 -51 -284 55 -113 183 -158 291 -103 16 8
36 13 46 11 9 -2 62 -50 116 -106 91 -95 98 -105 80 -114 -47 -26 -123 -114
-134 -156 -10 -35 -21 -48 -59 -72 -29 -17 -55 -43 -64 -63 -37 -77 -46 -197
-22 -299 l6 -28 -73 0 c-41 0 -96 -3 -124 -6 l-50 -5 -22 48 c-24 53 -80 96
-148 114 -86 24 -193 -27 -241 -115 -93 -169 66 -377 248 -325 84 25 138 85
161 179 l11 48 141 4 140 3 43 -32 c51 -39 98 -53 173 -53 l56 0 14 -52 14
-53 -129 -132 -129 -132 -46 25 c-81 42 -183 29 -253 -34 -51 -46 -78 -102
-78 -167 0 -72 17 -121 56 -165 105 -116 288 -100 364 33 41 72 47 122 23 201
l-20 64 123 123 123 123 30 -22 c47 -35 131 -62 191 -62 50 0 148 18 193 35
16 7 17 -6 17 -173 l0 -179 -40 -7 c-80 -13 -160 -120 -160 -217 0 -101 61
-194 148 -224 91 -31 166 -13 233 54 37 37 49 59 64 114 17 65 18 71 1 123
-21 68 -78 128 -134 143 -39 11 -39 11 -46 72 -9 89 -7 222 3 238 17 26 199
-148 279 -266 49 -72 69 -85 120 -81 l37 3 -3 125 c-1 69 1 130 5 136 5 6 28
20 53 31 l45 20 55 -57 c30 -32 61 -59 68 -61 10 -4 10 -12 -3 -41 -19 -48
-19 -138 0 -186 51 -121 204 -183 315 -127 69 35 132 140 132 219 0 49 -31
128 -65 164 -67 72 -202 91 -288 40 l-46 -27 -51 55 -50 56 45 56 c26 31 54
75 64 97 10 22 29 51 43 64 66 62 93 213 57 316 -12 33 -30 90 -40 126 l-18
67 126 -6 c69 -2 127 -8 129 -13 2 -4 17 -26 33 -49 96 -133 329 -97 384 59
43 124 -15 255 -132 295 -122 42 -238 -12 -283 -131 -11 -30 -20 -65 -20 -78
l0 -25 -127 0 c-112 0 -133 3 -169 21 -32 18 -44 32 -58 71 -11 32 -37 69 -77
110 l-60 61 103 106 c56 58 103 107 103 108 1 1 23 -9 50 -22 81 -42 200 -26
261 33 40 40 78 129 77 182 -1 86 -68 182 -150 217 -73 30 -177 8 -241 -51
-66 -59 -86 -178 -45 -268 l21 -47 -26 -17 c-15 -9 -68 -59 -118 -112 l-90
-95 -85 36 c-92 39 -181 63 -316 83 l-43 6 0 112 0 111 45 19 c89 36 155 154
141 249 -10 64 -60 135 -116 164 -50 25 -133 30 -188 10z m147 -67 c76 -38
110 -134 73 -207 -59 -116 -164 -131 -257 -37 -55 54 -54 138 2 205 50 59 116
73 182 39z m-882 -209 c48 -35 88 -118 79 -164 -10 -51 -53 -113 -90 -131 -70
-33 -180 -6 -210 52 -37 71 -28 178 18 221 63 59 140 67 203 22z m1804 -8 c53
-48 71 -85 71 -144 -2 -177 -222 -227 -302 -68 -57 110 25 249 147 249 35 0
50 -7 84 -37z m-750 -492 c116 -37 254 -108 308 -159 50 -47 51 -49 51 -105 0
-54 1 -57 25 -57 69 0 115 -57 115 -142 0 -28 9 -59 26 -88 38 -64 37 -139 -2
-217 l-29 -58 -156 -7 c-173 -7 -279 -20 -354 -42 -27 -8 -75 -21 -105 -29
-30 -8 -102 -32 -160 -53 -92 -33 -116 -38 -197 -39 -87 0 -93 1 -129 31 -59
47 -76 76 -76 126 0 100 89 190 227 229 313 90 381 122 432 208 18 29 37 79
44 110 17 86 19 87 69 49 90 -68 125 -202 80 -306 -29 -68 -66 -98 -137 -112
-173 -34 -328 -90 -336 -120 -4 -17 0 -20 30 -20 20 0 66 9 102 19 36 11 89
22 116 26 128 17 234 68 270 129 94 164 42 370 -103 412 -32 9 -67 23 -79 31
-12 8 -34 13 -50 11 -27 -3 -28 -5 -30 -66 -2 -76 -30 -140 -78 -176 -18 -14
-91 -44 -162 -66 -136 -44 -277 -91 -331 -112 -40 -15 -52 -3 -52 54 0 29 8
47 35 77 47 52 88 70 179 78 80 6 87 12 60 51 -12 18 -25 22 -68 22 -77 0
-139 -25 -201 -81 -58 -53 -92 -121 -80 -158 4 -12 24 -33 45 -47 l38 -25 -41
-65 -41 -64 -77 0 c-72 0 -80 2 -121 33 -61 47 -88 98 -88 172 0 113 42 195
101 195 33 0 49 23 49 70 0 80 56 133 233 219 157 76 235 91 432 87 118 -3
164 -8 216 -25z m1075 -140 c65 -30 89 -72 89 -158 0 -62 -3 -75 -25 -98 -53
-57 -125 -69 -200 -32 -120 59 -109 220 20 285 53 27 63 27 116 3z m-2563
-462 c73 -37 115 -115 97 -177 -33 -118 -138 -162 -239 -101 -35 21 -70 87
-71 133 -1 96 133 186 213 145z m1892 -341 c-3 -23 -18 -46 -50 -76 -77 -70
-92 -75 -255 -80 l-145 -4 -64 53 -65 53 30 8 c26 8 164 38 189 42 6 1 16 5
23 9 6 5 17 5 22 2 6 -3 10 -2 10 4 0 13 42 17 187 19 l122 2 -4 -32z m-311
-228 l52 0 12 -58 c7 -32 12 -74 11 -93 0 -30 -2 -32 -12 -16 -24 38 -109 143
-130 161 -18 16 -19 18 -4 13 10 -4 42 -7 71 -7z m-1147 -58 c36 -26 64 -80
71 -138 7 -61 -27 -127 -82 -159 -51 -30 -96 -31 -153 -5 -127 57 -119 257 12
317 41 18 116 11 152 -15z m1789 9 c73 -33 115 -123 94 -203 -16 -57 -33 -81
-79 -106 -82 -46 -184 -16 -228 67 -43 83 -20 174 59 231 48 35 93 39 154 11z
m-875 -278 c71 -77 74 -162 8 -238 -60 -67 -149 -69 -224 -4 -62 55 -71 144
-22 218 35 52 79 73 146 68 48 -3 58 -8 92 -44z"/>
<path d="M8409 9591 c-18 -14 -23 -31 -27 -77 -5 -77 5 -86 90 -82 61 3 63 4
68 33 9 47 -5 117 -26 132 -26 19 -78 16 -105 -6z m81 -55 c14 -39 2 -66 -31
-66 -32 0 -37 17 -19 64 12 33 38 33 50 2z"/>
<path d="M7522 9403 c-33 -7 -43 -35 -40 -116 3 -68 4 -72 27 -75 17 -3 31 4
43 20 17 22 19 22 32 5 14 -18 64 -21 59 -4 -2 4 -3 35 -3 70 0 35 -5 70 -12
79 -14 17 -69 28 -106 21z m65 -79 c6 -17 -18 -66 -36 -72 -12 -4 -15 46 -5
72 8 21 33 21 41 0z"/>
<path d="M9295 9376 c-12 -17 -15 -43 -13 -92 3 -64 5 -69 26 -72 14 -2 29 4
36 14 14 19 36 12 36 -12 0 -8 10 -14 25 -14 31 0 40 31 31 103 -10 77 -27 97
-81 97 -36 0 -48 -5 -60 -24z m91 -72 c5 -26 3 -39 -7 -45 -28 -18 -44 -5 -47
39 -3 39 -1 42 22 42 21 0 26 -6 32 -36z"/>
<path d="M8395 8828 c-42 -33 -57 -76 -38 -113 28 -55 53 -75 96 -75 57 0 97
43 97 103 0 60 -7 75 -41 92 -40 21 -82 19 -114 -7z m83 -44 c39 -27 17 -102
-26 -87 -40 14 -54 59 -26 87 19 20 24 20 52 0z"/>
<path d="M8210 8790 c-20 -12 -5 -25 44 -39 48 -13 58 -7 44 24 -8 19 -19 25
-42 25 -17 0 -38 -5 -46 -10z"/>
<path d="M9730 8743 c-8 -13 -13 -14 -16 -5 -3 6 -16 12 -28 12 -19 0 -23 -9
-34 -65 -14 -73 -15 -115 -4 -115 14 0 29 15 47 48 11 17 23 32 27 32 4 0 12
-18 18 -41 12 -42 36 -61 50 -39 5 7 4 25 -2 39 -5 14 -11 53 -12 86 -3 64
-23 84 -46 48z"/>
<path d="M7100 8230 c0 -30 -3 -72 -6 -92 -6 -34 -4 -38 15 -38 14 0 25 11 35
35 8 19 19 35 23 35 4 0 16 -19 26 -42 27 -66 39 -38 30 68 l-8 89 -57 0 -58
0 0 -55z m78 3 c-5 -23 -23 -20 -26 4 -3 18 0 21 13 17 9 -4 15 -13 13 -21z"/>
<path d="M7523 7663 c-36 -7 -46 -29 -44 -101 1 -37 5 -70 9 -74 4 -4 25 -2
46 4 28 9 42 9 56 0 14 -9 21 -7 35 8 15 16 17 32 12 85 -2 37 -7 69 -11 72
-7 7 -73 11 -103 6z m58 -53 c13 -7 19 -21 19 -44 0 -27 -4 -35 -23 -38 -37
-7 -47 2 -47 41 0 52 12 61 51 41z"/>
<path d="M9328 7664 c-20 -6 -25 -22 -32 -112 -5 -75 10 -90 49 -47 30 31 57
30 65 -4 7 -32 26 -37 39 -12 13 23 3 134 -13 157 -12 16 -77 27 -108 18z m62
-70 c13 -33 14 -31 -15 -36 -22 -5 -25 -2 -25 22 0 46 25 55 40 14z"/>
<path d="M8405 7416 c-13 -10 -20 -30 -23 -74 -4 -51 -1 -63 17 -81 25 -25 58
-27 106 -7 38 16 51 47 41 98 -12 58 -32 78 -79 78 -24 0 -52 -6 -62 -14z m95
-68 c19 -34 5 -63 -31 -63 -20 0 -25 6 -27 33 -2 19 -1 41 2 49 9 22 38 12 56
-19z"/>
<path d="M1364 9641 c-42 -26 -74 -68 -74 -100 -1 -70 -1 -71 -124 -72 -130
-1 -158 -7 -171 -36 -9 -21 -10 -22 -260 -16 -221 5 -254 4 -282 -11 -18 -9
-37 -24 -42 -35 -6 -11 -10 -489 -10 -1320 l0 -1301 24 -28 23 -27 969 -3
c964 -2 969 -2 991 18 l22 21 0 1314 c0 1310 0 1315 -20 1335 -36 36 -66 40
-293 40 -211 0 -223 1 -235 20 -9 16 -23 20 -61 20 -26 0 -82 3 -124 6 l-77 7
0 34 c0 45 -25 97 -62 128 -25 21 -40 25 -96 25 -48 0 -76 -5 -98 -19z m148
-69 c22 -19 38 -73 38 -129 l0 -42 138 -3 137 -3 -4 -95 c-2 -52 -8 -101 -13
-107 -8 -10 -93 -13 -362 -13 -193 0 -361 3 -373 6 -22 6 -23 11 -23 110 l0
104 144 0 c103 0 146 4 154 13 5 6 12 38 14 69 5 60 24 93 63 108 25 10 65 2
87 -18z m-679 -222 l147 0 0 -40 0 -40 -255 0 -255 0 0 40 0 39 58 4 c31 2 80
3 107 1 28 -2 116 -4 198 -4z m1517 -16 c6 -14 10 -34 10 -45 0 -18 -9 -19
-235 -19 -256 0 -241 -4 -229 59 l7 31 218 0 219 0 10 -26z m6 -137 c3 -2 6
-1754 5 -2199 l-1 -248 -922 0 c-508 0 -933 3 -945 6 l-23 6 0 1219 0 1219
243 0 c133 0 247 -4 252 -8 6 -4 15 -20 20 -37 l10 -30 429 -3 c288 -1 433 1
441 8 7 6 16 27 20 47 l6 36 232 -7 c127 -4 232 -8 233 -9z"/>
<path d="M1437 9503 c-12 -11 -8 -21 12 -26 30 -8 48 9 23 22 -24 13 -26 13
-35 4z"/>
<path d="M708 8933 c-41 -3 -58 -8 -58 -18 0 -7 9 -17 21 -20 11 -4 164 -4
340 0 238 6 319 11 319 20 0 20 -399 32 -622 18z"/>
<path d="M1368 8933 c-24 -6 -23 -20 3 -34 14 -7 49 -9 98 -5 42 3 94 5 116 3
93 -5 435 1 481 9 l49 8 -65 7 c-77 9 -657 19 -682 12z m89 -19 c-3 -3 -12 -4
-19 -1 -8 3 -5 6 6 6 11 1 17 -2 13 -5z"/>
<path d="M660 8795 l0 -25 748 0 c415 0 753 4 761 9 8 5 11 16 8 25 -6 15 -74
16 -762 16 l-755 -1 0 -24z"/>
<path d="M654 8669 c-2 -4 -1 -14 2 -23 6 -14 80 -16 755 -16 678 0 750 2 756
16 3 9 0 20 -7 24 -16 10 -1499 9 -1506 -1z"/>
<path d="M940 8450 c-8 -5 -28 -10 -44 -10 -74 0 -190 -93 -233 -187 -22 -48
-25 -65 -21 -128 12 -178 140 -299 319 -300 67 0 83 4 152 38 79 39 107 68
155 163 78 154 -20 355 -200 409 -70 20 -112 25 -128 15z m125 -86 c98 -38
160 -131 159 -239 0 -69 -16 -105 -71 -159 -55 -55 -105 -76 -187 -76 -86 0
-140 24 -195 86 -66 75 -78 181 -32 273 34 66 152 139 205 125 13 -3 27 -1 30
4 6 10 48 3 91 -14z"/>
<path d="M920 8302 c-20 -20 -41 -50 -47 -67 -17 -43 -43 -168 -43 -204 0 -27
3 -31 29 -31 16 0 34 7 41 15 16 19 30 10 30 -19 0 -32 26 -53 48 -39 12 7 17
25 17 57 1 41 -2 47 -20 45 -65 -5 -85 1 -85 24 0 12 9 28 19 34 16 10 22 8
37 -8 9 -10 23 -19 31 -19 7 0 13 -6 13 -12 1 -21 17 13 23 49 4 18 2 35 -4
38 -6 4 -7 29 -3 66 5 46 3 64 -10 84 -22 34 -35 32 -76 -13z m10 -72 c0 -5 7
-10 15 -10 8 0 15 -4 15 -10 0 -5 -4 -10 -10 -10 -5 0 -10 -8 -10 -17 0 -10
-5 -25 -10 -33 -8 -13 -11 -13 -26 2 -20 20 -12 88 11 88 8 0 15 -4 15 -10z"/>
<path d="M1030 8151 c0 -6 5 -13 10 -16 16 -10 12 -34 -10 -57 -27 -29 -25
-46 4 -54 24 -6 65 10 78 30 22 33 -19 106 -59 106 -13 0 -23 -4 -23 -9z"/>
<path d="M1771 8426 c-12 -19 -28 -57 -36 -84 l-15 -49 -60 -6 c-108 -9 -133
-45 -85 -122 13 -22 25 -46 25 -53 0 -7 -22 -48 -50 -91 -47 -74 -58 -109 -44
-145 5 -14 44 -16 330 -16 l324 0 10 26 c8 21 5 36 -16 77 -14 29 -34 61 -44
72 -9 11 -24 33 -33 50 -14 28 -13 33 14 86 16 31 27 63 24 71 -9 23 -44 38
-109 46 l-59 7 -15 45 c-15 45 -46 98 -67 112 -5 4 -24 8 -42 8 -25 0 -36 -7
-52 -34z m88 -62 c12 -15 26 -44 33 -65 18 -63 40 -79 97 -72 30 3 51 1 55 -6
8 -12 -28 -101 -40 -101 -13 0 -54 43 -54 57 0 19 -12 16 -50 -12 -29 -22 -87
-45 -112 -45 -5 0 -8 6 -8 13 0 25 -69 73 -70 50 0 -5 -4 -24 -9 -44 l-8 -36
56 1 c54 1 56 0 59 -27 2 -16 -4 -39 -13 -53 -19 -30 -5 -64 26 -64 13 0 23
-8 27 -22 6 -23 6 -23 13 2 4 14 7 40 8 58 1 30 -1 32 -19 22 -17 -9 -20 -8
-20 12 0 35 26 65 66 78 65 22 104 -6 104 -76 0 -24 14 -32 25 -14 11 17 53
-19 69 -61 9 -22 16 -41 16 -43 0 -1 -121 -3 -270 -4 -291 -2 -282 -3 -261 50
5 13 28 43 50 68 22 25 41 48 41 53 0 4 -11 35 -25 69 -14 34 -25 65 -25 70 0
4 26 8 58 8 31 0 62 4 69 8 6 4 24 40 39 80 14 39 32 72 39 72 8 0 23 -12 34
-26z"/>
<path d="M1805 8291 c-24 -48 -20 -61 19 -61 19 0 38 5 41 11 11 17 -4 58 -25
69 -16 9 -22 6 -35 -19z"/>
<path d="M1760 7653 c-72 -14 -139 -60 -192 -132 -55 -72 -71 -126 -66 -223 8
-182 108 -295 289 -329 151 -27 311 63 381 217 18 38 23 67 23 134 0 74 -4 92
-29 143 -33 65 -102 134 -166 167 -57 29 -162 39 -240 23z m43 -100 c4 -49 2
-52 -24 -64 -43 -17 -107 -92 -114 -133 -14 -74 13 -149 72 -193 30 -23 46
-28 88 -27 119 3 202 89 193 200 -7 79 -81 164 -145 164 -20 0 -21 3 -13 26 6
14 10 39 10 55 0 35 9 34 97 -8 64 -30 125 -109 143 -185 15 -60 7 -176 -15
-218 -23 -44 -102 -107 -157 -126 -105 -35 -251 5 -316 85 -44 55 -53 84 -55
176 -2 69 2 87 25 131 15 28 50 72 79 98 52 47 122 90 126 78 1 -4 3 -30 6
-59z m108 -152 c24 -25 29 -38 29 -78 0 -59 -16 -84 -70 -108 -40 -18 -43 -18
-75 -1 -38 21 -65 69 -65 116 0 24 9 41 36 66 48 46 102 47 145 5z"/>
<path d="M857 7646 c-87 -32 -165 -111 -202 -204 -13 -33 -16 -63 -13 -130 5
-105 38 -182 105 -249 67 -67 120 -87 233 -88 90 0 99 2 158 34 73 40 108 78
154 170 30 60 33 74 33 156 0 78 -4 97 -27 141 -30 57 -107 132 -165 160 -50
24 -221 31 -276 10z m86 -98 c4 -39 2 -58 -6 -58 -6 0 -30 -9 -53 -21 -58 -27
-88 -88 -82 -163 5 -64 31 -104 93 -143 44 -27 45 -29 45 -80 0 -28 -4 -54 -9
-57 -11 -7 -117 57 -142 86 -67 77 -95 214 -64 309 23 68 101 149 165 171 25
8 46 15 46 14 1 0 4 -27 7 -58z m141 31 c58 -21 111 -72 146 -139 25 -49 31
-107 14 -125 -9 -8 -10 -16 -4 -20 10 -6 5 -47 -12 -104 -16 -51 -74 -109
-149 -146 l-67 -34 -5 26 c-3 14 -2 43 0 64 5 33 12 43 53 68 87 54 113 115
85 200 -20 61 -81 121 -123 121 l-28 0 10 55 c6 30 14 55 18 55 4 0 32 -9 62
-21z m-54 -166 c39 -27 49 -45 50 -90 0 -77 -61 -122 -137 -101 -66 18 -98
122 -50 165 51 46 95 55 137 26z"/>
<path d="M3605 9646 c-79 -25 -170 -83 -280 -180 l-40 -35 29 -30 c69 -72 308
-210 341 -197 10 3 15 -19 20 -97 11 -164 20 -152 -115 -155 -63 -1 -121 -5
-127 -7 -9 -3 -13 -31 -13 -95 l0 -90 -238 0 -238 0 -37 45 c-38 45 -89 80
-101 68 -3 -4 -6 -15 -6 -25 0 -21 -46 -52 -112 -74 -65 -21 -63 -42 10 -95
31 -23 72 -55 89 -72 l32 -30 58 54 c32 30 60 57 61 61 2 5 114 8 249 8 219 0
245 -2 239 -16 -3 -9 -6 -44 -6 -79 l0 -63 -147 -4 c-190 -5 -199 -9 -208 -93
-4 -34 -5 -126 -3 -203 3 -137 2 -142 -17 -142 -35 0 -80 -36 -99 -78 -10 -22
-23 -39 -30 -36 -6 2 -33 0 -61 -5 -53 -8 -48 -12 37 -26 27 -4 42 -14 57 -38
58 -94 111 -100 180 -19 46 54 49 71 21 137 -19 43 -20 66 -18 239 l3 191 135
12 135 12 18 -25 c18 -23 23 -24 138 -24 l119 0 -2 -276 -3 -277 -60 -17 c-33
-9 -76 -24 -95 -34 -44 -23 -250 -177 -250 -187 0 -7 24 -26 153 -123 29 -21
81 -52 116 -69 114 -54 276 -48 378 16 80 49 222 160 222 174 1 15 -117 111
-195 158 -32 20 -92 46 -131 58 l-73 21 0 278 0 278 131 0 c125 0 131 1 136
21 6 21 10 21 87 15 45 -3 109 -6 144 -6 l62 0 0 -164 c0 -91 5 -177 10 -192
9 -23 7 -31 -13 -53 -14 -14 -32 -48 -41 -75 l-16 -49 49 -49 c28 -28 57 -48
70 -48 36 0 77 27 116 75 21 25 44 45 51 45 8 0 14 5 14 10 0 6 -9 10 -19 10
-12 0 -29 16 -45 44 -17 30 -40 51 -69 65 l-44 21 -6 193 c-9 243 6 227 -197
227 l-147 0 -7 61 c-3 34 -6 74 -6 88 l0 26 280 0 280 0 0 -47 c0 -60 7 -78
32 -78 29 0 55 16 145 91 l82 69 100 0 c79 0 101 -3 101 -14 0 -19 49 -66 69
-66 14 0 16 -17 13 -141 -2 -78 1 -146 5 -150 12 -12 136 -22 177 -15 62 12
45 34 -33 42 -38 3 -75 10 -82 15 -10 6 -15 43 -19 131 -4 110 -3 126 14 150
11 15 21 51 24 81 4 46 1 57 -23 85 l-27 32 11 119 c6 66 11 124 11 130 0 7
27 8 78 4 74 -5 79 -4 84 15 9 34 -11 42 -103 42 -117 0 -119 -1 -119 -65 0
-28 -3 -99 -6 -157 l-7 -106 -31 -9 c-24 -7 -32 -16 -36 -38 l-5 -30 -110 -5
c-105 -5 -111 -4 -140 19 -48 39 -127 71 -172 71 -47 0 -46 2 -43 -72 l1 -48
-276 0 -276 0 7 83 c9 115 7 117 -147 117 l-119 0 0 68 c0 37 -3 90 -6 117
l-6 50 64 18 c35 10 87 30 115 45 76 39 223 149 223 167 0 8 -32 41 -72 74
-160 132 -328 187 -453 147z m215 -69 c51 -21 141 -78 200 -127 l25 -20 -40
-36 c-22 -20 -87 -59 -144 -87 -133 -65 -176 -67 -283 -12 -73 37 -155 92
-178 120 -17 21 5 45 94 103 132 86 221 102 326 59z m116 -704 c-3 -8 -6 -92
-6 -187 l0 -173 -142 -6 c-79 -3 -178 -3 -222 0 l-79 6 4 181 4 181 25 7 c14
3 114 6 223 6 170 0 197 -2 193 -15z m1202 -55 c18 -18 14 -62 -8 -86 -12 -12
-24 -22 -28 -22 -18 0 -32 26 -32 60 0 39 14 60 40 60 9 0 21 -5 28 -12z
m-408 -68 c-1 -3 -25 -22 -55 -43 l-55 -38 0 70 0 71 55 -27 c30 -15 55 -30
55 -33z m-1860 -18 c0 -19 -29 -52 -46 -52 -7 0 -30 11 -50 25 -34 23 -35 25
-12 25 13 0 35 11 48 25 22 23 25 24 42 8 10 -9 18 -23 18 -31z m215 -712 c20
-39 8 -90 -25 -107 -21 -10 -28 -9 -47 9 -33 30 -31 80 3 107 36 28 51 26 69
-9z m1323 3 c34 -30 36 -57 6 -92 -31 -37 -40 -38 -71 -9 -29 27 -29 65 -1 95
26 28 39 29 66 6z m-558 -238 c61 -30 190 -122 190 -135 0 -11 -155 -123 -210
-152 -60 -31 -164 -31 -233 0 -73 33 -217 134 -217 153 0 14 126 102 195 136
65 32 76 34 145 30 57 -3 88 -11 130 -32z"/>
<path d="M3660 9573 c-28 -10 -80 -67 -90 -99 -28 -83 46 -184 135 -184 83 0
164 90 151 168 -13 80 -119 143 -196 115z m130 -120 c0 -32 -26 -80 -49 -93
-32 -17 -56 -12 -85 19 -24 25 -27 35 -22 65 8 41 30 56 81 56 26 0 34 3 29
13 -4 6 5 1 19 -12 15 -14 27 -35 27 -48z"/>
<path d="M3750 9491 c0 -6 4 -13 10 -16 6 -3 7 1 4 9 -7 18 -14 21 -14 7z"/>
<path d="M3635 8810 c-37 -14 -47 -38 -48 -106 -1 -60 2 -69 26 -90 34 -29
117 -40 172 -22 43 14 52 32 54 116 1 56 -12 80 -54 98 -37 15 -118 18 -150 4z
m118 -68 c32 -28 10 -112 -30 -112 -30 0 -73 40 -73 69 0 62 54 85 103 43z"/>
<path d="M3655 7786 c-111 -49 -114 -190 -6 -263 69 -46 150 -20 187 61 30 64
30 94 1 136 -41 62 -125 92 -182 66z m86 -68 c22 -12 42 -32 45 -45 13 -52
-42 -122 -85 -108 -30 9 -61 53 -61 86 0 24 42 89 57 89 3 0 23 -10 44 -22z"/>
<path d="M5627 9639 c-19 -11 -53 -73 -58 -104 -6 -41 12 -85 42 -102 38 -23
46 -54 26 -104 -15 -38 -15 -40 9 -64 13 -13 24 -30 24 -37 0 -7 9 1 19 19 11
17 29 34 41 38 22 7 22 7 2 28 -11 12 -23 41 -27 64 -6 40 -5 44 19 53 28 10
66 64 66 93 0 80 -101 152 -163 116z m75 -66 c36 -42 33 -88 -8 -96 -34 -6
-57 15 -57 51 0 54 35 79 65 45z"/>
<path d="M6209 9531 c-35 -34 -39 -44 -39 -87 0 -59 26 -106 70 -129 28 -14
33 -14 65 1 49 23 84 61 91 100 9 48 -1 77 -40 118 -48 51 -94 50 -147 -3z
m119 -85 c4 -44 -11 -66 -44 -66 -25 0 -54 34 -54 63 0 10 11 29 25 43 24 24
28 25 48 11 15 -9 23 -27 25 -51z"/>
<path d="M4957 9539 c-35 -27 -57 -69 -57 -110 0 -24 11 -42 45 -77 40 -39 48
-44 77 -38 49 10 78 34 100 82 25 57 17 94 -28 134 -42 37 -95 40 -137 9z m95
-56 c37 -43 28 -98 -18 -109 -21 -5 -31 -2 -45 17 -47 61 13 149 63 92z"/>
<path d="M7993 9440 c-50 -20 -57 -87 -14 -131 39 -38 79 -38 120 0 42 39 42
80 0 115 -31 27 -66 32 -106 16z m77 -71 c0 -24 -29 -37 -40 -18 -12 18 7 50
25 43 8 -4 15 -15 15 -25z"/>
<path d="M8825 9415 c-32 -31 -31 -56 1 -94 30 -36 50 -38 104 -11 43 22 57
49 40 79 -29 54 -104 68 -145 26z m85 -51 c0 -17 -6 -24 -20 -24 -22 0 -35 22
-27 44 9 24 47 7 47 -20z"/>
<path d="M4315 9386 c-11 -8 -16 -19 -12 -30 7 -17 47 -37 60 -29 11 7 8 48
-5 61 -15 15 -20 15 -43 -2z"/>
<path d="M6654 9377 c-3 -13 -4 -41 -2 -62 3 -33 7 -40 31 -46 34 -9 45 8 26
42 -9 17 -9 24 0 27 17 6 13 49 -5 56 -29 11 -44 6 -50 -17z"/>
<path d="M6774 9376 c-3 -14 -2 -31 2 -38 5 -7 7 -21 6 -30 -5 -29 23 -11 45
30 25 45 20 62 -18 62 -22 0 -30 -6 -35 -24z"/>
<path d="M6910 9360 c0 -16 5 -30 11 -30 8 0 8 -4 0 -13 -8 -10 -7 -19 3 -33
14 -18 15 -18 21 -1 4 9 5 23 2 31 -3 8 1 17 9 20 8 3 14 17 14 31 0 21 -5 25
-30 25 -27 0 -30 -3 -30 -30z"/>
<path d="M3026 9364 c-11 -28 -6 -71 9 -84 13 -10 19 -10 35 5 26 24 25 38 -4
69 -27 30 -32 31 -40 10z"/>
<path d="M4423 9345 c-12 -37 1 -60 18 -34 7 12 9 12 9 0 0 -11 5 -10 20 4 24
22 26 51 4 59 -30 12 -41 6 -51 -29z"/>
<path d="M2892 9358 c-19 -19 -15 -66 6 -77 14 -7 25 -6 40 5 36 25 23 84 -18
84 -9 0 -21 -5 -28 -12z"/>
<path d="M5435 9280 c28 -12 78 -12 70 0 -3 6 -25 10 -48 9 -33 0 -38 -2 -22
-9z"/>
<path d="M6200 9054 c0 -124 -4 -174 -15 -201 -21 -49 -19 -115 3 -144 17 -22
18 -45 16 -262 -1 -131 -4 -240 -7 -243 -3 -3 -70 -2 -149 3 -79 5 -149 7
-156 5 -7 -3 -12 -14 -10 -26 3 -20 9 -21 158 -26 l155 -5 3 -34 c3 -43 34
-86 71 -99 25 -9 34 -7 63 14 48 35 58 53 58 98 0 78 -47 135 -111 136 -17 0
-28 6 -31 18 -3 10 -3 98 0 196 l5 178 34 14 c18 8 43 26 55 39 20 24 27 25
125 25 l103 0 0 -59 c0 -69 6 -91 27 -91 14 0 139 87 206 143 l29 24 -44 36
c-45 37 -173 106 -195 107 -9 0 -13 -17 -13 -50 l0 -50 -108 0 -108 0 -15 33
c-12 26 -20 33 -50 35 l-36 3 -7 162 c-6 158 -11 179 -41 183 -13 2 -15 -21
-15 -162z m71 -234 c22 -12 27 -68 7 -88 -43 -43 -93 34 -51 80 19 21 19 21
44 8z m416 -32 c18 -13 33 -26 33 -30 0 -8 -72 -68 -82 -68 -9 0 -10 65 -2 98
4 12 9 22 12 22 3 0 21 -10 39 -22z m-356 -612 c14 -29 1 -75 -25 -90 -14 -9
-22 -6 -42 17 -13 15 -24 37 -24 47 0 48 72 69 91 26z"/>
<path d="M5607 9179 c-76 -22 -129 -52 -195 -112 -93 -87 -127 -178 -120 -321
6 -102 20 -138 86 -222 47 -58 104 -92 218 -129 l82 -26 -10 -42 c-21 -98 -32
-124 -64 -160 -27 -29 -34 -45 -34 -78 0 -37 6 -48 49 -91 56 -56 60 -56 125
11 50 51 50 79 3 157 -35 57 -56 122 -57 175 0 22 7 28 43 38 141 42 254 130
305 239 24 51 27 68 26 162 -1 144 -21 195 -112 282 -86 83 -131 107 -252 131
-14 3 -55 -3 -93 -14z m194 -76 c25 -11 73 -47 106 -79 74 -73 97 -132 97
-249 0 -140 -67 -242 -196 -303 -114 -54 -196 -49 -300 17 -133 84 -193 282
-130 424 35 78 136 176 211 204 49 18 155 11 212 -14z m-95 -979 c20 -29 11
-70 -19 -88 -15 -9 -22 -7 -38 13 -22 27 -24 53 -7 81 17 27 44 25 64 -6z"/>
<path d="M5612 9027 c-50 -16 -118 -81 -148 -143 -22 -46 -26 -63 -21 -109 3
-29 14 -74 25 -99 23 -51 93 -131 133 -152 101 -52 284 48 319 174 57 206
-115 391 -308 329z m170 -62 c61 -40 91 -89 96 -155 7 -98 -29 -165 -124 -231
-83 -57 -86 -57 -158 14 -48 47 -67 75 -81 116 -37 113 1 209 105 264 63 33
102 31 162 -8z"/>
<path d="M3175 9103 c-70 -13 -65 -3 -65 -118 l0 -105 33 0 33 0 -4 85 -5 85
159 1 c88 1 170 4 184 8 l25 7 -35 19 c-29 15 -60 19 -170 20 -74 1 -144 0
-155 -2z"/>
<path d="M4045 9100 c-128 -7 -165 -14 -165 -31 0 -5 1 -10 3 -11 1 -1 85 -4
187 -7 l185 -6 3 -77 c3 -76 3 -78 28 -78 l26 0 -4 95 c-1 52 -8 99 -14 105
-16 16 -97 19 -249 10z"/>
<path d="M7181 8805 c-19 -67 -14 -148 10 -179 20 -26 25 -27 100 -25 44 1 82
-1 86 -5 3 -3 59 -6 123 -6 94 0 120 3 130 15 26 31 -4 40 -134 40 -119 1
-124 1 -146 26 l-23 25 -23 -23 c-27 -27 -75 -31 -95 -7 -11 13 -11 20 2 42
18 32 41 39 62 17 41 -41 50 5 12 64 -26 42 -62 62 -75 41 -6 -9 -9 -9 -12 1
-3 8 -10 -4 -17 -26z m104 -53 c-7 -8 -35 7 -35 18 0 6 7 6 20 -2 10 -7 17
-14 15 -16z"/>
<path d="M3417 8314 c-4 -4 -7 -39 -7 -78 0 -119 2 -116 -99 -116 -93 0 -125
-10 -103 -32 8 -8 51 -15 105 -19 51 -3 99 -9 108 -13 25 -11 52 22 44 53 -4
14 -10 66 -13 115 -6 82 -17 108 -35 90z"/>
<path d="M3966 8192 c0 -70 1 -133 2 -139 3 -18 41 -16 48 2 5 12 25 15 93 15
64 0 93 4 110 16 37 26 8 35 -99 32 l-95 -3 -3 80 c-3 108 -8 125 -35 125 -22
0 -22 -2 -21 -128z"/>
<path d="M4995 8261 c-43 -26 -61 -50 -74 -95 -19 -70 31 -136 103 -136 33 0
82 43 97 84 12 33 12 33 93 40 45 3 110 6 146 6 83 0 112 8 108 29 -3 14 -22
16 -165 12 l-162 -3 -39 41 c-43 46 -63 50 -107 22z m57 -68 c31 -28 17 -103
-19 -103 -23 0 -53 29 -53 52 0 23 28 68 43 68 6 0 19 -7 29 -17z"/>
<path d="M9468 8232 c-16 -2 -28 -8 -28 -14 0 -12 148 -4 162 10 8 8 -82 11
-134 4z"/>
<path d="M9637 8227 c-3 -7 4 -19 15 -26 17 -11 23 -10 35 2 9 8 12 20 9 26
-10 15 -53 14 -59 -2z"/>
<path d="M9643 8054 c-11 -30 10 -69 39 -72 33 -4 78 36 78 68 0 18 -6 20 -55
20 -42 0 -57 -4 -62 -16z"/>
<path d="M5175 7693 l-90 -4 3 -142 c2 -78 5 -143 6 -144 1 -1 43 1 94 4 78 5
92 9 90 22 -3 13 -19 17 -76 19 l-73 3 3 37 3 37 58 3 c49 3 57 6 57 22 0 18
-7 20 -65 20 l-65 0 0 40 0 40 75 0 c73 0 75 1 75 25 0 14 -1 24 -2 23 -2 -1
-43 -4 -93 -5z"/>
<path d="M5406 7688 c-16 -56 -53 -151 -72 -190 -13 -26 -24 -56 -24 -68 0
-32 28 -23 44 15 14 33 18 35 60 35 24 0 50 2 58 5 8 3 19 -10 30 -35 17 -40
48 -55 48 -22 -1 34 -107 267 -124 270 -9 2 -18 -2 -20 -10z m62 -162 c-1 -2
-22 -6 -44 -9 l-42 -5 22 60 21 59 23 -51 c13 -28 22 -53 20 -54z"/>
<path d="M6010 7593 l0 -108 -21 35 c-34 55 -133 170 -147 170 -10 0 -11 -28
-7 -129 5 -139 10 -161 31 -161 11 0 14 20 14 88 l1 87 27 -31 c15 -17 46 -57
69 -88 53 -69 69 -71 79 -9 9 64 -4 235 -19 245 -24 16 -27 6 -27 -99z"/>
<path d="M6527 7661 c-41 -39 -42 -41 -42 -103 0 -77 18 -109 75 -138 44 -23
87 -25 125 -8 30 13 38 37 33 99 l-3 44 -50 0 c-38 0 -50 -4 -53 -16 -2 -12 7
-18 32 -23 29 -6 36 -12 36 -29 0 -52 -53 -62 -113 -22 -20 14 -40 37 -43 50
-22 90 73 189 130 136 22 -21 66 -29 66 -12 0 5 -14 21 -31 35 -23 19 -42 26
-75 26 -38 0 -51 -6 -87 -39z"/>
<path d="M4864 7674 c3 -9 6 -74 6 -145 l0 -130 92 3 c79 3 93 6 96 21 3 14
-4 17 -41 17 -24 0 -59 3 -76 6 l-31 7 0 102 c0 118 -4 135 -32 135 -14 0 -18
-5 -14 -16z"/>
<path d="M5592 7548 c3 -118 6 -143 18 -143 10 0 16 14 18 50 2 28 7 54 12 58
16 17 45 -3 79 -53 31 -45 65 -70 78 -57 2 3 -12 29 -32 58 l-36 53 30 24 c35
27 41 65 16 111 -18 36 -31 41 -116 41 l-70 0 3 -142z m150 85 c40 -36 9 -73
-63 -73 l-49 0 0 45 0 45 47 0 c29 0 53 -6 65 -17z"/>
<path d="M6115 7661 c-3 -16 -5 -79 -3 -140 3 -98 5 -111 21 -111 15 0 17 13
17 140 0 114 -3 140 -14 140 -8 0 -17 -13 -21 -29z"/>
<path d="M6220 7556 c0 -103 3 -136 14 -145 14 -12 18 7 29 147 l2 33 58 -74
c31 -40 68 -84 81 -96 l24 -23 7 32 c4 17 4 83 0 146 -6 96 -10 114 -24 114
-14 0 -15 -12 -11 -102 3 -57 5 -104 4 -106 0 -1 -17 22 -38 53 -33 50 -129
155 -141 155 -3 0 -5 -60 -5 -134z"/>
<path d="M2873 7600 c-39 -23 -51 -46 -59 -104 -6 -42 -4 -48 29 -81 29 -29
42 -35 76 -35 61 0 102 40 108 107 5 49 4 52 -36 92 -46 46 -70 50 -118 21z
m81 -56 c30 -29 18 -104 -17 -104 -53 0 -78 74 -35 104 28 20 33 20 52 0z"/>
<path d="M6983 7598 c-24 -5 -43 -14 -43 -19 0 -17 43 -27 90 -20 37 5 46 10
48 29 3 18 -1 22 -25 21 -15 -1 -47 -5 -70 -11z"/>
<path d="M7970 7558 c-50 -68 -31 -148 34 -148 36 0 92 57 100 104 9 50 -20
86 -71 86 -27 0 -38 -7 -63 -42z m80 -47 c14 -27 2 -51 -25 -51 -29 0 -48 24
-40 50 8 26 51 27 65 1z"/>
<path d="M8857 7444 c-34 -33 -36 -77 -5 -98 28 -20 51 -20 88 -1 39 20 49 59
23 93 -28 38 -72 41 -106 6z m74 -57 c-15 -39 -47 -36 -54 6 -7 44 19 66 46
39 14 -15 16 -24 8 -45z"/>
<path d="M6915 7219 c-8 -25 8 -39 46 -39 29 0 49 17 49 42 0 15 -8 18 -44 18
-37 0 -46 -4 -51 -21z"/>
<path d="M7072 7213 c3 -25 7 -28 38 -28 31 0 35 3 35 25 0 22 -5 25 -38 28
-37 3 -38 2 -35 -25z"/>
<path d="M2885 7223 c-49 -12 -70 -53 -49 -101 26 -64 104 -74 149 -20 40 47
28 89 -30 114 -36 15 -37 15 -70 7z m65 -39 c16 -19 4 -62 -23 -78 -15 -9 -21
-7 -33 8 -14 20 -19 68 -7 79 12 13 50 7 63 -9z"/>
<path d="M3540 7177 c0 -42 -2 -45 -41 -63 -42 -18 -131 -114 -143 -152 -6
-18 -19 -20 -109 -24 -84 -3 -112 -8 -159 -30 -79 -37 -143 -106 -192 -208
l-41 -85 -3 -642 c-2 -529 -5 -643 -16 -643 -7 0 -25 -9 -40 -21 -24 -19 -26
-26 -26 -95 0 -66 3 -78 25 -99 13 -14 31 -25 40 -25 13 0 15 -73 15 -673 0
-722 0 -724 52 -834 28 -60 120 -152 178 -180 91 -42 132 -45 680 -48 598 -4
686 1 769 42 91 45 225 220 219 285 l-3 33 -28 -30 c-15 -16 -55 -68 -90 -115
-82 -112 -127 -145 -214 -159 -46 -7 -253 -8 -638 -3 -559 8 -571 8 -627 30
-102 41 -163 105 -210 220 l-23 57 -3 681 -3 680 37 25 c21 13 51 41 67 61 27
34 29 41 19 64 -18 38 -73 104 -88 104 -32 0 -34 42 -34 617 0 613 4 662 49
751 66 130 191 195 337 177 50 -6 52 -8 98 -74 43 -63 107 -121 133 -121 11 0
23 -45 23 -86 0 -19 5 -24 25 -24 20 0 25 5 25 24 0 59 11 82 46 95 25 9 56
39 106 102 71 89 72 89 117 89 25 0 82 3 127 6 l81 7 40 -37 c33 -29 48 -36
82 -36 55 0 110 29 156 82 33 39 36 47 30 83 -3 22 -15 60 -27 84 -17 34 -31
48 -72 67 -63 30 -88 30 -137 2 -45 -25 -75 -79 -85 -150 -8 -55 -7 -55 -155
-50 l-97 3 -26 50 c-29 52 -64 83 -133 118 -38 19 -42 25 -45 63 -3 40 -5 43
-35 46 -33 3 -33 3 -33 -41z m728 -102 c36 -30 56 -76 48 -110 -10 -40 -64
-95 -94 -95 -36 0 -102 71 -102 111 0 34 33 105 52 112 31 12 68 5 96 -18z
m-623 -24 c56 -38 105 -105 105 -144 0 -38 -25 -81 -74 -130 -37 -37 -87 -54
-129 -43 -47 11 -104 64 -132 120 l-28 56 27 39 c45 64 98 122 120 131 29 12
65 2 111 -29z m-711 -1800 c37 -39 30 -75 -19 -98 -58 -28 -93 -1 -86 67 2 18
47 60 65 60 7 0 25 -13 40 -29z"/>
<path d="M4186 7014 c-22 -21 -20 -41 4 -54 43 -23 80 11 54 49 -18 25 -37 27
-58 5z"/>
<path d="M3523 6929 c-20 -21 -15 -36 20 -63 44 -34 58 -33 100 6 l35 32 -37
14 c-53 21 -104 25 -118 11z"/>
<path d="M4757 7083 c-15 -14 -6 -41 16 -47 40 -10 47 -7 47 24 0 26 -4 30
-28 30 -16 0 -32 -3 -35 -7z"/>
<path d="M5008 6992 c-16 -2 -28 -7 -28 -11 0 -13 281 -24 310 -13 21 8 16 11
-40 16 -82 8 -206 12 -242 8z"/>
<path d="M5532 6983 c-15 -6 39 -51 112 -92 104 -59 100 -59 845 -64 l684 -6
52 -26 c64 -31 126 -89 157 -147 l23 -43 3 -637 c3 -632 2 -637 -18 -643 -29
-9 -67 -64 -75 -106 -6 -33 -3 -41 30 -78 21 -23 44 -41 51 -41 13 0 14 -100
12 -687 l-3 -688 -24 -45 c-34 -66 -102 -126 -192 -168 -43 -20 -79 -40 -79
-44 0 -15 64 -8 105 12 38 18 117 82 172 139 12 13 35 49 50 80 l28 56 3 664
3 664 45 40 c24 21 52 53 60 69 14 27 14 32 -2 56 -25 41 -66 82 -81 82 -7 0
-14 1 -15 3 -1 1 -5 290 -8 642 l-5 640 -23 47 c-28 58 -94 133 -141 162 -92
57 -62 55 -818 60 -751 5 -732 4 -823 58 -19 11 -46 24 -60 28 -14 4 -32 10
-40 13 -8 3 -21 3 -28 0z m1952 -1724 c31 -25 34 -61 6 -89 -26 -26 -51 -25
-84 1 -37 29 -34 64 7 89 40 25 39 25 71 -1z"/>
<path d="M9498 6970 c-81 -25 -120 -72 -133 -161 -9 -62 22 -135 71 -169 47
-31 131 -34 187 -6 41 20 82 72 96 124 12 40 -4 108 -34 148 -41 53 -128 83
-187 64z m127 -85 c62 -65 54 -152 -18 -195 -42 -26 -83 -25 -123 2 -110 76
-70 228 60 228 43 0 53 -4 81 -35z"/>
<path d="M9556 6855 c-3 -8 -1 -17 4 -20 6 -4 10 -14 10 -23 0 -15 -2 -15 -10
-2 -6 10 -10 11 -10 3 0 -7 -4 -13 -10 -13 -5 0 -10 14 -10 30 0 34 -18 39
-43 12 -22 -25 -21 -75 1 -95 39 -36 122 -10 122 38 0 50 -41 103 -54 70z"/>
<path d="M7880 6928 c-38 -14 -59 -38 -66 -75 -11 -61 28 -103 97 -103 83 0
128 107 66 158 -24 21 -70 30 -97 20z m68 -65 c13 -24 -2 -60 -29 -68 -31 -10
-64 25 -55 59 5 22 12 26 41 26 22 0 37 -6 43 -17z"/>
<path d="M7640 6909 c0 -24 23 -21 28 4 2 10 -3 17 -12 17 -10 0 -16 -9 -16
-21z"/>
<path d="M9016 6877 c-25 -18 -16 -50 17 -61 34 -12 61 1 65 34 6 38 -45 54
-82 27z"/>
<path d="M8254 6866 c-3 -8 -4 -27 -2 -43 2 -21 9 -29 26 -31 28 -4 62 23 62
49 0 33 -75 55 -86 25z"/>
<path d="M8595 6841 c-8 -27 3 -61 19 -61 20 0 48 36 44 57 -5 27 -54 30 -63
4z"/>
<path d="M4596 6628 c-39 -10 -90 -30 -115 -44 -76 -41 -179 -123 -229 -182
-107 -126 -88 -114 -193 -123 -185 -16 -318 -99 -397 -247 -35 -66 -61 -169
-62 -242 l0 -45 -59 -27 c-72 -34 -167 -132 -205 -212 -40 -84 -59 -179 -53
-266 3 -41 10 -86 16 -100 8 -17 9 -47 4 -95 -5 -39 -5 -97 -1 -130 16 -129
136 -299 255 -362 101 -54 168 -66 328 -59 77 3 156 9 177 12 l36 6 12 -59
c31 -153 166 -324 310 -395 116 -57 185 -72 335 -72 72 -1 146 2 165 6 53 11
174 49 186 59 7 6 22 -6 44 -32 18 -23 105 -118 194 -213 88 -94 176 -189 195
-211 l34 -39 -6 -92 c-3 -61 -2 -95 6 -103 6 -6 36 -11 66 -11 l56 0 1 -209
c0 -206 1 -209 28 -264 31 -65 71 -102 124 -117 21 -6 155 -10 315 -10 l278 0
-7 -50 c-6 -46 -5 -50 14 -50 28 0 150 105 158 136 4 13 1 31 -6 39 -14 17
-127 75 -146 75 -8 0 -14 -16 -16 -42 l-3 -43 -270 -3 c-303 -3 -328 1 -391
64 l-34 35 0 202 c0 111 3 212 6 225 5 18 13 22 49 22 78 0 75 -7 75 176 l0
164 114 0 c88 0 130 5 182 21 156 48 279 132 357 242 85 119 118 228 123 396
l4 115 51 13 c81 21 163 70 227 137 107 111 155 241 151 406 -1 52 2 129 6
170 21 206 -65 387 -238 500 -89 58 -87 55 -87 118 0 182 -100 330 -279 415
-70 33 -99 41 -175 47 -84 7 -92 9 -111 35 -44 61 -135 164 -173 194 -56 44
-185 106 -262 126 -93 24 -250 16 -342 -18 -81 -29 -172 -97 -207 -152 l-25
-41 -41 51 c-53 64 -124 118 -194 146 -78 31 -256 35 -355 7z m297 -67 c37
-10 86 -31 109 -47 50 -35 146 -159 149 -194 1 -14 1 -297 1 -628 l-2 -604
-47 6 c-27 3 -78 8 -114 12 l-65 6 -31 51 c-34 57 -58 133 -67 213 -4 28 -18
84 -31 125 -30 86 -31 130 -6 184 22 49 101 121 142 130 22 5 29 12 29 30 0
14 -8 29 -19 34 -74 40 -226 -124 -239 -258 -2 -29 4 -76 17 -126 12 -44 28
-114 35 -156 14 -72 61 -184 92 -220 12 -14 1 -17 -114 -27 -188 -18 -255 -39
-372 -117 -129 -86 -227 -215 -251 -331 l-12 -60 -82 -12 c-192 -28 -333 -11
-431 51 -60 37 -139 130 -176 205 -32 65 -33 71 -34 197 -1 71 -6 146 -13 165
-15 48 -14 111 5 183 23 90 60 155 123 217 50 48 82 68 167 100 20 8 22 18 26
112 3 74 11 119 27 160 27 70 101 154 168 190 71 39 192 70 259 66 53 -3 58
-1 78 26 194 271 437 384 679 317z m905 -15 c166 -61 288 -166 355 -303 l20
-42 102 0 c77 0 114 -4 153 -19 105 -40 199 -136 238 -242 9 -26 18 -85 19
-138 2 -52 9 -99 15 -107 6 -7 24 -15 41 -19 65 -13 164 -101 222 -199 46 -76
62 -163 52 -276 -5 -47 -9 -138 -9 -201 -1 -111 -2 -118 -38 -193 -52 -109
-137 -192 -235 -231 -71 -29 -75 -29 -212 -23 -146 6 -181 3 -181 -18 0 -23
26 -34 121 -51 52 -9 96 -18 98 -20 7 -7 -31 -34 -79 -55 -62 -28 -247 -58
-430 -69 -225 -15 -294 -25 -395 -60 -134 -47 -272 -86 -372 -105 -48 -10
-140 -37 -204 -61 -64 -24 -150 -49 -190 -55 -88 -14 -239 -5 -319 17 -193 56
-337 199 -385 384 -58 223 134 472 416 540 99 23 337 36 479 26 l95 -7 -8
-147 c-12 -213 -11 -209 -55 -222 -20 -5 -63 -10 -96 -10 -54 0 -62 3 -100 37
-22 21 -40 40 -38 42 8 13 -17 10 -30 -3 -8 -8 -36 -24 -62 -36 -61 -29 -96
-72 -96 -116 0 -41 -15 -74 -34 -74 -8 0 -28 -16 -46 -37 -29 -32 -32 -41 -27
-81 6 -57 35 -94 80 -105 50 -12 104 15 130 65 23 47 16 87 -24 133 -28 31
-29 37 -20 73 18 66 37 75 133 68 46 -3 127 -9 180 -12 l98 -6 4 -32 c3 -17 7
-93 10 -168 2 -75 8 -143 13 -150 9 -14 17 133 28 538 l8 251 86 7 c130 9 500
-48 584 -90 35 -18 158 -109 194 -143 22 -21 44 -27 55 -15 10 9 -80 130 -128
173 -24 21 -64 48 -88 60 -56 26 -208 56 -361 72 l-120 13 53 55 c69 72 81 96
97 194 7 45 26 116 40 157 32 88 31 160 -4 229 -28 53 -88 112 -140 136 -38
17 -42 17 -66 1 -14 -9 -25 -21 -25 -26 0 -5 21 -21 48 -36 73 -42 110 -82
129 -140 18 -57 15 -72 -31 -199 -16 -44 -26 -91 -26 -128 0 -69 -28 -134 -75
-176 -41 -36 -133 -71 -185 -71 l-40 0 0 615 c0 600 1 617 20 656 44 85 117
149 214 186 86 33 238 28 344 -11z m-1068 -2137 c27 -49 -23 -108 -61 -73 -23
21 -24 42 -3 72 19 28 50 28 64 1z m1840 -83 c0 -199 -120 -396 -297 -489
-108 -56 -217 -81 -326 -72 -105 8 -213 36 -281 73 -68 37 -197 161 -227 217
l-24 46 27 23 c14 13 50 29 80 36 29 7 100 28 158 47 93 31 127 36 290 48 267
20 476 63 554 114 17 11 33 18 38 15 4 -3 8 -29 8 -58z m-1202 -294 c78 -131
252 -272 374 -302 26 -7 52 -17 57 -24 5 -6 7 -70 4 -148 l-6 -138 -83 0 -84
0 0 96 0 96 -142 147 c-78 80 -178 183 -222 228 -44 45 -77 85 -73 89 3 4 22
8 41 11 20 2 46 7 58 12 13 5 26 7 29 5 4 -2 25 -35 47 -72z"/>
<path d="M4646 6364 c-9 -8 -16 -19 -16 -23 0 -5 25 -30 55 -56 66 -56 115
-124 115 -160 0 -27 -33 -99 -50 -110 -15 -9 -12 -25 5 -25 28 0 82 33 99 60
26 46 21 118 -13 172 -55 86 -132 158 -170 158 -5 0 -17 -7 -25 -16z"/>
<path d="M4441 6081 c-41 -41 -20 -106 31 -99 31 4 68 71 52 95 -16 26 -59 28
-83 4z"/>
<path d="M4066 6074 c-12 -11 -16 -35 -16 -87 0 -150 94 -257 225 -257 32 0
47 -5 51 -15 4 -8 -5 -52 -19 -98 -14 -45 -30 -106 -37 -135 -14 -60 -29 -72
-93 -72 -137 0 -267 104 -267 214 0 29 -4 37 -24 42 -36 9 -46 -2 -46 -50 0
-56 40 -134 94 -184 54 -50 149 -82 242 -82 53 0 66 -3 70 -17 27 -90 81 -133
166 -133 74 0 88 6 88 40 0 27 -1 27 -72 32 -65 5 -75 9 -100 37 -30 34 -34
55 -17 98 24 60 79 280 79 315 0 51 -21 68 -84 68 -71 0 -140 43 -166 103 -25
59 -34 121 -20 147 21 39 -22 67 -54 34z"/>
<path d="M3615 5196 c-20 -31 -23 -180 -4 -249 14 -53 91 -131 139 -140 128
-26 228 32 291 168 24 52 26 160 3 169 -39 15 -65 -11 -57 -58 3 -19 0 -50 -6
-69 -25 -75 -115 -157 -172 -157 -37 0 -90 39 -117 85 -21 36 -23 50 -20 144
3 97 2 104 -19 118 -20 13 -23 12 -38 -11z"/>
<path d="M5622 6340 c-23 -16 -53 -47 -67 -68 -47 -72 -81 -201 -56 -216 14
-9 46 34 91 122 37 73 50 87 91 110 56 31 67 49 42 68 -28 21 -57 16 -101 -16z"/>
<path d="M6227 6008 c5 -86 3 -96 -18 -127 -37 -53 -67 -70 -153 -86 -44 -9
-82 -18 -85 -21 -12 -12 -1 -97 24 -191 18 -66 25 -112 22 -142 -4 -34 -1 -47
14 -59 26 -22 24 -44 -6 -77 -19 -19 -32 -25 -48 -21 -12 3 -32 9 -45 12 -22
6 -23 4 -20 -37 3 -42 5 -44 36 -47 63 -6 172 69 172 118 0 17 8 19 73 17 174
-4 283 79 310 237 9 57 9 72 -4 94 -8 15 -24 27 -34 27 -17 0 -21 -9 -25 -70
-5 -51 -14 -84 -35 -124 -40 -72 -79 -90 -196 -91 l-86 0 -16 38 c-9 20 -28
84 -42 142 -15 57 -28 107 -31 111 -2 3 18 9 44 13 55 7 139 45 164 72 37 42
59 113 60 188 0 89 -12 116 -52 116 l-28 0 5 -92z"/>
<path d="M5867 6083 c-15 -14 -6 -61 16 -81 26 -24 57 -28 75 -10 17 17 15 64
-4 82 -15 16 -75 22 -87 9z"/>
<path d="M6688 5209 c-22 -13 -23 -29 -1 -74 14 -30 15 -47 6 -127 -10 -87
-12 -94 -47 -125 -31 -29 -43 -33 -88 -33 -65 0 -107 23 -145 81 -25 38 -28
52 -28 121 1 69 -1 79 -19 84 -29 9 -56 -29 -56 -79 0 -62 29 -151 61 -190 88
-107 267 -115 341 -16 41 55 49 76 54 152 3 40 10 84 16 99 8 22 6 35 -14 70
-24 45 -49 56 -80 37z"/>
<path d="M5407 4659 c-43 -33 -21 -43 116 -50 67 -4 154 -11 193 -15 39 -3 91
-4 115 0 39 6 45 10 44 31 -1 14 -5 28 -9 32 -4 5 -42 9 -84 10 -43 1 -138 5
-212 8 -129 6 -137 5 -163 -16z"/>
<path d="M4464 4515 c-7 -17 22 -55 42 -55 10 0 9 7 -2 30 -19 37 -32 46 -40
25z"/>
<path d="M5645 4051 c-10 -18 64 -45 125 -45 43 -1 55 2 55 14 0 15 -7 16
-136 36 -22 4 -39 1 -44 -5z"/>
<path d="M9080 6600 c-31 -31 -36 -68 -13 -98 27 -36 57 -39 88 -8 46 46 25
126 -33 126 -12 0 -31 -9 -42 -20z"/>
<path d="M9867 6602 c-22 -24 -21 -55 1 -75 26 -23 55 -21 80 6 28 30 28 52 0
71 -30 21 -61 20 -81 -2z"/>
<path d="M7871 6564 c-15 -19 -21 -41 -21 -74 0 -42 4 -52 31 -74 37 -32 46
-32 103 -4 l44 21 99 -56 c54 -31 109 -60 123 -66 30 -12 144 -126 139 -139
-4 -10 -218 -208 -347 -321 -71 -61 -74 -63 -103 -51 -23 10 -39 10 -69 1 -52
-15 -70 -43 -70 -107 0 -70 30 -104 92 -104 24 0 54 7 67 16 27 20 51 72 51
113 0 20 9 36 28 51 15 12 93 82 173 156 163 150 262 224 299 224 26 0 100
-44 100 -60 0 -14 -191 -265 -297 -389 -12 -14 -22 -39 -23 -54 0 -36 47 -59
94 -45 17 5 226 8 471 8 1176 -3 1155 -3 1176 16 30 27 25 80 -11 116 -20 20
-37 28 -50 25 -10 -3 -28 2 -39 9 -42 30 -244 270 -283 337 l-40 69 22 31 c13
16 25 49 28 73 4 39 1 47 -30 78 -36 36 -89 53 -132 42 -13 -3 -36 -23 -52
-43 -23 -31 -29 -48 -29 -90 0 -50 -1 -53 -56 -100 -156 -134 -172 -145 -198
-137 -14 4 -46 10 -69 13 l-44 6 -74 129 c-73 128 -73 129 -67 185 7 69 -10
109 -60 140 -64 39 -97 28 -146 -49 -46 -72 -111 -145 -120 -133 -47 68 -164
71 -219 5 -15 -18 -25 -23 -30 -16 -4 6 -43 32 -87 56 -171 96 -177 100 -206
148 -31 51 -62 70 -114 70 -24 0 -39 -7 -54 -26z m107 -56 c3 -30 -1 -40 -22
-53 -35 -23 -66 -6 -66 38 0 42 17 59 55 55 27 -3 30 -7 33 -40z m863 -48 c27
-15 24 -55 -7 -79 -32 -25 -51 -26 -76 -4 -52 47 18 117 83 83z m743 -121 c40
-32 34 -79 -15 -104 -42 -22 -63 -18 -82 14 -22 38 -22 66 3 91 26 26 60 25
94 -1z m-1090 0 c38 -18 51 -60 32 -98 -27 -50 -85 -55 -118 -10 -22 30 -19
52 13 93 23 29 36 31 73 15z m254 -5 c30 -21 28 -35 -12 -83 -19 -22 -44 -57
-56 -76 -12 -19 -27 -35 -34 -35 -7 0 -27 16 -46 35 l-34 36 72 69 c40 39 76
70 80 70 4 0 18 -7 30 -16z m110 -81 c22 -38 52 -90 67 -118 16 -27 41 -69 56
-92 64 -93 33 -93 -148 -1 -118 60 -122 63 -107 83 49 66 74 112 74 136 0 27
9 59 16 59 2 0 21 -30 42 -67z m662 -83 c11 -6 51 -56 89 -113 38 -56 119
-156 179 -222 60 -67 111 -131 114 -143 l6 -22 -263 0 c-165 0 -266 4 -270 10
-3 6 -16 10 -28 10 -13 0 -32 7 -44 15 -32 22 -103 134 -103 161 0 59 25 107
80 153 30 25 82 72 115 103 61 58 87 68 125 48z m-812 -129 c50 -34 177 -99
227 -115 36 -12 56 -25 69 -46 20 -34 63 -60 100 -60 29 0 49 -18 88 -82 16
-26 37 -52 46 -58 11 -6 -130 -9 -414 -10 -237 0 -434 3 -437 6 -4 4 15 32 41
63 58 68 214 267 233 299 17 27 15 26 47 3z m431 -67 c36 -45 26 -90 -22 -107
-25 -9 -67 34 -67 68 0 65 51 87 89 39z m-1205 -247 c11 -16 13 -32 8 -52 -17
-62 -100 -33 -86 29 9 43 12 46 39 46 14 0 31 -9 39 -23z m2075 -38 c13 -36 7
-49 -20 -49 -22 0 -45 41 -36 64 11 28 44 19 56 -15z"/>
<path d="M6877 6499 c-14 -8 -17 -18 -12 -40 6 -26 3 -30 -34 -45 -23 -9 -41
-20 -41 -24 0 -26 15 -40 41 -40 23 0 32 -6 41 -27 30 -71 64 -75 100 -12 12
21 24 36 28 34 10 -6 61 45 55 56 -4 5 -14 9 -24 9 -11 0 -25 15 -36 41 -26
56 -71 75 -118 48z m71 -71 c17 -17 15 -42 -6 -68 l-19 -23 -21 21 c-27 27
-27 37 -2 62 23 23 31 25 48 8z"/>
<path d="M1969 6423 c-33 -77 -89 -220 -89 -227 0 -4 12 -6 27 -4 22 2 29 9
33 33 5 29 7 30 67 33 l62 3 15 -36 c16 -38 41 -54 57 -38 7 7 0 27 -21 61
-17 27 -42 83 -55 122 -40 116 -63 129 -96 53z m65 -100 c7 -21 4 -23 -28 -23
-20 0 -36 2 -36 5 0 2 7 23 17 46 16 41 16 41 28 18 7 -13 16 -34 19 -46z"/>
<path d="M2185 6343 c2 -65 3 -125 4 -134 1 -9 10 -19 21 -22 19 -5 20 0 20
134 l0 139 -24 0 -25 0 4 -117z"/>
<path d="M644 6401 c-29 -13 -84 -78 -84 -101 0 -19 -7 -20 -104 -20 -95 0
-105 2 -111 20 -11 35 -54 60 -102 60 -38 0 -50 -5 -79 -34 -30 -30 -34 -40
-34 -86 0 -43 5 -56 28 -79 15 -15 33 -30 40 -32 8 -3 12 -39 13 -129 1 -159
6 -191 27 -183 10 4 20 11 24 17 4 6 8 77 8 157 l0 147 25 6 c14 4 35 22 48
41 l22 35 103 0 c56 0 102 -4 102 -9 0 -22 55 -72 92 -83 87 -26 86 -88 -2
-140 -100 -61 -151 -164 -135 -277 13 -98 94 -193 177 -210 l33 -7 5 -143 c4
-123 8 -145 23 -156 23 -17 112 -24 302 -24 219 0 217 3 98 -112 -70 -68 -112
-101 -146 -114 -33 -12 -47 -23 -45 -34 9 -48 122 4 242 111 l63 57 23 -24
c12 -13 35 -29 50 -35 15 -6 31 -21 34 -33 3 -12 6 -210 6 -439 0 -329 -3
-419 -13 -425 -34 -21 -57 -67 -57 -112 0 -37 7 -56 31 -89 17 -23 35 -42 40
-42 5 0 9 -48 9 -106 0 -104 0 -105 23 -102 21 3 22 8 25 99 l3 96 44 46 c72
76 68 148 -13 201 l-29 19 -6 211 c-3 116 -3 314 0 439 l6 228 31 13 c17 7 40
23 50 35 l19 21 17 -26 c10 -14 47 -52 83 -84 72 -63 103 -74 200 -68 l49 3
19 -52 c22 -58 53 -85 114 -102 58 -15 106 1 148 50 41 47 51 87 37 140 -39
143 -230 159 -294 24 -19 -39 -15 -39 -124 -9 -43 12 -68 29 -133 91 -99 95
-104 117 -26 127 28 3 132 6 230 6 l177 0 10 26 c6 14 10 85 10 158 l0 134 28
5 c40 8 104 54 131 92 31 46 54 140 47 193 -13 93 -80 177 -168 210 -47 17
-53 23 -56 51 -4 41 -29 40 -40 -1 -7 -27 -14 -34 -45 -40 -50 -10 -118 -45
-140 -72 -71 -85 -89 -209 -43 -300 14 -27 22 -54 20 -61 -3 -7 -63 -67 -134
-134 l-129 -121 -37 25 c-20 14 -41 25 -46 25 -4 0 -7 116 -6 261 l3 261 39
13 c56 19 122 89 142 148 34 102 1 225 -76 291 -41 34 -130 59 -189 54 -126
-12 -231 -125 -231 -248 0 -20 7 -61 16 -91 24 -82 109 -155 186 -161 26 -2
34 -8 39 -28 4 -14 7 -134 8 -267 1 -235 0 -243 -19 -243 -10 0 -35 -14 -55
-31 -19 -17 -35 -26 -35 -21 0 6 -28 34 -62 62 -35 29 -100 88 -145 131 l-82
79 21 47 c16 35 22 68 22 123 1 66 -3 82 -30 130 -41 73 -101 114 -193 130
l-69 13 -4 53 c-1 28 1 50 5 47 16 -10 85 73 92 110 10 50 -16 117 -57 147
-33 25 -100 35 -134 21z m109 -83 c27 -37 26 -82 -3 -113 -26 -27 -50 -31 -83
-13 -34 18 -46 39 -47 81 0 32 5 40 33 57 41 26 75 22 100 -12z m738 -16 c62
-32 89 -75 97 -153 6 -60 -25 -128 -75 -167 -29 -21 -49 -27 -102 -30 -56 -3
-71 0 -101 20 -55 37 -100 103 -100 147 0 170 136 259 281 183z m-1205 -27
c14 -21 14 -30 4 -54 -16 -39 -38 -46 -70 -23 -28 21 -38 65 -19 88 19 23 66
17 85 -11z m547 -336 c113 -31 173 -178 118 -287 -55 -108 -199 -137 -288 -59
-112 98 -92 272 39 335 49 24 77 26 131 11z m1254 0 c99 -37 151 -173 104
-274 -36 -77 -95 -115 -180 -115 -84 0 -162 74 -183 171 -10 51 -9 59 14 111
36 78 91 118 164 118 29 0 65 -5 81 -11z m-860 -668 c13 -14 23 -29 23 -33 0
-5 -94 -8 -209 -8 -177 0 -212 2 -225 16 -13 12 -16 40 -16 135 l0 119 38 0
c20 0 50 9 66 19 l29 19 136 -120 c75 -66 146 -132 158 -147z m666 248 c23
-12 58 -22 79 -23 l38 -1 0 -107 c0 -59 -4 -118 -10 -132 l-10 -26 -200 0
c-173 0 -201 2 -207 16 -4 11 35 57 128 153 74 76 135 139 137 140 1 0 22 -9
45 -20z m-405 -249 c67 -66 41 -180 -45 -196 -92 -17 -155 85 -108 176 31 59
104 69 153 20z m647 -312 c35 -41 33 -82 -5 -120 -27 -26 -36 -30 -68 -25 -38
6 -92 54 -92 82 0 36 22 67 61 84 49 22 71 18 104 -21z m-676 -907 c25 -35 26
-58 4 -83 -20 -22 -41 -23 -65 -1 -24 21 -23 64 2 91 27 29 35 28 59 -7z"/>
<path d="M1340 6266 c-45 -16 -70 -63 -70 -132 0 -47 4 -55 34 -82 114 -99
264 0 215 142 -25 73 -96 101 -179 72z m95 -59 c49 -42 27 -147 -31 -147 -37
0 -74 42 -74 85 0 25 8 44 25 60 30 31 47 31 80 2z"/>
<path d="M715 5870 c-48 -32 -65 -60 -65 -114 0 -83 58 -146 135 -146 31 0 45
8 81 44 40 40 44 48 44 94 0 40 -5 57 -27 83 -49 57 -116 73 -168 39z m116
-59 c34 -35 36 -49 9 -101 -25 -48 -58 -60 -94 -33 -50 36 -53 96 -6 143 28
28 56 25 91 -9z"/>
<path d="M1974 5890 c-57 -23 -100 -116 -85 -183 15 -64 59 -97 131 -97 52 0
84 21 116 76 25 43 25 44 10 92 -18 53 -55 95 -99 111 -33 13 -44 13 -73 1z
m87 -79 c40 -41 40 -91 -1 -132 -38 -38 -67 -35 -97 10 -31 45 -30 95 2 126
32 33 60 31 96 -4z"/>
<path d="M2444 6400 c-32 -13 -82 -77 -89 -114 -9 -43 15 -95 61 -136 19 -16
38 -30 42 -30 4 0 6 -36 4 -80 l-4 -80 26 0 c25 0 26 2 26 59 0 33 -4 71 -10
85 -8 21 -6 26 6 26 59 0 122 89 108 153 -12 57 -34 88 -77 108 -46 20 -61 22
-93 9z m88 -77 c24 -22 30 -59 14 -97 -18 -43 -47 -53 -88 -29 -59 34 -59 106
1 138 27 14 46 11 73 -12z"/>
<path d="M3208 6358 c-17 -32 -30 -44 -51 -46 -44 -5 -30 -62 15 -62 11 0 26
-14 36 -32 9 -17 25 -40 35 -50 23 -24 43 -11 52 34 5 22 16 34 41 44 26 11
34 20 34 40 0 22 -4 25 -27 22 -23 -3 -28 2 -36 32 -12 46 -24 60 -52 60 -17
0 -30 -12 -47 -42z m69 -92 c-3 -27 -20 -30 -47 -8 -24 19 -24 20 -6 47 l19
28 18 -24 c11 -13 18 -33 16 -43z"/>
<path d="M7902 6278 c2 -24 8 -42 13 -41 13 3 18 29 11 59 -11 40 -27 27 -24
-18z"/>
<path d="M9910 6269 c0 -49 39 -76 68 -47 17 17 15 55 -4 62 -35 13 -64 7 -64
-15z"/>
<path d="M7890 6106 c0 -53 1 -56 26 -56 24 0 25 2 22 53 -3 45 -6 52 -25 55
-22 3 -23 0 -23 -52z"/>
<path d="M7133 6001 c-41 -34 -41 -45 -2 -65 33 -17 62 -9 72 19 6 14 -22 75
-33 75 -3 -1 -20 -13 -37 -29z"/>
<path d="M7899 5940 c-1 -14 -3 -36 -4 -50 -4 -35 4 -50 26 -50 15 0 19 7 19
40 0 22 -4 40 -8 40 -5 0 -14 10 -20 23 l-11 22 -2 -25z"/>
<path d="M2456 5878 c-14 -52 -8 -68 25 -68 29 0 30 1 27 43 -2 34 -7 43 -24
45 -15 2 -23 -4 -28 -20z"/>
<path d="M214 5755 c-10 -56 -2 -80 29 -83 26 -3 27 -1 26 40 -1 53 -9 73 -31
74 -12 1 -19 -8 -24 -31z"/>
<path d="M2459 5746 c-11 -12 4 -85 19 -91 34 -13 46 67 13 85 -22 11 -26 12
-32 6z"/>
<path d="M210 5565 c0 -25 4 -45 9 -45 5 0 16 -3 25 -6 13 -5 16 2 16 45 0 48
-2 51 -25 51 -23 0 -25 -4 -25 -45z"/>
<path d="M2464 5586 c-10 -27 1 -81 17 -84 20 -4 32 36 23 73 -7 27 -31 34
-40 11z"/>
<path d="M217 5443 c-4 -3 -7 -23 -7 -44 0 -31 4 -37 25 -41 24 -5 25 -3 25
43 0 41 -3 49 -18 49 -10 0 -22 -3 -25 -7z"/>
<path d="M2460 5392 c0 -58 43 -88 52 -37 9 46 -2 75 -28 75 -21 0 -24 -5 -24
-38z"/>
<path d="M7917 5403 c-4 -3 -7 -320 -7 -703 l0 -697 -46 -7 c-26 -3 -62 -6
-80 -6 -29 0 -34 -3 -34 -24 0 -20 6 -25 43 -30 49 -7 2273 -6 2300 1 10 2 17
14 17 28 0 21 -5 24 -42 27 l-43 3 -6 215 c-6 204 -12 270 -28 270 -27 0 -31
-32 -31 -258 l0 -234 -31 6 c-17 3 -40 6 -51 6 -19 0 -20 7 -17 282 3 245 2
283 -11 285 -43 8 -45 -2 -48 -297 l-3 -280 -43 0 c-41 0 -44 2 -50 31 -3 17
-3 48 0 70 4 21 3 72 -1 114 l-7 75 -109 0 -109 0 0 -145 0 -146 -62 3 -62 3
3 258 3 257 -104 0 c-68 0 -108 -4 -116 -12 -9 -9 -12 -80 -12 -260 l0 -248
-55 0 -55 0 0 373 0 374 -102 -5 c-57 -2 -107 -8 -113 -14 -6 -5 -12 -148 -15
-366 l-5 -357 -24 -3 c-13 -2 -39 -1 -57 3 l-34 6 6 402 c4 271 2 407 -5 417
-12 18 -179 28 -207 12 -17 -9 -18 -30 -15 -314 1 -166 -1 -351 -5 -410 l-7
-108 -53 0 -54 0 0 349 c0 193 -4 352 -9 355 -11 7 -198 12 -204 6 -5 -5 -16
-390 -17 -602 l0 -118 -34 0 c-18 0 -48 3 -65 6 l-31 7 0 703 0 704 -23 0
c-13 0 -27 -3 -30 -7z m654 -633 l39 0 0 -385 0 -385 -54 0 -54 0 -1 391 c0
347 2 390 15 385 9 -3 33 -6 55 -6z m386 -294 c-4 -110 -7 -263 -7 -338 l0
-138 -50 0 -50 0 0 284 c0 155 3 310 6 342 l6 59 51 -4 50 -3 -6 -202z m-687
-139 l0 -334 -39 -7 c-72 -11 -71 -14 -71 173 0 93 3 242 7 332 l6 164 49 3
48 3 0 -334z m1029 -112 l3 -225 -62 0 c-53 0 -61 2 -56 16 3 9 6 107 6 219
l0 204 28 4 c15 2 38 5 52 5 l25 2 4 -225z m345 -12 c3 -21 6 -80 6 -130 l0
-93 -39 0 c-71 0 -71 0 -71 120 0 60 3 115 6 124 4 11 19 16 49 16 41 0 43 -1
49 -37z"/>
<path d="M9307 5358 c-9 -25 22 -68 49 -68 30 0 52 44 33 66 -14 17 -76 18
-82 2z"/>
<path d="M9502 5358 c-30 -30 2 -87 41 -72 23 8 40 54 26 70 -14 17 -51 18
-67 2z"/>
<path d="M9640 5349 c-11 -20 -3 -41 25 -61 31 -23 61 14 45 56 -12 33 -54 36
-70 5z"/>
<path d="M9193 5343 c-8 -22 9 -47 36 -51 19 -3 22 0 19 24 -4 33 -45 54 -55
27z"/>
<path d="M2446 5300 c-72 -22 -95 -81 -59 -153 18 -37 30 -49 54 -54 32 -6 45
-18 29 -28 -17 -11 -12 -102 6 -109 34 -13 37 -7 32 64 -4 54 -2 70 8 70 7 0
29 14 49 31 30 26 35 38 35 73 0 48 -19 80 -60 101 -32 17 -51 18 -94 5z m74
-70 c11 -11 20 -27 20 -35 0 -19 -36 -55 -55 -55 -19 0 -55 36 -55 55 0 19 36
55 55 55 8 0 24 -9 35 -20z"/>
<path d="M210 5255 c0 -35 17 -65 36 -65 12 0 14 10 12 43 -2 35 -7 43 -25 45
-19 3 -23 -1 -23 -23z"/>
<path d="M9467 5203 c-4 -3 -7 -16 -7 -28 0 -51 72 -62 78 -13 3 22 -2 30 -23
38 -31 12 -39 12 -48 3z"/>
<path d="M9613 5203 c-28 -11 1 -73 34 -73 20 0 35 29 29 55 -6 24 -31 32 -63
18z"/>
<path d="M9267 5181 c-6 -25 0 -31 34 -31 15 0 40 -5 55 -10 34 -13 49 -1 40
34 -6 24 -10 26 -65 26 -50 0 -59 -3 -64 -19z"/>
<path d="M8705 5179 c-11 -6 -26 -19 -32 -27 -24 -30 -10 -134 20 -154 7 -5
42 -7 80 -7 l67 2 58 -59 c31 -33 93 -89 137 -124 74 -61 80 -69 92 -119 17
-78 39 -96 116 -96 55 -1 68 -5 107 -33 25 -18 61 -54 80 -79 91 -121 134
-140 190 -84 23 22 30 41 36 90 5 47 17 80 53 141 75 131 150 231 169 229 9
-2 34 5 56 14 21 9 44 17 51 17 7 0 16 7 19 16 11 29 6 124 -8 159 -12 28 -20
35 -44 35 -60 0 -152 -106 -152 -176 0 -19 -12 -48 -32 -75 -45 -62 -168 -258
-168 -268 0 -4 -22 -6 -49 -3 -43 4 -49 2 -54 -17 -3 -11 -9 -21 -14 -21 -5 0
-36 22 -68 48 l-60 48 -5 63 c-4 53 -9 67 -33 87 -30 26 -70 30 -124 15 -30
-9 -37 -4 -169 108 l-138 117 0 52 c-1 72 -33 104 -108 109 -29 2 -62 -2 -73
-8z m103 -81 c4 -31 -25 -46 -58 -28 -37 20 -15 63 30 58 19 -2 26 -10 28 -30z
m1136 -100 c9 -37 7 -56 -10 -72 -24 -24 -44 -20 -44 10 0 14 -4 23 -10 19
-19 -11 -10 19 12 42 27 29 44 29 52 1z m-670 -254 c19 -18 21 -55 4 -72 -7
-7 -26 -12 -43 -12 -24 0 -35 6 -43 25 -14 30 -8 49 21 63 31 15 43 14 61 -4z
m314 -236 c40 -40 -14 -96 -63 -64 -14 9 -25 24 -25 33 0 34 63 56 88 31z"/>
<path d="M640 5128 c-73 -50 -98 -125 -66 -202 30 -71 102 -99 186 -71 106 35
129 162 46 252 -27 29 -41 36 -82 40 -40 4 -55 0 -84 -19z m118 -61 c12 -13
27 -37 33 -55 9 -27 8 -37 -7 -60 -39 -60 -84 -68 -133 -23 -65 60 -28 160 60
161 14 0 35 -10 47 -23z"/>
<path d="M212 5088 c2 -36 7 -44 26 -46 20 -3 22 1 22 42 0 43 -2 46 -26 46
-23 0 -25 -3 -22 -42z"/>
<path d="M212 4933 c3 -44 5 -48 28 -48 19 0 26 6 28 24 7 44 -6 71 -34 71
-24 0 -25 -3 -22 -47z"/>
<path d="M2462 4848 c2 -36 7 -44 26 -46 19 -3 22 1 22 26 0 44 -9 62 -32 62
-16 0 -19 -6 -16 -42z"/>
<path d="M223 4803 c-19 -7 -16 -70 3 -77 30 -12 35 -6 32 36 -3 41 -11 51
-35 41z"/>
<path d="M2460 4710 c0 -36 3 -40 25 -40 23 0 25 4 25 40 0 36 -2 40 -25 40
-22 0 -25 -4 -25 -40z"/>
<path d="M985 4718 c-65 -36 -94 -99 -75 -167 39 -144 250 -107 250 44 0 52
-17 84 -59 112 -36 25 -84 29 -116 11z m94 -74 c28 -35 26 -69 -4 -99 -68 -69
-146 26 -80 98 32 34 58 34 84 1z"/>
<path d="M1725 4666 c-85 -38 -120 -137 -73 -206 30 -44 61 -60 116 -60 57 0
96 28 117 85 31 80 -7 163 -83 185 -45 12 -40 12 -77 -4z m88 -74 c41 -36 5
-132 -50 -132 -47 0 -63 17 -63 66 0 35 6 51 25 70 27 27 54 26 88 -4z"/>
<path d="M210 4621 c0 -33 3 -39 25 -43 24 -5 25 -3 25 38 0 40 -2 44 -25 44
-22 0 -25 -4 -25 -39z"/>
<path d="M2460 4560 c0 -36 3 -40 25 -40 23 0 25 4 25 40 0 36 -2 40 -25 40
-22 0 -25 -4 -25 -40z"/>
<path d="M392 4543 c2 -23 8 -29 36 -31 19 -2 47 5 71 18 l38 22 26 -26 c14
-14 32 -26 40 -26 32 0 52 55 23 66 -7 3 -43 1 -79 -4 -36 -4 -64 -5 -61 0 3
4 -18 8 -46 8 -50 0 -51 -1 -48 -27z"/>
<path d="M210 4470 c0 -36 3 -40 25 -40 18 0 26 7 31 25 9 36 -2 55 -31 55
-23 0 -25 -4 -25 -40z"/>
<path d="M2462 4408 c2 -35 7 -43 23 -43 16 0 21 8 23 43 3 39 2 42 -23 42
-25 0 -26 -3 -23 -42z"/>
<path d="M2101 4426 c-31 -17 -39 -38 -40 -101 -1 -55 -7 -51 89 -57 32 -2 45
3 70 27 35 34 36 39 10 72 -11 14 -20 34 -20 43 0 32 -65 41 -109 16z m63 -45
c21 -23 18 -60 -7 -75 -22 -14 -37 5 -37 50 0 48 16 56 44 25z"/>
<path d="M212 4303 c2 -30 8 -39 24 -41 17 -2 23 4 28 29 9 47 8 49 -25 49
-29 0 -30 -2 -27 -37z"/>
<path d="M486 4280 c-78 -182 -27 -405 117 -508 l50 -36 -34 -25 c-117 -87
-160 -170 -168 -320 -8 -143 21 -249 75 -276 13 -6 103 -8 240 -5 l219 5 18
39 c10 22 26 73 35 113 35 165 -28 338 -160 433 l-37 27 45 32 c50 37 119 131
146 203 24 63 23 172 -1 266 -11 41 -22 76 -24 78 -2 3 -117 6 -255 7 l-251 2
-15 -35z m479 -39 c3 -5 9 -30 14 -55 l8 -46 -238 0 c-185 0 -239 3 -239 13 0
25 20 81 32 89 18 11 416 10 423 -1z m28 -167 c3 -4 -2 -18 -13 -32 -11 -13
-18 -28 -15 -32 3 -4 0 -22 -6 -39 l-11 -31 -198 0 -198 0 -10 28 c-6 15 -14
38 -17 52 -4 14 -9 33 -11 43 -5 16 11 17 234 17 131 0 242 -3 245 -6z m-136
-204 l42 0 -36 -39 c-19 -22 -53 -47 -75 -55 l-39 -16 -42 33 c-23 19 -59 44
-79 56 -21 13 -38 25 -38 28 0 3 51 3 113 0 61 -4 131 -7 154 -7z m-21 -241
c14 -16 10 -16 -53 -12 -125 8 -137 16 -76 50 l38 22 38 -22 c20 -11 44 -29
53 -38z m97 -101 c11 -15 17 -31 13 -35 -11 -11 -258 -15 -338 -6 l-68 8 20
33 20 32 166 -2 167 -3 20 -27z m53 -132 c3 -13 4 -35 2 -47 l-3 -24 -237 -3
-238 -2 0 43 c0 24 3 47 7 50 3 4 109 7 234 7 l229 0 6 -24z m-14 -146 c-2
-14 -9 -36 -15 -50 l-12 -25 -192 -3 -192 -2 -14 27 c-8 16 -18 38 -21 50 l-7
23 198 3 c282 4 259 6 255 -23z"/>
<path d="M2462 4253 c3 -40 6 -48 23 -48 17 0 20 8 23 48 3 45 2 47 -23 47
-25 0 -26 -2 -23 -47z"/>
<path d="M2456 4132 c-2 -4 -7 -21 -10 -39 -4 -17 -14 -34 -22 -37 -24 -9 -16
-36 11 -36 61 0 100 92 48 111 -12 4 -24 5 -27 1z"/>
<path d="M3395 4075 c-27 -29 -61 -67 -73 -84 -24 -32 -24 -61 0 -61 8 0 22
-16 33 -36 11 -20 31 -44 45 -53 13 -9 33 -24 42 -33 10 -10 26 -18 36 -18 18
0 105 90 129 133 7 12 12 18 13 14 0 -4 9 -3 20 3 11 6 17 16 14 25 -4 8 -10
13 -14 10 -5 -3 -23 16 -41 42 -38 58 -103 113 -133 112 -12 0 -42 -23 -71
-54z m120 -46 c49 -44 45 -101 -11 -142 -21 -16 -30 -17 -54 -7 -68 28 -78 94
-24 152 35 35 45 35 89 -3z"/>
<path d="M6931 4036 c-48 -52 -66 -96 -38 -96 6 0 25 -18 40 -40 41 -59 75
-56 135 11 26 29 48 56 50 60 7 17 -91 119 -113 119 -14 0 -42 -21 -74 -54z
m94 -32 c30 -46 -1 -97 -45 -74 -27 15 -34 47 -16 75 21 32 39 32 61 -1z"/>
<path d="M1642 4038 c2 -18 11 -24 37 -26 33 -3 51 9 51 36 0 8 -16 12 -46 12
-41 0 -45 -2 -42 -22z"/>
<path d="M1786 4044 c-4 -9 -4 -20 0 -23 12 -13 113 -3 128 12 14 13 14 16 0
21 -9 3 -40 6 -69 6 -40 0 -54 -4 -59 -16z"/>
<path d="M1985 4046 l-30 -13 35 -7 c19 -4 47 -9 62 -12 21 -5 29 -2 34 11 13
34 -44 46 -101 21z"/>
<path d="M2152 4033 c2 -23 8 -29 36 -31 30 -3 32 -1 32 27 0 29 -3 31 -36 31
-33 0 -35 -2 -32 -27z"/>
<path d="M2280 4035 c0 -23 4 -25 44 -25 44 0 74 19 61 40 -3 5 -28 10 -56 10
-46 0 -49 -2 -49 -25z"/>
<path d="M253 3893 c-31 -12 -9 -63 27 -63 15 0 22 40 10 55 -13 16 -17 17
-37 8z"/>
<path d="M2053 3845 c-67 -16 -109 -43 -167 -105 -74 -79 -91 -125 -91 -250 0
-102 1 -109 37 -182 70 -140 171 -202 328 -201 169 1 288 84 358 250 30 72 27
177 -8 268 -31 81 -123 174 -200 202 -72 27 -190 35 -257 18z m70 -107 c3 -52
2 -58 -15 -58 -11 0 -31 -6 -47 -14 -30 -16 -101 -90 -101 -106 0 -23 -41 -50
-75 -50 -28 0 -35 4 -35 20 0 27 52 126 87 168 26 30 176 116 180 103 1 -3 3
-32 6 -63z m163 32 c55 -23 106 -77 137 -142 45 -93 44 -95 -10 -106 -26 -6
-50 -9 -53 -7 -4 2 -12 22 -20 44 -17 52 -47 80 -112 102 -29 10 -52 23 -51
29 2 5 4 33 5 60 l2 51 31 -7 c16 -3 48 -14 71 -24z m-55 -180 c83 -60 76
-186 -13 -240 -78 -47 -165 -5 -190 93 -11 44 -11 51 11 92 45 85 120 106 192
55z m-275 -137 c16 -57 62 -130 94 -150 72 -46 71 -44 64 -94 -6 -45 -7 -47
-33 -39 -109 31 -210 141 -227 247 -6 40 -5 42 22 46 61 9 75 7 80 -10z m514
-6 c0 -8 -9 -40 -20 -73 -16 -47 -31 -69 -76 -110 -57 -52 -115 -86 -166 -98
-28 -6 -28 -6 -28 48 l0 54 51 17 c56 19 100 69 121 137 11 38 11 38 65 38 38
0 53 -4 53 -13z"/>
<path d="M4088 3810 c-53 -56 -56 -64 -31 -100 62 -94 103 -103 169 -36 60 59
60 92 1 140 -67 55 -84 54 -139 -4z m100 -30 c12 -12 22 -24 22 -29 0 -17 -42
-61 -59 -61 -43 0 -54 50 -19 87 26 28 29 28 56 3z"/>
<path d="M234 3745 c-13 -54 30 -77 61 -32 15 21 14 23 -6 40 -30 24 -48 21
-55 -8z"/>
<path d="M7975 3676 c-19 -13 -19 -34 -19 -562 0 -393 4 -555 12 -570 8 -15
25 -24 54 -28 24 -3 465 -4 981 -2 705 4 942 8 953 17 12 10 14 98 14 573 0
424 -3 565 -12 574 -9 9 -242 12 -988 12 -820 0 -979 -2 -995 -14z m1009 -188
c4 -79 8 -302 9 -496 0 -238 4 -355 11 -359 6 -3 8 -3 4 1 -3 4 -1 24 6 44 30
85 37 229 27 527 -6 160 -15 308 -22 330 -6 22 -13 52 -16 68 l-5 27 456 0
456 0 -3 -522 -2 -522 -40 -9 c-57 -13 -836 1 -853 15 -9 8 -16 8 -24 0 -9 -9
-140 -12 -484 -12 -440 0 -472 1 -479 18 -8 21 -19 997 -11 1018 5 12 76 14
484 14 l480 0 6 -142z"/>
<path d="M9625 3500 c-88 -3 -168 -9 -178 -14 -10 -5 -23 -4 -31 3 -9 8 -57
11 -142 9 -109 -3 -129 -5 -132 -19 -2 -9 3 -19 10 -21 7 -3 154 -3 326 0 261
4 314 7 319 19 3 8 2 17 -3 21 -5 4 -81 5 -169 2z"/>
<path d="M8385 3467 c-73 -27 -138 -71 -188 -126 -42 -47 -58 -76 -82 -153
-15 -50 -16 -67 -5 -139 15 -103 45 -172 100 -226 146 -143 407 -135 541 15
70 79 94 141 94 247 0 82 -3 96 -33 158 -24 48 -42 71 -60 78 -15 6 -45 19
-67 30 l-40 20 42 -43 c24 -25 52 -69 66 -105 l25 -62 -33 -7 c-55 -10 -66 -3
-92 64 -14 35 -27 61 -29 59 -2 -2 5 -33 17 -69 l20 -66 -24 -49 c-29 -57 -49
-75 -101 -97 -50 -21 -56 -20 -56 7 0 12 -11 40 -25 62 -22 37 -24 46 -18 120
7 90 9 90 -67 18 -35 -33 -101 -53 -172 -53 -28 0 -29 2 -23 33 20 93 86 171
182 214 114 52 122 51 187 -14 31 -31 56 -62 56 -69 0 -7 4 -15 8 -18 5 -3 8
14 8 37 -1 32 3 41 14 40 9 -2 6 4 -7 13 -12 9 -34 27 -48 40 -25 23 -66 44
-111 57 -10 3 -46 -4 -79 -16z m-42 -381 c12 -12 35 -30 50 -41 35 -26 46 -71
47 -187 0 -64 -3 -88 -12 -88 -28 0 -137 60 -171 94 -47 47 -65 83 -83 164
-21 101 -25 95 67 87 63 -6 85 -12 102 -29z m452 -8 c-13 -88 -45 -155 -96
-203 -46 -43 -141 -95 -174 -95 -10 0 -15 11 -15 33 0 17 -3 49 -6 69 -6 35
-4 39 26 55 52 28 106 80 135 128 22 39 30 44 68 48 23 2 48 4 55 5 11 2 12
-8 7 -40z"/>
<path d="M9178 3363 c-19 -3 -28 -10 -28 -24 0 -17 8 -19 79 -19 44 0 86 3 95
6 25 9 19 34 -8 34 -13 0 -43 2 -67 4 -24 2 -56 2 -71 -1z"/>
<path d="M9397 3341 c-7 -27 24 -31 229 -31 164 0 174 1 174 19 0 27 -25 31
-221 31 -165 0 -177 -1 -182 -19z"/>
<path d="M9160 3228 c0 -9 10 -18 23 -22 12 -3 156 -9 320 -13 262 -5 297 -4
297 9 0 18 -71 24 -412 34 -201 6 -228 5 -228 -8z"/>
<path d="M9162 3089 c3 -23 7 -24 92 -27 53 -2 93 1 100 8 20 20 -11 31 -103
37 l-93 6 4 -24z"/>
<path d="M9442 3073 c3 -16 21 -18 181 -21 172 -2 177 -2 177 18 0 19 -6 20
-181 20 -166 0 -180 -1 -177 -17z"/>
<path d="M9171 3006 c10 -9 79 -14 79 -5 0 5 -19 9 -42 9 -23 0 -39 -2 -37 -4z"/>
<path d="M9593 2953 c-122 -4 -158 -15 -85 -27 20 -3 92 -6 160 -6 97 0 122 3
122 14 0 12 -52 30 -69 24 -3 -1 -61 -4 -128 -5z"/>
<path d="M9166 2854 c-3 -9 -6 -18 -6 -20 0 -2 50 -4 110 -4 61 0 110 4 110 8
0 30 -203 45 -214 16z"/>
<path d="M9645 2826 l-80 -12 49 -8 c57 -10 158 3 164 22 4 14 -22 14 -133 -2z"/>
<path d="M9152 2718 c3 -9 36 -14 106 -16 86 -2 102 0 102 13 0 12 -17 15
-106 15 -80 0 -105 -3 -102 -12z"/>
<path d="M9465 2700 c-11 -18 253 -18 284 0 10 6 -36 9 -131 10 -87 0 -149 -4
-153 -10z"/>
<path d="M1400 3570 c0 -39 4 -49 19 -53 27 -7 31 0 31 49 0 37 -3 42 -25 46
-24 5 -25 3 -25 -42z"/>
<path d="M6616 3574 c-53 -63 -53 -94 2 -145 23 -22 49 -39 59 -39 28 0 113
84 113 111 0 33 -81 119 -111 119 -16 -1 -38 -17 -63 -46z m107 -82 c-16 -44
-43 -54 -75 -25 -25 22 -23 39 8 70 l27 27 23 -27 c14 -17 21 -34 17 -45z"/>
<path d="M1391 3422 c-16 -30 -2 -62 25 -62 28 0 39 19 30 55 -8 30 -41 34
-55 7z"/>
<path d="M7185 3348 c-44 -16 -52 -24 -59 -68 -6 -35 -12 -43 -51 -62 -43 -21
-45 -21 -65 -3 -45 40 -113 13 -157 -63 l-26 -44 23 -43 c18 -34 21 -47 13
-71 -8 -26 -15 -29 -55 -32 -63 -4 -75 -29 -68 -145 3 -47 9 -89 13 -93 4 -5
29 -11 55 -14 l47 -5 3 -47 c2 -29 -3 -59 -13 -78 -18 -34 -11 -55 33 -102 29
-32 52 -34 112 -13 23 8 51 15 62 15 27 0 68 -45 68 -75 0 -16 12 -38 29 -56
26 -25 37 -29 86 -29 30 0 71 6 90 14 28 12 35 21 40 53 11 65 16 73 42 80 15
3 40 0 57 -6 17 -7 51 -14 75 -15 51 -3 89 23 115 79 15 31 15 38 1 71 -29 70
-14 102 58 119 34 9 42 35 42 138 0 71 -2 81 -24 98 -13 10 -38 19 -57 19 -28
0 -35 4 -40 27 -4 15 -1 40 6 57 24 60 24 84 -3 120 -14 18 -43 41 -64 51 -35
17 -39 17 -66 1 -60 -34 -110 -13 -133 56 -13 40 -23 53 -50 64 -39 16 -96 17
-139 2z m126 -95 c3 -24 8 -45 10 -48 3 -2 38 -18 78 -35 l73 -30 25 20 c33
26 51 25 80 -2 28 -26 29 -38 4 -78 -18 -30 -18 -33 0 -95 23 -84 24 -85 70
-85 l39 0 0 -65 0 -65 -35 0 c-25 0 -37 -5 -41 -17 -3 -10 -16 -42 -30 -71
-25 -55 -23 -74 10 -101 14 -11 14 -15 -1 -37 -27 -42 -49 -48 -82 -23 l-30
22 -63 -23 c-91 -33 -108 -46 -108 -79 0 -54 -8 -61 -64 -61 l-52 0 -15 48
c-13 44 -18 49 -84 81 l-69 34 -39 -22 -40 -23 -25 26 c-26 25 -26 26 -9 61
16 34 16 38 -7 108 l-25 72 -46 3 -46 3 3 67 3 67 43 -3 c33 -3 43 0 48 15 4
10 18 44 31 75 l25 57 -22 36 c-18 30 -21 41 -12 60 16 35 49 41 84 15 l30
-22 42 20 c22 11 52 23 66 27 38 11 50 25 50 55 0 41 32 60 95 57 27 -2 30 -6
36 -44z"/>
<path d="M7168 3109 c-79 -18 -153 -84 -191 -168 -44 -99 7 -271 98 -333 95
-64 199 -72 302 -22 97 47 153 143 153 263 0 89 -16 130 -74 187 -74 75 -174
100 -288 73z m193 -77 c89 -43 127 -144 100 -260 -52 -215 -363 -215 -426 0
-19 66 -14 110 20 178 27 52 47 73 95 95 50 22 152 16 211 -13z"/>
<path d="M4841 3311 c-26 -7 -37 -22 -45 -63 -4 -15 -13 -34 -22 -42 -20 -20
-68 -21 -84 -1 -21 25 -68 18 -101 -14 -34 -35 -36 -55 -9 -96 28 -43 25 -51
-25 -71 -52 -19 -65 -37 -65 -87 0 -39 12 -52 57 -62 48 -10 56 -32 27 -74
-34 -50 -31 -80 12 -124 45 -46 76 -55 120 -33 19 9 45 16 58 16 21 0 24 -6
30 -50 8 -58 23 -70 88 -70 55 0 63 6 87 63 19 45 22 47 60 47 22 0 51 -4 66
-10 34 -13 79 9 105 53 22 36 19 56 -15 106 -13 19 -21 39 -18 44 3 5 25 18
48 28 49 22 61 34 70 71 7 29 -9 49 -81 104 l-28 21 18 41 c23 51 18 66 -33
92 -43 21 -76 26 -85 11 -10 -16 -55 -18 -75 -4 -11 7 -23 30 -27 51 -4 20
-11 43 -17 50 -10 13 -75 15 -116 3z m65 -49 c6 -4 15 -22 19 -40 5 -25 18
-41 53 -63 46 -29 82 -38 82 -19 0 5 11 17 25 26 47 31 70 -18 43 -92 -14 -39
-4 -56 54 -85 53 -27 53 -61 0 -77 -28 -9 -42 -21 -55 -47 -22 -46 -21 -58 6
-105 20 -36 21 -41 6 -55 -15 -15 -19 -15 -53 1 -32 16 -41 16 -74 5 -57 -20
-79 -37 -87 -68 -14 -58 -60 -75 -70 -25 -12 59 -28 75 -93 95 -58 18 -64 19
-80 3 -25 -22 -49 -20 -62 4 -12 22 -8 33 23 67 19 22 19 24 3 68 -17 44 -54
75 -91 75 -32 0 -13 30 37 57 60 32 67 49 43 104 -10 21 -15 45 -12 53 8 20
41 21 57 1 17 -21 28 -19 102 15 59 26 66 33 72 64 6 30 16 42 36 45 3 0 10
-3 16 -7z"/>
<path d="M4838 3111 c-107 -34 -158 -159 -109 -267 34 -74 139 -106 227 -69
49 20 71 41 95 87 29 57 25 107 -13 164 -47 70 -132 106 -200 85z m116 -81
c45 -40 63 -90 46 -131 -34 -80 -139 -108 -194 -51 -36 39 -44 91 -21 143 34
74 109 91 169 39z"/>
<path d="M6305 3308 c-20 -11 -35 -28 -35 -39 0 -16 34 -18 50 -4 21 19 39 19
46 0 9 -22 54 -19 54 3 0 43 -68 67 -115 40z"/>
<path d="M6292 3137 c3 -19 10 -22 51 -25 27 -2 47 0 44 5 -3 4 14 7 36 7 50
-2 62 3 48 20 -7 8 -42 13 -96 14 -83 1 -86 0 -83 -21z"/>
<path d="M3673 3078 c-6 -7 -13 -21 -16 -30 -6 -16 -34 -18 -344 -20 -293 -3
-338 -5 -338 -18 0 -13 47 -16 340 -20 332 -5 341 -6 368 -27 32 -25 49 -22
73 14 l16 26 221 -6 c177 -5 223 -9 237 -22 9 -8 27 -15 39 -15 23 0 71 41 71
60 0 17 -56 70 -74 70 -16 0 -42 -22 -48 -42 -6 -18 -450 -16 -456 1 -12 37
-69 55 -89 29z"/>
<path d="M2844 3023 c-14 -53 33 -81 73 -43 19 17 21 24 11 45 -9 19 -19 25
-44 25 -28 0 -35 -4 -40 -27z"/>
<path d="M2707 3028 c-7 -22 4 -47 24 -53 27 -9 39 2 39 36 0 25 -4 29 -29 29
-16 0 -31 -6 -34 -12z"/>
<path d="M257 2993 c-14 -13 -7 -53 11 -62 27 -14 52 5 52 39 0 26 -4 30 -28
30 -16 0 -32 -3 -35 -7z"/>
<path d="M1214 2959 c-42 -13 -78 -34 -112 -64 -47 -43 -61 -67 -76 -137 -6
-27 -9 -28 -69 -28 -94 0 -152 -24 -217 -89 -31 -31 -64 -74 -75 -96 -25 -53
-32 -161 -12 -218 l15 -44 -35 -18 c-53 -29 -129 -118 -147 -172 -38 -115 -28
-247 25 -327 35 -52 103 -116 124 -116 18 0 18 5 -1 -71 -19 -73 -14 -127 17
-199 42 -97 165 -179 287 -189 l63 -6 24 -58 c47 -116 104 -174 201 -203 121
-36 237 -1 297 91 l21 33 39 -44 c60 -68 106 -89 202 -89 138 0 227 60 280
191 25 62 38 71 100 73 38 1 159 58 203 96 45 38 80 102 93 169 10 55 6 83
-26 183 -5 16 -2 23 16 28 13 4 47 30 75 57 72 68 99 145 91 262 -3 44 -10 98
-16 118 -17 56 -83 132 -135 158 -25 12 -46 25 -46 28 0 4 7 32 15 62 31 117
10 205 -71 290 -76 80 -131 106 -220 103 l-71 -2 -28 65 c-63 147 -216 218
-357 164 -42 -15 -70 -35 -104 -73 -29 -32 -49 -47 -51 -39 -20 57 -145 132
-218 131 -22 0 -68 -9 -101 -20z m200 -86 c22 -16 51 -47 63 -68 22 -39 23
-48 23 -327 l0 -287 -37 -26 c-60 -41 -84 -34 -161 43 -108 107 -124 163 -72
246 36 56 29 76 -26 76 -38 0 -59 -24 -70 -78 -8 -38 -24 -40 -104 -12 -75 27
-100 26 -100 -2 0 -46 33 -68 128 -88 l76 -16 14 -44 c14 -42 105 -145 159
-182 20 -13 21 -18 12 -54 -11 -38 -8 -143 5 -175 5 -12 -1 -20 -23 -28 -44
-19 -132 -111 -176 -186 -47 -80 -63 -92 -146 -106 -108 -17 -127 -32 -92 -71
21 -23 41 -23 140 6 45 14 90 22 101 20 15 -4 21 3 31 38 29 96 83 171 160
220 63 40 102 36 159 -15 22 -20 22 -22 22 -329 0 -331 -3 -350 -51 -395 -32
-29 -101 -53 -152 -53 -92 0 -186 80 -214 182 -22 77 -42 98 -98 98 -116 0
-215 53 -261 140 -43 80 -23 189 39 218 33 16 61 56 53 77 -4 11 -21 15 -63
15 -143 0 -238 120 -219 277 15 131 77 199 214 233 52 13 55 35 12 83 -78 89
-65 204 33 294 58 54 107 67 215 59 l82 -7 0 54 c0 155 197 259 324 170z m454
18 c76 -39 132 -122 132 -195 0 -45 10 -50 68 -35 78 19 152 5 211 -41 115
-91 133 -239 40 -331 -21 -21 -39 -43 -39 -48 0 -16 35 -31 70 -31 17 0 47 -9
68 -19 93 -48 138 -139 130 -265 -6 -94 -35 -149 -103 -194 -46 -31 -55 -33
-115 -30 -63 3 -65 2 -65 -22 0 -19 10 -30 43 -49 72 -39 95 -101 76 -200 -10
-48 -86 -126 -157 -161 -66 -32 -109 -39 -169 -27 -41 9 -35 19 -53 -98 -8
-46 -62 -116 -108 -138 -21 -11 -64 -21 -96 -24 -84 -8 -139 19 -184 89 l-35
53 -7 171 c-3 94 -3 230 1 302 l7 132 45 35 c55 43 84 44 144 6 85 -54 137
-153 140 -267 1 -41 5 -77 9 -79 3 -3 16 18 28 45 25 59 35 61 115 25 66 -29
121 -33 130 -9 14 37 -3 51 -89 73 -96 26 -127 46 -155 101 -30 59 -112 153
-153 174 l-36 20 -3 100 c-2 56 -7 108 -11 116 -5 11 9 27 51 58 61 44 103 95
141 169 22 44 27 47 113 58 26 3 58 15 72 26 30 24 36 68 9 70 -41 3 -80 -4
-122 -21 l-45 -17 -22 48 c-31 66 -63 86 -114 70 -22 -6 -40 -15 -40 -19 0 -5
20 -27 44 -50 56 -53 65 -88 37 -145 -40 -82 -140 -177 -187 -177 -8 0 -35 16
-58 35 l-43 35 -6 207 c-3 115 -2 244 1 288 6 71 11 86 40 122 61 78 169 105
250 64z m-222 -811 c44 -15 54 -40 54 -130 l0 -70 -52 -26 c-29 -14 -66 -38
-81 -53 l-29 -26 -32 38 c-18 21 -49 44 -71 52 l-40 13 0 93 0 93 32 7 c44 9
78 32 100 69 l18 31 33 -40 c18 -22 48 -45 68 -51z"/>
<path d="M957 2213 c-4 -3 -7 -42 -7 -85 0 -44 -5 -88 -10 -99 -17 -31 -67
-51 -110 -44 -33 6 -39 4 -45 -15 -10 -31 2 -68 26 -81 17 -9 27 -6 57 14 20
14 48 27 62 30 14 4 41 22 60 42 l35 36 -3 97 c-2 60 -8 99 -15 104 -15 10
-41 10 -50 1z"/>
<path d="M1215 1338 c-8 -18 -24 -45 -36 -60 -19 -23 -20 -30 -9 -43 7 -8 27
-15 45 -15 25 0 40 8 64 35 17 20 31 38 31 40 0 18 -27 55 -47 64 -32 15 -31
15 -48 -21z"/>
<path d="M2065 2126 c0 -78 -3 -97 -19 -115 -25 -28 -14 -55 19 -47 18 5 51
-4 106 -28 67 -29 84 -33 108 -25 31 11 46 44 34 74 -5 15 -15 17 -63 12 -89
-10 -100 3 -100 112 0 96 -7 111 -55 111 l-30 0 0 -94z"/>
<path d="M1902 1394 c-6 -7 -35 -20 -63 -28 -69 -21 -79 -31 -79 -81 0 -48 22
-75 62 -75 28 0 58 28 58 54 0 9 9 35 21 57 22 45 24 97 1 73z"/>
<path d="M566 2856 c-9 -37 3 -58 32 -54 54 7 54 69 0 76 -20 2 -27 -2 -32
-22z"/>
<path d="M3652 2823 c-31 -27 -34 -54 -12 -91 28 -45 46 -49 78 -19 l27 26
245 -5 c200 -4 246 -8 253 -19 11 -21 61 -19 80 3 26 29 21 59 -13 77 -37 19
-46 19 -67 -2 -17 -17 -38 -18 -255 -12 l-237 5 -25 27 c-29 31 -46 34 -74 10z"/>
<path d="M2505 2820 c-3 -5 -2 -10 3 -10 6 0 13 -11 16 -24 7 -29 31 -40 57
-26 28 15 24 49 -7 60 -33 13 -61 13 -69 0z"/>
<path d="M278 2809 c-22 -12 -23 -42 -3 -59 12 -10 21 -10 45 0 34 14 38 30
12 53 -21 19 -30 20 -54 6z"/>
<path d="M3072 2809 c-62 -11 -99 -28 -147 -71 -162 -142 -118 -416 83 -515
187 -92 412 46 430 263 6 79 -9 135 -54 197 -75 103 -185 148 -312 126z m48
-94 c0 -43 -2 -46 -49 -77 -27 -18 -57 -45 -66 -61 -21 -35 -22 -95 -1 -138
16 -34 71 -79 95 -79 10 0 12 -9 7 -31 -3 -17 -6 -40 -6 -50 0 -27 -29 -24
-81 9 -55 36 -71 54 -103 118 -66 132 -1 285 141 336 65 23 63 24 63 -27z
m110 14 c151 -91 188 -280 75 -391 -37 -37 -123 -89 -129 -79 -3 4 -9 26 -14
49 -9 38 -8 42 12 48 70 21 124 136 96 204 -14 33 -85 100 -107 100 -14 0 -17
30 -7 68 8 28 29 28 74 1z m-41 -160 c58 -58 32 -129 -56 -154 -15 -4 -30 2
-52 22 -28 26 -35 44 -32 85 2 25 60 78 86 78 13 0 37 -14 54 -31z"/>
<path d="M477 2785 c-23 -17 -21 -52 4 -66 29 -15 54 9 45 44 -7 30 -26 39
-49 22z"/>
<path d="M407 2623 c-12 -11 -8 -60 6 -71 25 -21 68 37 46 64 -12 15 -41 19
-52 7z"/>
<path d="M3648 2570 c-12 -16 -28 -30 -35 -30 -20 0 -16 -10 14 -34 48 -38 66
-45 88 -34 11 6 24 17 28 24 6 11 57 14 251 14 235 0 244 -1 249 -20 7 -28 42
-25 72 5 32 31 31 38 -6 69 -37 31 -60 33 -77 6 -12 -19 -23 -20 -248 -20
l-236 0 -20 25 c-26 33 -53 32 -80 -5z"/>
<path d="M5507 2503 l-68 -4 2 -109 2 -110 74 0 c71 0 73 1 63 20 -8 15 -21
20 -55 20 -41 0 -45 2 -45 25 0 27 33 42 70 32 15 -4 20 0 20 14 0 16 -7 19
-45 19 -43 0 -45 1 -45 29 0 29 2 30 52 33 41 2 54 7 56 21 2 9 0 16 -5 15 -4
-1 -39 -3 -76 -5z"/>
<path d="M5692 2473 c-32 -62 -72 -165 -72 -185 0 -28 20 -21 31 12 9 24 18
30 54 36 50 7 65 1 65 -26 0 -23 18 -36 32 -22 6 6 0 33 -20 78 -17 38 -33 81
-37 96 -4 15 -13 32 -20 38 -11 9 -18 3 -33 -27z m36 -68 c16 -35 16 -35 -13
-35 -27 0 -28 3 -19 38 8 29 18 28 32 -3z"/>
<path d="M6168 2435 l-3 -74 -50 67 c-27 37 -58 68 -67 70 -16 3 -18 -7 -18
-108 0 -85 3 -111 13 -108 7 3 14 32 17 79 l5 74 19 -35 c28 -52 85 -120 102
-120 11 0 14 22 14 115 0 94 -3 115 -15 115 -11 0 -15 -17 -17 -75z"/>
<path d="M6257 2503 c-4 -3 -7 -55 -7 -115 0 -86 3 -108 14 -108 18 0 24 51
18 152 -4 73 -9 87 -25 71z"/>
<path d="M6592 2490 c-34 -21 -62 -71 -62 -111 0 -30 71 -99 102 -99 14 0 37
9 52 21 20 16 26 29 26 60 0 39 -1 40 -32 37 -39 -4 -51 -28 -13 -28 23 0 24
-2 15 -20 -18 -33 -48 -44 -75 -26 -29 19 -39 48 -30 92 5 27 14 39 40 51 32
15 36 15 53 0 11 -10 23 -13 31 -8 11 7 9 13 -8 30 -26 26 -57 27 -99 1z"/>
<path d="M4468 2390 l3 -110 49 0 c41 0 55 5 85 31 31 27 35 37 35 78 -1 74
-42 111 -127 111 l-48 0 3 -110z m120 56 c20 -19 21 -92 2 -110 -8 -8 -32 -18
-52 -21 l-38 -7 0 82 0 83 37 -6 c20 -4 43 -13 51 -21z"/>
<path d="M4675 2398 c4 -57 9 -106 12 -110 2 -5 33 -8 68 -8 59 0 63 1 58 21
-5 19 -11 21 -50 16 -48 -5 -55 -1 -46 31 4 17 13 22 39 22 28 0 34 4 34 21 0
19 -4 21 -40 16 l-40 -5 0 35 c0 32 2 35 23 29 29 -7 79 6 85 22 3 9 -18 12
-73 12 l-77 0 7 -102z"/>
<path d="M4857 2494 c-4 -4 -7 -54 -7 -111 l0 -104 67 3 c55 2 68 6 71 21 3
14 -5 17 -52 17 -48 0 -56 3 -56 19 0 21 19 31 61 31 22 0 29 5 29 20 0 19 -4
20 -57 13 l-58 -6 16 24 c10 14 35 29 63 37 28 8 46 18 43 25 -4 13 -108 22
-120 11z"/>
<path d="M5020 2391 c0 -88 3 -110 15 -115 11 -4 15 2 15 22 0 37 10 48 47 56
79 18 109 84 57 125 -20 15 -41 21 -80 21 l-54 0 0 -109z m109 61 c13 -25 -10
-58 -44 -64 -23 -5 -25 -2 -25 32 0 20 3 40 7 43 13 14 53 6 62 -11z"/>
<path d="M5280 2390 l0 -110 65 0 c58 0 65 2 65 20 0 17 -7 20 -50 20 l-50 0
0 90 c0 73 -3 90 -15 90 -12 0 -15 -19 -15 -110z"/>
<path d="M5840 2395 c0 -82 3 -105 14 -105 7 0 16 14 20 30 8 42 38 40 65 -5
11 -19 27 -35 36 -35 13 0 12 6 -6 41 l-20 41 20 22 c12 13 21 36 21 53 0 45
-27 63 -93 63 l-57 0 0 -105z m116 60 c7 -18 -21 -65 -39 -65 -23 0 -37 16
-43 48 -6 32 -6 32 35 32 28 0 44 -5 47 -15z"/>
<path d="M6337 2488 c-6 -17 3 -189 11 -208 4 -8 9 18 12 58 l5 73 55 -65 c30
-36 58 -66 62 -66 13 0 20 82 13 151 -5 51 -11 69 -22 69 -12 0 -13 -12 -7
-71 8 -88 0 -88 -58 0 -44 67 -62 82 -71 59z"/>
<path d="M8284 2433 c-63 -150 -66 -171 -16 -124 25 24 32 40 32 69 1 27 3 33
10 21 5 -8 10 -26 12 -40 4 -30 34 -79 48 -79 17 0 11 29 -20 90 -16 33 -30
66 -30 74 0 31 -20 25 -36 -11z"/>
<path d="M8578 2464 c-5 -4 -8 -14 -8 -23 0 -9 -14 -43 -30 -76 -16 -33 -30
-66 -30 -72 0 -24 18 -13 39 22 11 19 25 35 30 35 5 0 25 -19 45 -42 33 -40
36 -41 36 -18 -1 32 -72 184 -82 174z m-1 -86 c-3 -8 -6 -5 -6 6 -1 11 2 17 5
13 3 -3 4 -12 1 -19z"/>
<path d="M8802 2448 c-14 -17 -52 -128 -52 -150 0 -24 17 -23 25 1 3 10 18 22
33 26 21 5 30 2 41 -14 12 -20 41 -29 41 -14 0 15 -63 163 -70 163 -4 0 -12
-6 -18 -12z m18 -73 c0 -19 -4 -35 -10 -35 -5 0 -10 16 -10 35 0 19 5 35 10
35 6 0 10 -16 10 -35z"/>
<path d="M9016 2429 c-3 -17 -6 -48 -6 -68 l0 -36 -24 50 c-21 46 -52 83 -60
74 -9 -10 -17 -159 -8 -159 14 0 22 26 22 73 l0 42 32 -52 c49 -80 58 -77 58
22 0 47 -2 85 -4 85 -2 0 -6 -14 -10 -31z"/>
<path d="M9117 2434 c-27 -56 -60 -145 -54 -150 3 -3 19 4 36 17 21 15 31 31
31 48 0 21 -2 23 -11 11 -9 -12 -10 -12 -5 3 3 10 6 24 6 30 0 7 10 -7 22 -30
27 -53 72 -107 64 -78 -9 37 -57 160 -66 169 -5 4 -15 -4 -23 -20z"/>
<path d="M9234 2447 c-7 -19 3 -143 12 -159 9 -15 64 -9 64 7 0 9 -9 15 -25
15 -24 0 -25 3 -25 63 0 67 -14 106 -26 74z"/>
<path d="M9537 2408 c-8 -85 -4 -118 14 -118 13 0 14 11 7 82 -4 44 -10 83
-12 85 -2 3 -7 -19 -9 -49z"/>
<path d="M8070 2370 l0 -80 41 0 c33 0 46 6 70 32 37 41 37 62 0 99 -23 23
-39 29 -70 29 l-41 0 0 -80z m90 30 c26 -26 25 -36 -5 -65 -40 -41 -55 -33
-55 30 0 48 2 55 20 55 11 0 29 -9 40 -20z"/>
<path d="M8377 2443 c-14 -14 -6 -22 26 -25 l32 -3 3 -67 c4 -87 22 -89 22 -3
0 61 2 66 25 75 44 17 28 30 -38 30 -35 0 -67 -3 -70 -7z"/>
<path d="M9420 2415 c-14 -43 -25 -44 -45 -5 -22 43 -27 37 -10 -11 8 -23 15
-62 15 -86 0 -38 2 -44 14 -33 8 6 16 20 18 31 3 20 24 23 22 3 -2 -15 23 -12
36 4 6 7 7 10 4 7 -14 -10 -34 19 -34 49 0 37 14 61 29 52 6 -4 11 0 11 8 0
10 -9 16 -24 16 -19 0 -27 -8 -36 -35z"/>
<path d="M9618 2439 c-21 -12 -24 -39 -5 -39 13 0 57 35 57 45 0 9 -35 5 -52
-6z"/>
<path d="M9700 2420 c0 -5 4 -10 9 -10 5 0 16 -2 24 -5 8 -4 14 0 14 10 0 9
-9 15 -24 15 -12 0 -23 -4 -23 -10z"/>
<path d="M285 2410 c-18 -29 19 -91 46 -74 12 7 12 74 0 74 -5 0 -16 3 -24 6
-8 3 -18 0 -22 -6z"/>
<path d="M9610 2366 c0 -10 45 -81 55 -88 17 -13 50 -9 71 8 15 13 16 15 2 10
-20 -6 -64 27 -73 54 -4 13 -15 20 -31 20 -13 0 -24 -2 -24 -4z"/>
<path d="M3644 2325 c-25 -34 -26 -36 -10 -60 10 -14 28 -31 42 -37 21 -10 28
-8 54 17 l29 27 236 3 237 2 10 -23 c6 -13 17 -24 23 -24 24 0 65 41 65 65 0
24 -42 65 -66 65 -8 0 -19 -9 -26 -20 -12 -19 -24 -20 -250 -20 -225 0 -239 1
-258 20 -29 29 -55 25 -86 -15z"/>
<path d="M7806 2344 c-3 -9 -6 -353 -6 -765 l0 -749 -59 0 c-43 0 -60 -4 -65
-15 -15 -40 -4 -43 237 -47 195 -4 1431 -3 1970 1 l158 1 -3 28 c-3 27 -4 27
-80 30 l-78 3 0 654 0 654 -32 6 c-18 3 -89 5 -158 3 l-125 -3 -3 -653 -2
-653 -26 -9 c-14 -6 -29 -10 -35 -10 -5 0 -10 205 -11 508 l-3 507 -160 0
-160 0 -3 -509 -2 -508 -23 6 c-12 3 -28 6 -34 6 -10 0 -13 96 -15 428 l-3
427 -148 0 c-119 -1 -150 -3 -157 -15 -6 -9 -10 -193 -10 -432 l0 -418 -35 0
-35 0 0 289 c0 159 -3 296 -6 305 -5 14 -28 16 -155 16 -82 0 -150 -1 -151 -2
-1 -2 -5 -138 -8 -303 l-5 -300 -35 0 -35 0 -3 192 c-2 190 -3 193 -25 198
-12 3 -85 4 -162 3 l-140 -3 -3 -192 -2 -193 -56 0 -56 0 4 309 c2 170 6 312
8 315 3 2 44 8 92 12 69 5 92 3 118 -10 18 -9 35 -16 36 -16 2 0 13 19 25 43
29 57 149 225 187 261 29 27 34 28 89 21 32 -4 79 -16 105 -27 l46 -20 74 78
c116 124 170 173 208 185 19 7 76 32 125 57 84 42 95 45 163 44 50 -1 84 -8
110 -21 41 -21 53 -18 71 16 17 33 14 45 -9 31 -15 -10 -36 -9 -102 4 -108 21
-173 13 -258 -34 -36 -20 -90 -44 -120 -53 -47 -16 -70 -33 -165 -129 -60 -60
-114 -109 -120 -107 -5 2 -53 12 -105 21 -74 13 -100 15 -118 6 -27 -14 -117
-133 -175 -232 l-42 -72 -115 -4 c-63 -2 -117 -3 -120 0 -3 2 -6 195 -8 428
l-3 424 -23 0 c-13 0 -27 -7 -30 -16z m1992 -262 c9 -2 12 -133 12 -621 l0
-618 -87 -6 c-48 -4 -89 -4 -93 -1 -8 9 -13 1014 -5 1139 l7 110 76 -1 c43 0
83 -1 90 -2z m-383 -374 c4 -34 4 -245 0 -470 l-7 -409 -87 3 -86 3 -3 455
c-1 250 0 461 3 468 3 8 30 12 89 12 l84 0 7 -62z m-395 -483 l0 -395 -84 0
-83 0 -7 31 c-3 17 -6 195 -6 395 l0 364 90 0 90 0 0 -395z m-400 -125 l0
-270 -85 0 -85 0 0 265 0 264 58 4 c31 2 69 4 85 5 l27 2 0 -270z m-393 -97
c0 -82 -4 -153 -8 -159 -5 -6 -46 -12 -94 -13 l-85 -2 0 160 0 161 94 0 93 0
0 -147z"/>
<path d="M250 2189 c0 -24 4 -30 18 -27 10 2 18 14 20 31 3 22 -1 27 -17 27
-17 0 -21 -6 -21 -31z"/>
<path d="M4645 2027 c-70 -70 -53 -161 39 -206 48 -24 48 -24 84 -5 40 22 82
82 82 119 0 33 -26 85 -54 107 -13 11 -39 18 -69 18 -42 0 -54 -5 -82 -33z
m139 -60 c13 -36 -9 -85 -42 -94 -30 -7 -52 5 -72 40 -13 24 -13 30 0 54 27
49 97 49 114 0z"/>
<path d="M6272 2033 c3 -15 16 -19 66 -21 57 -3 62 -1 62 18 0 18 -6 20 -66
20 -57 0 -65 -2 -62 -17z"/>
<path d="M6490 2030 c0 -18 7 -20 64 -20 55 0 64 3 69 20 5 19 0 20 -64 20
-62 0 -69 -2 -69 -20z"/>
<path d="M6702 2028 c2 -13 6 -22 11 -20 4 1 32 2 62 2 48 0 55 2 55 20 0 18
-7 20 -66 20 -62 0 -65 -1 -62 -22z"/>
<path d="M6904 2034 c3 -9 6 -18 6 -20 0 -2 29 -4 65 -4 58 0 65 2 65 20 0 18
-7 20 -71 20 -61 0 -70 -2 -65 -16z"/>
<path d="M7120 2030 c0 -28 16 -32 80 -23 40 6 56 13 58 26 3 15 -5 17 -67 17
-65 0 -71 -2 -71 -20z"/>
<path d="M7344 2034 c3 -9 6 -18 6 -20 0 -2 27 -4 60 -4 53 0 60 2 60 20 0 18
-7 20 -66 20 -56 0 -65 -2 -60 -16z"/>
<path d="M2867 1993 c-12 -3 -17 -12 -15 -26 3 -19 9 -22 48 -22 36 0 45 4 48
19 6 30 -28 43 -81 29z"/>
<path d="M3030 1975 c0 -48 82 -64 102 -19 15 32 0 44 -59 44 -39 0 -43 -2
-43 -25z"/>
<path d="M3215 1980 c-3 -6 -3 -19 0 -30 11 -35 115 -22 115 14 0 24 -102 37
-115 16z"/>
<path d="M3383 1980 c-44 -18 -27 -38 37 -45 65 -8 90 2 90 36 0 16 -8 19 -52
18 -29 0 -63 -4 -75 -9z"/>
<path d="M3556 1974 c-10 -26 2 -34 50 -34 41 0 49 6 45 33 -3 17 17 5 22 -14
5 -17 12 -20 54 -17 40 3 48 6 48 23 0 19 -8 20 -106 23 -91 2 -108 0 -113
-14z"/>
<path d="M5224 1971 c-35 -21 -74 -71 -74 -95 0 -8 18 -33 40 -56 57 -58 92
-56 154 10 25 27 46 52 46 55 0 16 -22 45 -33 45 -7 0 -23 14 -35 30 -26 35
-54 38 -98 11z m39 -79 c-4 -13 -2 -13 10 3 16 19 16 19 17 -17 0 -20 -5 -40
-11 -44 -16 -10 -53 31 -43 47 5 8 9 17 10 22 1 4 2 10 3 13 0 3 5 3 11 -1 5
-3 6 -13 3 -23z"/>
<path d="M4198 1920 c-91 -27 -149 -130 -114 -201 l16 -32 -52 -56 c-29 -31
-80 -80 -113 -109 -33 -30 -85 -80 -115 -111 -30 -31 -95 -94 -144 -139 l-89
-82 -22 20 c-49 46 -131 46 -199 1 l-28 -19 -58 45 c-53 40 -58 49 -64 92 -9
65 -41 111 -99 140 -44 22 -54 23 -97 13 -26 -6 -63 -21 -82 -34 l-33 -23 16
-65 c27 -100 88 -138 203 -126 l62 6 56 -54 c55 -53 56 -55 60 -120 7 -118 88
-183 201 -162 85 16 153 123 129 202 l-10 34 161 149 c89 82 204 192 256 244
l94 95 36 -19 c43 -23 99 -24 148 -4 l36 15 76 -72 c228 -217 428 -419 420
-424 -14 -8 -11 -92 5 -122 35 -67 103 -106 165 -96 111 18 181 118 148 212
-8 20 19 50 244 272 l253 250 23 -22 c36 -33 139 -38 189 -9 l37 22 31 -28
c17 -15 119 -114 226 -219 107 -105 211 -203 230 -217 34 -26 34 -27 35 -104
1 -113 25 -144 120 -162 59 -11 131 11 211 64 59 39 65 58 42 122 -12 34 -12
35 38 81 28 26 63 63 77 83 14 20 53 64 87 98 l61 62 35 -30 c52 -46 106 -38
166 26 56 59 59 131 6 183 -53 54 -149 59 -198 10 -21 -21 -40 -80 -40 -125 0
-22 -13 -43 -49 -80 -43 -45 -149 -175 -192 -236 -16 -23 -17 -23 -55 -6 -21
9 -50 19 -64 21 -14 2 -41 11 -61 20 -40 17 -88 9 -118 -18 -16 -14 -40 7
-278 243 l-260 259 1 59 c1 76 -26 130 -82 161 -120 67 -275 -25 -251 -150 l8
-43 -87 -85 c-48 -46 -165 -161 -260 -255 -145 -142 -175 -167 -183 -153 -24
43 -142 47 -194 6 l-27 -21 -96 94 c-54 52 -146 142 -207 199 -60 58 -127 122
-148 142 -36 35 -38 39 -32 81 13 87 -26 165 -99 198 -44 20 -66 22 -108 9z
m108 -93 c30 -28 37 -40 38 -76 1 -36 -4 -47 -32 -72 -48 -43 -90 -40 -136 11
-20 22 -36 49 -36 61 0 52 55 108 108 109 12 0 39 -15 58 -33z m1544 20 c57
-45 67 -122 22 -167 -37 -36 -91 -48 -124 -26 -66 43 -74 132 -17 180 33 28
92 35 119 13z m1359 -282 c49 -25 55 -77 16 -124 -47 -55 -85 -48 -121 21 -20
39 -17 56 15 89 33 33 50 35 90 14z m-4126 -146 c46 -21 73 -99 45 -127 -41
-41 -166 36 -145 91 3 7 20 21 39 30 40 20 32 19 61 6z m455 -272 c27 -28 40
-94 23 -125 -13 -24 -49 -45 -94 -56 -24 -6 -34 -1 -68 32 -23 24 -39 49 -39
63 0 34 33 92 61 107 33 17 88 8 117 -21z m1551 -20 c30 -61 21 -101 -29 -135
-46 -31 -94 -24 -132 18 -40 44 -38 88 6 135 32 33 38 36 83 33 46 -3 49 -5
72 -51z m1561 -17 c43 -46 44 -78 5 -117 -46 -46 -102 -47 -139 -2 -35 42 -33
74 8 115 45 45 87 46 126 4z"/>
<path d="M240 1836 c0 -19 31 -30 41 -14 4 6 5 16 3 20 -9 14 -44 9 -44 -6z"/>
<path d="M6488 1824 c-3 -3 -4 -14 -1 -25 5 -16 14 -19 69 -19 56 0 64 2 64
19 0 11 -9 21 -22 25 -29 7 -103 8 -110 0z"/>
<path d="M2843 1813 c-7 -2 -13 -16 -13 -29 0 -22 4 -24 45 -24 35 0 47 4 56
21 9 17 8 23 -2 30 -15 9 -66 11 -86 2z"/>
<path d="M3280 1790 l0 -30 60 0 c57 0 60 1 60 24 0 28 -16 36 -76 36 -42 0
-44 -1 -44 -30z"/>
<path d="M3688 1809 c-32 -18 -21 -37 27 -45 57 -8 77 0 73 28 -2 19 -10 23
-43 25 -22 2 -48 -2 -57 -8z"/>
<path d="M6270 1800 c0 -18 7 -20 60 -20 53 0 60 2 60 20 0 18 -7 20 -60 20
-53 0 -60 -2 -60 -20z"/>
<path d="M6700 1801 c0 -16 9 -20 60 -23 57 -3 60 -2 60 20 0 20 -4 22 -60 22
-52 0 -60 -2 -60 -19z"/>
<path d="M6910 1795 c0 -25 1 -26 63 -23 56 3 62 5 65 26 3 21 0 22 -62 22
-64 0 -66 -1 -66 -25z"/>
<path d="M7130 1795 c0 -22 4 -25 28 -21 15 2 44 5 65 5 30 1 37 5 37 21 0 18
-7 20 -65 20 -63 0 -65 -1 -65 -25z"/>
<path d="M7360 1795 c0 -25 2 -26 53 -23 44 3 52 6 52 23 0 17 -8 20 -52 23
-51 3 -53 2 -53 -23z"/>
<path d="M3040 1785 c0 -26 0 -26 78 -23 71 3 77 5 80 26 3 21 1 22 -77 22
-80 0 -81 0 -81 -25z"/>
<path d="M3482 1788 c3 -21 8 -23 56 -23 49 1 71 12 72 38 0 4 -30 7 -66 7
-62 0 -65 -1 -62 -22z"/>
<path d="M3458 1643 c-30 -5 -36 -24 -14 -42 23 -19 106 -4 106 19 0 16 -30
32 -55 28 -5 0 -22 -3 -37 -5z"/>
<path d="M3042 1618 c3 -20 9 -23 48 -23 39 0 45 3 48 23 3 20 0 22 -48 22
-48 0 -51 -2 -48 -22z"/>
<path d="M3239 1618 c7 -20 15 -23 62 -23 48 0 54 2 57 23 3 21 0 22 -62 22
-64 0 -65 -1 -57 -22z"/>
<path d="M3630 1632 c0 -18 32 -52 49 -52 28 0 46 26 31 45 -13 15 -80 21 -80
7z"/>
<path d="M4962 1632 c-8 -6 -10 -19 -6 -40 5 -25 12 -32 30 -32 21 0 24 5 24
34 0 22 -6 36 -16 40 -19 7 -16 7 -32 -2z"/>
<path d="M4742 1603 c2 -22 9 -29 29 -31 19 -2 28 2 31 15 8 30 -2 43 -33 43
-27 0 -30 -3 -27 -27z"/>
<path d="M272 1549 c-17 -27 0 -49 38 -49 20 0 29 6 33 22 12 45 -46 67 -71
27z"/>
<path d="M382 1428 c-29 -29 3 -82 36 -61 25 15 22 67 -3 71 -11 1 -26 -3 -33
-10z"/>
<path d="M5735 1401 c-3 -6 -3 -26 1 -46 4 -26 11 -35 26 -35 16 0 19 6 16 42
-2 30 -8 44 -20 46 -9 2 -19 -2 -23 -7z"/>
<path d="M280 1311 c-21 -16 -23 -23 -14 -38 16 -25 58 -24 62 2 1 11 -3 28
-11 38 -12 18 -14 18 -37 -2z"/>
<path d="M464 1266 c-10 -25 0 -48 23 -57 18 -6 25 -4 33 12 16 29 3 59 -26
59 -14 0 -27 -6 -30 -14z"/>
<path d="M4220 1233 c0 -31 16 -53 38 -53 9 0 12 11 10 38 -2 30 -7 38 -25 40
-19 3 -23 -1 -23 -25z"/>
<path d="M5747 1243 c-4 -3 -7 -21 -7 -40 0 -40 26 -56 46 -28 18 24 18 40 -2
59 -17 17 -27 20 -37 9z"/>
<path d="M5540 1200 c0 -5 9 -10 20 -10 11 0 20 5 20 10 0 6 -9 10 -20 10 -11
0 -20 -4 -20 -10z"/>
<path d="M2513 1163 c-7 -17 32 -56 50 -50 22 7 31 35 18 51 -18 21 -60 20
-68 -1z"/>
<path d="M552 1148 c-17 -17 -15 -32 6 -51 37 -34 73 -7 57 43 -7 22 -44 27
-63 8z"/>
<path d="M5975 1127 c-68 -68 -51 -182 31 -219 39 -17 46 -17 78 -4 42 17 66
52 73 104 17 125 -100 201 -182 119z m114 -60 c19 -36 10 -79 -21 -96 -24 -14
-28 -14 -47 3 -28 26 -28 82 0 112 25 27 47 20 68 -19z"/>
<path d="M4187 1112 c-15 -9 -37 -36 -48 -59 -26 -54 -19 -92 28 -144 57 -63
123 -52 172 31 25 41 27 80 6 120 -27 53 -111 80 -158 52z m101 -77 c13 -29 0
-82 -25 -101 -24 -18 -30 -17 -53 6 -24 24 -27 91 -6 113 21 21 71 10 84 -18z"/>
<path d="M361 1092 c-19 -35 33 -59 59 -27 7 8 10 22 6 30 -8 21 -53 19 -65
-3z"/>
<path d="M2415 1050 c-3 -10 -1 -29 5 -41 l12 -22 26 26 c21 22 23 28 12 41
-17 22 -47 20 -55 -4z"/>
<path d="M672 1038 c-15 -15 -15 -51 0 -66 19 -19 44 -14 56 12 9 19 7 27 -6
39 -28 24 -38 27 -50 15z"/>
<path d="M5740 1010 c0 -36 3 -40 25 -40 22 0 25 4 25 34 0 32 -13 46 -41 46
-5 0 -9 -18 -9 -40z"/>
<path d="M3902 993 c3 -27 6 -28 53 -28 47 0 50 2 50 25 0 23 -4 25 -53 28
-53 3 -53 3 -50 -25z"/>
<path d="M4450 996 c0 -24 3 -26 46 -26 41 0 45 2 42 23 -2 18 -10 23 -45 25
-40 3 -43 1 -43 -22z"/>
<path d="M2312 968 c-19 -19 -14 -46 10 -59 18 -10 24 -8 35 7 7 10 13 23 13
29 0 14 -21 35 -35 35 -6 0 -16 -5 -23 -12z"/>
<path d="M522 928 c-17 -17 -15 -32 7 -52 17 -15 20 -15 41 2 17 13 21 24 16
40 -8 24 -44 30 -64 10z"/>
<path d="M799 914 c-9 -11 -10 -20 -2 -32 16 -26 50 -27 64 -1 10 19 9 25 -7
36 -24 17 -39 16 -55 -3z"/>
<path d="M2500 892 c0 -28 25 -45 56 -38 19 5 25 12 22 29 -2 18 -11 23 -40
25 -32 3 -38 0 -38 -16z"/>
<path d="M2177 875 c-9 -21 26 -60 47 -52 40 16 25 67 -19 67 -13 0 -25 -7
-28 -15z"/>
<path d="M5742 818 c2 -25 8 -33 23 -33 15 0 21 8 23 33 3 29 1 32 -23 32 -24
0 -26 -3 -23 -32z"/>
<path d="M957 834 c-4 -4 -7 -18 -7 -31 0 -19 5 -23 31 -23 27 0 30 3 27 28
-3 26 -34 43 -51 26z"/>
</g>
</svg>
